{
.appVersion = "1230";
copyright = "Copyright 2019 The Tomorrow Project Authors (https://github.com/googlefonts/Tomorrow)";
customParameters = (
{
name = panose;
value = (
0,
0,
2,
0,
0,
0,
0,
0,
0,
0
);
},
{
name = unicodeRanges;
value = (
0,
1,
2,
29
);
},
{
name = codePageRanges;
value = (
1252,
1250,
1257
);
},
{
name = blueScale;
value = 0.037;
},
{
name = glyphOrder;
value = (
.notdef,
CR,
space,
A,
Aacute,
Abreve,
uni1EAE,
uni1EB6,
uni1EB0,
uni1EB2,
uni1EB4,
Acircumflex,
uni1EA4,
uni1EAC,
uni1EA6,
uni1EA8,
uni1EAA,
uni0200,
Adieresis,
uni1EA0,
Agrave,
uni1EA2,
uni0202,
Amacron,
Aogonek,
Aring,
Aringacute,
Atilde,
AE,
AEacute,
B,
C,
Cacute,
Ccaron,
Ccedilla,
Ccircumflex,
Cdotaccent,
D,
uni01C4,
Eth,
Dcaron,
Dcroat,
uni01C5,
E,
Eacute,
Ebreve,
Ecaron,
Ecircumflex,
uni1EBE,
uni1EC6,
uni1EC0,
uni1EC2,
uni1EC4,
uni0204,
Edieresis,
Edotaccent,
uni1EB8,
Egrave,
uni1EBA,
uni0206,
Emacron,
Eogonek,
uni1EBC,
F,
G,
Gbreve,
Gcaron,
Gcircumflex,
uni0122,
Gdotaccent,
H,
Hbar,
Hcircumflex,
I,
Iacute,
Ibreve,
Icircumflex,
uni0208,
Idieresis,
Idotaccent,
uni1ECA,
Igrave,
uni1EC8,
uni020A,
Imacron,
Iogonek,
Itilde,
J,
Jcircumflex,
K,
uni0136,
L,
uni01C7,
Lacute,
Lcaron,
uni013B,
Ldot,
uni01C8,
Lslash,
M,
N,
uni01CA,
Nacute,
Ncaron,
uni0145,
Eng,
uni01CB,
Ntilde,
O,
Oacute,
Obreve,
Ocircumflex,
uni1ED0,
uni1ED8,
uni1ED2,
uni1ED4,
uni1ED6,
uni020C,
Odieresis,
uni022A,
uni0230,
uni1ECC,
Ograve,
uni1ECE,
Ohorn,
uni1EDA,
uni1EE2,
uni1EDC,
uni1EDE,
uni1EE0,
Ohungarumlaut,
uni020E,
Omacron,
uni01EA,
Oslash,
Oslashacute,
Otilde,
uni022C,
OE,
P,
Thorn,
Q,
R,
Racute,
Rcaron,
uni0156,
uni0210,
uni0212,
S,
Sacute,
Scaron,
Scedilla,
Scircumflex,
uni0218,
uni1E9E,
uni018F,
T,
Tbar,
Tcaron,
uni0162,
uni021A,
U,
Uacute,
Ubreve,
Ucircumflex,
uni0214,
Udieresis,
uni1EE4,
Ugrave,
uni1EE6,
Uhorn,
uni1EE8,
uni1EF0,
uni1EEA,
uni1EEC,
uni1EEE,
Uhungarumlaut,
uni0216,
Umacron,
Uogonek,
Uring,
Utilde,
V,
W,
Wacute,
Wcircumflex,
Wdieresis,
Wgrave,
X,
Y,
Yacute,
Ycircumflex,
Ydieresis,
uni1EF4,

glyphs = (
{
glyphname = .notdef;
lastChange = "2019-09-04 12:21:52 +0000";
layers = (
{
hints = (
{
horizontal = 1;
place = "{223.25, 22}";
type = Stem;
},
{
horizontal = 1;
place = "{385, 137.5}";
type = Stem;
},
{
place = "{116.92, 21.51}";
type = Stem;
},
{
place = "{584.93, 22.49}";
type = Stem;
}
);
layerId = "456D8B29-1305-406A-A7FA-547C067BBBCD";
paths = (
{
closed = 1;
nodes = (
"135.23 103.37 LINE",
"141.64 139.75 LINE",
"234.36 223.25 LINE",
"524.86 223.25 LINE",
"588.14 139.75 LINE",
"581.73 103.37 LINE",
"603.73 103.37 LINE",
"611.11 145.25 LINE",
"535.24 245.25 LINE",
"231.74 245.25 LINE",
"120.61 145.25 LINE",
"113.23 103.37 LINE"
);
},
{
closed = 1;
nodes = (
"322.38 385 LINE",
"346.63 522.5 LINE",
"324.63 522.5 LINE",
"300.38 385 LINE"
);
},
{
closed = 1;
nodes = (
"515.88 385 LINE",
"540.13 522.5 LINE",
"518.13 522.5 LINE",
"493.88 385 LINE"
);
}
);
width = 679;
}
);
note = .notdef;
},
{
glyphname = A;
lastChange = "2019-09-11 15:53:09 +0000";
layers = (
{
hints = (
{
horizontal = 1;
place = "{216.75, 22}";
type = Stem;
},
{
horizontal = 1;
place = "{715, 22}";
type = Stem;
},
{
place = "{20, 586.75}";
type = Stem;
}
);
layerId = "456D8B29-1305-406A-A7FA-547C067BBBCD";
paths = (
{
closed = 1;
nodes = (
"43.3 0 LINE",
"160.95 216.75 LINE",
"545.05 216.75 LINE",
"586.1 0 LINE",
"606.75 0 LINE",
"468 737 LINE",
"419.5 737 LINE",
"20 0 LINE"
);
},
{
closed = 1;
nodes = (
"431.4 715 LINE",
"450.7 715 LINE",
"540.89 238.75 LINE",
"172.89 238.75 LINE"
);
}
);
width = 627;
}
);
leftKerningGroup = A;
note = A;
rightKerningGroup = A;
unicode = 0041;
},
{
glyphname = Aacute;
lastChange = "2019-09-04 12:21:52 +0000";
layers = (
{
hints = (
{
horizontal = 1;
place = "{216.75, 22}";
type = Stem;
},
{
horizontal = 1;
place = "{715, 22}";
type = Stem;
},
{
place = "{20, 586.75}";
type = Stem;
}
);
layerId = "456D8B29-1305-406A-A7FA-547C067BBBCD";
paths = (
{
closed = 1;
nodes = (
"43.3 0 LINE",
"160.95 216.75 LINE",
"545.05 216.75 LINE",
"586.1 0 LINE",
"606.75 0 LINE",
"468 737 LINE",
"419.5 737 LINE",
"20 0 LINE"
);
},
{
closed = 1;
nodes = (
"431.4 715 LINE",
"450.7 715 LINE",
"540.89 238.75 LINE",
"172.89 238.75 LINE"
);
},
{
closed = 1;
nodes = (
"466.54 794.25 LINE",
"588.27 932.75 LINE",
"552.5 932.75 LINE",
"443.25 794.25 LINE"
);
}
);
width = 627;
}
);
leftKerningGroup = A;
note = Aacute;
rightKerningGroup = A;
unicode = 00C1;
},
{
glyphname = Abreve;
lastChange = "2019-09-04 12:21:52 +0000";
layers = (
{
hints = (
{
horizontal = 1;
place = "{216.75, 22}";
type = Stem;
},
{
horizontal = 1;
place = "{715, 22}";
type = Stem;
},
{
horizontal = 1;
place = "{794.25, 20.87}";
type = Stem;
},
{
place = "{20, 586.75}";
type = Stem;
}
);
layerId = "456D8B29-1305-406A-A7FA-547C067BBBCD";
paths = (
{
closed = 1;
nodes = (
"43.3 0 LINE",
"160.95 216.75 LINE",
"545.05 216.75 LINE",
"586.1 0 LINE",
"606.75 0 LINE",
"468 737 LINE",
"419.5 737 LINE",
"20 0 LINE"
);
},
{
closed = 1;
nodes = (
"431.4 715 LINE",
"450.7 715 LINE",
"540.89 238.75 LINE",
"172.89 238.75 LINE"
);
},
{
closed = 1;
nodes = (
"515.06 794.25 LINE",
"570.2 841.18 LINE",
"582.62 910.75 LINE",
"561.62 910.75 LINE",
"550.87 850.25 LINE",
"509.62 815.12 LINE",
"397.37 815.12 LINE",
"368.37 850.25 LINE",
"379.12 910.75 LINE",
"358.12 910.75 LINE",
"346.57 845.44 LINE",
"389.24 794.25 LINE"
);
}
);
width = 627;
}
);
leftKerningGroup = A;
note = Abreve;
rightKerningGroup = A;
unicode = 0102;
},
{
glyphname = uni1EAE;
lastChange = "2019-09-04 12:21:52 +0000";
layers = (
{
hints = (
{
horizontal = 1;
place = "{216.75, 22}";
type = Stem;
},
{
horizontal = 1;
place = "{715, 22}";
type = Stem;
},
{
horizontal = 1;
place = "{794.25, 20.87}";
type = Stem;
},
{
place = "{20, 586.75}";
type = Stem;
}
);
layerId = "456D8B29-1305-406A-A7FA-547C067BBBCD";
paths = (
{
closed = 1;
nodes = (
"43.3 0 LINE",
"160.95 216.75 LINE",
"545.05 216.75 LINE",
"586.1 0 LINE",
"606.75 0 LINE",
"468 737 LINE",
"419.5 737 LINE",
"20 0 LINE"
);
},
{
closed = 1;
nodes = (
"431.4 715 LINE",
"450.7 715 LINE",
"540.89 238.75 LINE",
"172.89 238.75 LINE"
);
},
{
closed = 1;
nodes = (
"515.07 794.25 LINE",
"570.2 841.18 LINE",
"582.62 910.75 LINE",
"561.62 910.75 LINE",
"550.87 850.25 LINE",
"509.62 815.12 LINE",
"397.37 815.12 LINE",
"368.37 850.25 LINE",
"379.12 910.75 LINE",
"358.12 910.75 LINE",
"346.58 845.44 LINE",
"389.24 794.25 LINE"
);
},
{
closed = 1;
nodes = (
"482.39 931.75 LINE",
"604.12 1070.25 LINE",
"568.35 1070.25 LINE",
"459.1 931.75 LINE"
);
}
);
width = 627;
}
);
leftKerningGroup = A;
note = uni1EAE;
rightKerningGroup = A;
unicode = 1EAE;
},
{
glyphname = uni1EB6;
lastChange = "2019-09-04 12:21:52 +0000";
layers = (
{
hints = (
{
horizontal = 1;
place = "{216.75, 22}";
type = Stem;
},
{
horizontal = 1;
place = "{715, 22}";
type = Stem;
},
{
horizontal = 1;
place = "{794.25, 20.87}";
type = Stem;
},
{
place = "{20, 586.75}";
type = Stem;
}
);
layerId = "456D8B29-1305-406A-A7FA-547C067BBBCD";
paths = (
{
closed = 1;
nodes = (
"43.3 0 LINE",
"160.95 216.75 LINE",
"545.05 216.75 LINE",
"586.1 0 LINE",
"606.75 0 LINE",
"468 737 LINE",
"419.5 737 LINE",
"20 0 LINE"
);
},
{
closed = 1;
nodes = (
"299.81 -160.63 LINE",
"318.06 -57.25 LINE",
"296.06 -57.25 LINE",
"277.81 -160.63 LINE"
);
},
{
closed = 1;
nodes = (
"431.4 715 LINE",
"450.7 715 LINE",
"540.89 238.75 LINE",
"172.89 238.75 LINE"
);
},
{
closed = 1;
nodes = (
"515.06 794.25 LINE",
"570.2 841.18 LINE",
"582.62 910.75 LINE",
"561.62 910.75 LINE",
"550.87 850.25 LINE",
"509.62 815.12 LINE",
"397.37 815.12 LINE",
"368.37 850.25 LINE",
"379.12 910.75 LINE",
"358.12 910.75 LINE",
"346.57 845.44 LINE",
"389.24 794.25 LINE"
);
}
);
width = 627;
}
);
leftKerningGroup = A;
note = uni1EB6;
rightKerningGroup = A;
unicode = 1EB6;
},
{
glyphname = uni1EB0;
lastChange = "2019-09-04 12:21:52 +0000";
layers = (
{
hints = (
{
horizontal = 1;
place = "{216.75, 22}";
type = Stem;
},
{
horizontal = 1;
place = "{715, 22}";
type = Stem;
},
{
horizontal = 1;
place = "{794.25, 20.87}";
type = Stem;
},
{
horizontal = 1;
place = "{931.73, 138.5}";
type = Stem;
},
{
place = "{20, 586.75}";
type = Stem;
}
);
layerId = "456D8B29-1305-406A-A7FA-547C067BBBCD";
paths = (
{
closed = 1;
nodes = (
"43.3 0 LINE",
"160.95 216.75 LINE",
"545.05 216.75 LINE",
"586.1 0 LINE",
"606.75 0 LINE",
"468 737 LINE",
"419.5 737 LINE",
"20 0 LINE"
);
},
{
closed = 1;
nodes = (
"431.4 715 LINE",
"450.7 715 LINE",
"540.89 238.75 LINE",
"172.89 238.75 LINE"
);
},
{
closed = 1;
nodes = (
"515.06 794.25 LINE",
"570.2 841.18 LINE",
"582.62 910.75 LINE",
"561.62 910.75 LINE",
"550.87 850.25 LINE",
"509.62 815.12 LINE",
"397.37 815.12 LINE",
"368.37 850.25 LINE",
"379.12 910.75 LINE",
"358.12 910.75 LINE",
"346.57 845.44 LINE",
"389.24 794.25 LINE"
);
},
{
closed = 1;
nodes = (
"472.02 931.73 LINE",
"411.69 1070.23 LINE",
"380.11 1070.23 LINE",
"451.77 931.73 LINE"
);
}
);
width = 627;
}
);
leftKerningGroup = A;
note = uni1EB0;
rightKerningGroup = A;
unicode = 1EB0;
},
{
glyphname = uni1EB2;
lastChange = "2019-09-04 12:21:52 +0000";
layers = (
{
hints = (
{
horizontal = 1;
place = "{216.75, 22}";
type = Stem;
},
{
horizontal = 1;
place = "{715, 22}";
type = Stem;
},
{
horizontal = 1;
place = "{794.25, 20.87}";
type = Stem;
},
{
horizontal = 1;
place = "{1098.5, 21.62}";
type = Stem;
},
{
place = "{463.62, 20.48}";
type = Stem;
}
);
layerId = "456D8B29-1305-406A-A7FA-547C067BBBCD";
paths = (
{
closed = 1;
nodes = (
"43.3 -0.01 LINE",
"160.95 216.74 LINE",
"545.05 216.74 LINE",
"586.1 -0.01 LINE",
"606.75 -0.01 LINE",
"468 736.99 LINE",
"419.5 736.99 LINE",
"20 -0.01 LINE"
);
},
{
closed = 1;
nodes = (
"431.4 714.99 LINE",
"450.7 714.99 LINE",
"540.89 238.74 LINE",
"172.89 238.74 LINE"
);
},
{
closed = 1;
nodes = (
"515.06 794.24 LINE",
"570.2 841.17 LINE",
"582.62 910.74 LINE",
"561.62 910.74 LINE",
"550.87 850.24 LINE",
"509.62 815.11 LINE",
"397.37 815.11 LINE",
"368.37 850.24 LINE",
"379.12 910.74 LINE",
"358.12 910.74 LINE",
"346.57 845.43 LINE",
"389.24 794.24 LINE"
);
},
{
closed = 1;
nodes = (
"481.74 931.75 LINE",
"486.47 957.8 LINE",
"565.64 1023.92 LINE",
"576.23 1083.92 LINE",
"548.08 1120.11 LINE",
"474.2 1120.11 LINE",
"431.06 1081.04 LINE",
"445.37 1065.11 LINE",
"482.49 1098.5 LINE",
"537.74 1098.5 LINE",
"553.74 1077.87 LINE",
"546.12 1034.87 LINE",
"466.87 968.5 LINE",
"460.37 931.75 LINE"
);
}
);
width = 627;
}
);
leftKerningGroup = A;
note = uni1EB2;
rightKerningGroup = A;
unicode = 1EB2;
},
{
glyphname = uni1EB4;
lastChange = "2019-09-04 12:21:52 +0000";
layers = (
{
hints = (
{
horizontal = 1;
place = "{216.75, 22}";
type = Stem;
},
{
horizontal = 1;
place = "{715, 22}";
type = Stem;
},
{
horizontal = 1;
place = "{794.25, 20.87}";
type = Stem;
},
{
horizontal = 1;
place = "{931.75, 20.87}";
type = Stem;
},
{
horizontal = 1;
place = "{1008.75, 20.87}";
type = Stem;
},
{
place = "{20, 606.74}";
type = Stem;
}
);
layerId = "456D8B29-1305-406A-A7FA-547C067BBBCD";
paths = (
{
closed = 1;
nodes = (
"43.3 0 LINE",
"160.95 216.75 LINE",
"545.05 216.75 LINE",
"586.1 0 LINE",
"606.75 0 LINE",
"468 737 LINE",
"419.5 737 LINE",
"20 0 LINE"
);
},
{
closed = 1;
nodes = (
"431.4 715 LINE",
"450.7 715 LINE",
"540.89 238.75 LINE",
"172.89 238.75 LINE"
);
},
{
closed = 1;
nodes = (
"515.06 794.25 LINE",
"570.2 841.18 LINE",
"582.62 910.75 LINE",
"561.62 910.75 LINE",
"550.87 850.25 LINE",
"509.62 815.12 LINE",
"397.37 815.12 LINE",
"368.37 850.25 LINE",
"379.12 910.75 LINE",
"358.12 910.75 LINE",
"346.57 845.44 LINE",
"389.24 794.25 LINE"
);
},
{
closed = 1;
nodes = (
"337.7 931.75 LINE",
"348.2 972.37 LINE",
"394.2 1008.75 LINE",
"444.33 1008.75 LINE",
"507.33 931.75 LINE",
"562.65 931.75 LINE",
"617.16 979.63 LINE",
"626.74 1029.62 LINE",
"611.2 1029.62 LINE",
"600.83 988.87 LINE",
"554.83 952.62 LINE",
"517.34 952.62 LINE",
"454.23 1029.62 LINE",
"386.35 1029.62 LINE",
"331.7 981.25 LINE",
"322.01 931.75 LINE"
);
}
);
width = 627;
}
);
leftKerningGroup = A;
note = uni1EB4;
rightKerningGroup = A;
unicode = 1EB4;
},
{
glyphname = Acircumflex;
lastChange = "2019-09-04 12:21:52 +0000";
layers = (
{
hints = (
{
horizontal = 1;
place = "{216.75, 22}";
type = Stem;
},
{
horizontal = 1;
place = "{715, 22}";
type = Stem;
},
{
horizontal = 1;
place = "{911.87, 19.88}";
type = Stem;
},
{
place = "{20, 586.75}";
type = Stem;
}
);
layerId = "456D8B29-1305-406A-A7FA-547C067BBBCD";
paths = (
{
closed = 1;
nodes = (
"43.3 0 LINE",
"160.95 216.75 LINE",
"545.05 216.75 LINE",
"586.1 0 LINE",
"606.75 0 LINE",
"468 737 LINE",
"419.5 737 LINE",
"20 0 LINE"
);
},
{
closed = 1;
nodes = (
"431.4 715 LINE",
"450.7 715 LINE",
"540.89 238.75 LINE",
"172.89 238.75 LINE"
);
},
{
closed = 1;
nodes = (
"346.12 794.25 LINE",
"463.75 911.87 LINE",
"481.25 911.87 LINE",
"557.37 794.25 LINE",
"578.47 794.25 LINE",
"496.72 931.75 LINE",
"449.58 931.75 LINE",
"322.3 794.25 LINE"
);
}
);
width = 627;
}
);
leftKerningGroup = A;
note = Acircumflex;
rightKerningGroup = A;
unicode = 00C2;
},
{
glyphname = uni1EA4;
lastChange = "2019-09-04 12:21:52 +0000";
layers = (
{
hints = (
{
horizontal = 1;
place = "{216.75, 22}";
type = Stem;
},
{
horizontal = 1;
place = "{715, 22}";
type = Stem;
},
{
horizontal = 1;
place = "{911.87, 19.88}";
type = Stem;
},
{
place = "{20, 708.18}";
type = Stem;
}
);
layerId = "456D8B29-1305-406A-A7FA-547C067BBBCD";
paths = (
{
closed = 1;
nodes = (
"43.3 0 LINE",
"160.95 216.75 LINE",
"545.05 216.75 LINE",
"586.1 0 LINE",
"606.75 0 LINE",
"468 737 LINE",
"419.5 737 LINE",
"20 0 LINE"
);
},
{
closed = 1;
nodes = (
"431.4 715 LINE",
"450.7 715 LINE",
"540.89 238.75 LINE",
"172.89 238.75 LINE"
);
},
{
closed = 1;
nodes = (
"346.12 794.25 LINE",
"463.75 911.87 LINE",
"481.25 911.87 LINE",
"557.37 794.25 LINE",
"578.47 794.25 LINE",
"496.72 931.75 LINE",
"449.58 931.75 LINE",
"322.3 794.25 LINE"
);
},
{
closed = 1;
nodes = (
"606.45 859.72 LINE",
"728.18 998.22 LINE",
"692.4 998.22 LINE",
"583.15 859.72 LINE"
);
}
);
width = 627;
}
);
leftKerningGroup = A;
note = uni1EA4;
rightKerningGroup = A;
unicode = 1EA4;
},
{
glyphname = uni1EAC;
lastChange = "2019-09-04 12:21:52 +0000";
layers = (
{
hints = (
{
horizontal = 1;
place = "{216.75, 22}";
type = Stem;
},
{
horizontal = 1;
place = "{715, 22}";
type = Stem;
},
{
horizontal = 1;
place = "{911.87, 19.88}";
type = Stem;
},
{
place = "{20, 586.75}";
type = Stem;
}
);
layerId = "456D8B29-1305-406A-A7FA-547C067BBBCD";
paths = (
{
closed = 1;
nodes = (
"43.3 0 LINE",
"160.95 216.75 LINE",
"545.05 216.75 LINE",
"586.1 0 LINE",
"606.75 0 LINE",
"468 737 LINE",
"419.5 737 LINE",
"20 0 LINE"
);
},
{
closed = 1;
nodes = (
"299.81 -160.63 LINE",
"318.06 -57.25 LINE",
"296.06 -57.25 LINE",
"277.81 -160.63 LINE"
);
},
{
closed = 1;
nodes = (
"431.4 715 LINE",
"450.7 715 LINE",
"540.89 238.75 LINE",
"172.89 238.75 LINE"
);
},
{
closed = 1;
nodes = (
"346.12 794.25 LINE",
"463.75 911.87 LINE",
"481.25 911.87 LINE",
"557.37 794.25 LINE",
"578.47 794.25 LINE",
"496.72 931.75 LINE",
"449.58 931.75 LINE",
"322.3 794.25 LINE"
);
}
);
width = 627;
}
);
leftKerningGroup = A;
note = uni1EAC;
rightKerningGroup = A;
unicode = 1EAC;
},
{
glyphname = uni1EA6;
lastChange = "2019-09-04 12:21:52 +0000";
layers = (
{
hints = (
{
horizontal = 1;
place = "{216.75, 22}";
type = Stem;
},
{
horizontal = 1;
place = "{715, 22}";
type = Stem;
},
{
horizontal = 1;
place = "{859.7, 138.5}";
type = Stem;
},
{
place = "{20, 586.75}";
type = Stem;
},
{
horizontal = 1;
place = "{911.87, 19.88}";
type = Stem;
}
);
layerId = "456D8B29-1305-406A-A7FA-547C067BBBCD";
paths = (
{
closed = 1;
nodes = (
"43.3 0 LINE",
"160.95 216.75 LINE",
"545.05 216.75 LINE",
"586.1 0 LINE",
"606.75 0 LINE",
"468 737 LINE",
"419.5 737 LINE",
"20 0 LINE"
);
},
{
closed = 1;
nodes = (
"431.4 715 LINE",
"450.7 715 LINE",
"540.89 238.75 LINE",
"172.89 238.75 LINE"
);
},
{
closed = 1;
nodes = (
"333.62 859.7 LINE",
"273.29 998.2 LINE",
"241.72 998.2 LINE",
"313.37 859.7 LINE"
);
},
{
closed = 1;
nodes = (
"346.12 794.25 LINE",
"463.75 911.87 LINE",
"481.25 911.87 LINE",
"557.37 794.25 LINE",
"578.47 794.25 LINE",
"496.72 931.75 LINE",
"449.58 931.75 LINE",
"322.3 794.25 LINE"
);
}
);
width = 627;
}
);
leftKerningGroup = A;
note = uni1EA6;
rightKerningGroup = A;
unicode = 1EA6;
},
{
glyphname = uni1EA8;
lastChange = "2019-09-04 12:21:52 +0000";
layers = (
{
hints = (
{
horizontal = 1;
place = "{216.75, 22}";
type = Stem;
},
{
horizontal = 1;
place = "{715, 22}";
type = Stem;
},
{
horizontal = 1;
place = "{911.87, 19.88}";
type = Stem;
},
{
horizontal = 1;
place = "{1026.5, 21.62}";
type = Stem;
},
{
place = "{576.87, 20.49}";
type = Stem;
}
);
layerId = "456D8B29-1305-406A-A7FA-547C067BBBCD";
paths = (
{
closed = 1;
nodes = (
"43.3 -0.01 LINE",
"160.95 216.74 LINE",
"545.05 216.74 LINE",
"586.1 -0.01 LINE",
"606.75 -0.01 LINE",
"468 736.99 LINE",
"419.5 736.99 LINE",
"20 -0.01 LINE"
);
},
{
closed = 1;
nodes = (
"431.4 714.99 LINE",
"450.7 714.99 LINE",
"540.89 238.74 LINE",
"172.89 238.74 LINE"
);
},
{
closed = 1;
nodes = (
"346.12 794.24 LINE",
"463.75 911.86 LINE",
"481.25 911.86 LINE",
"557.37 794.24 LINE",
"578.47 794.24 LINE",
"496.72 931.74 LINE",
"449.58 931.74 LINE",
"322.3 794.24 LINE"
);
},
{
closed = 1;
nodes = (
"595 859.75 LINE",
"599.73 885.8 LINE",
"678.9 951.92 LINE",
"689.49 1011.92 LINE",
"661.34 1048.12 LINE",
"587.46 1048.12 LINE",
"544.32 1009.05 LINE",
"558.62 993.12 LINE",
"595.75 1026.5 LINE",
"651 1026.5 LINE",
"667 1005.87 LINE",
"659.37 962.87 LINE",
"580.12 896.5 LINE",
"573.62 859.75 LINE"
);
}
);
width = 627;
}
);
leftKerningGroup = A;
note = uni1EA8;
rightKerningGroup = A;
unicode = 1EA8;
},
{
glyphname = uni1EAA;
lastChange = "2019-09-04 12:21:52 +0000";
layers = (
{
hints = (
{
horizontal = 1;
place = "{216.75, 22}";
type = Stem;
},
{
horizontal = 1;
place = "{715, 22}";
type = Stem;
},
{
horizontal = 1;
place = "{952.87, 20.88}";
type = Stem;
},
{
horizontal = 1;
place = "{1029.87, 20.88}";
type = Stem;
},
{
place = "{20, 618.66}";
type = Stem;
},
{
horizontal = 1;
place = "{911.87, 19.88}";
type = Stem;
}
);
layerId = "456D8B29-1305-406A-A7FA-547C067BBBCD";
paths = (
{
closed = 1;
nodes = (
"43.3 0 LINE",
"160.95 216.75 LINE",
"545.05 216.75 LINE",
"586.1 0 LINE",
"606.75 0 LINE",
"468 737 LINE",
"419.5 737 LINE",
"20 0 LINE"
);
},
{
closed = 1;
nodes = (
"431.4 715 LINE",
"450.7 715 LINE",
"540.89 238.75 LINE",
"172.89 238.75 LINE"
);
},
{
closed = 1;
nodes = (
"346.12 794.25 LINE",
"463.75 911.87 LINE",
"481.25 911.87 LINE",
"557.37 794.25 LINE",
"578.47 794.25 LINE",
"496.72 931.75 LINE",
"449.58 931.75 LINE",
"322.3 794.25 LINE"
);
},
{
closed = 1;
nodes = (
"349.62 952.87 LINE",
"360.12 993.5 LINE",
"406.12 1029.87 LINE",
"456.25 1029.87 LINE",
"519.25 952.87 LINE",
"574.57 952.87 LINE",
"629.08 1000.75 LINE",
"638.66 1050.75 LINE",
"623.12 1050.75 LINE",
"612.75 1010 LINE",
"566.75 973.75 LINE",
"529.26 973.75 LINE",
"466.15 1050.75 LINE",
"398.28 1050.75 LINE",
"343.62 1002.37 LINE",
"333.93 952.87 LINE"
);
}
);
width = 627;
}
);
leftKerningGroup = A;
note = uni1EAA;
rightKerningGroup = A;
unicode = 1EAA;
},
{
glyphname = uni0200;
lastChange = "2019-09-04 12:21:52 +0000";
layers = (
{
hints = (
{
horizontal = 1;
place = "{216.75, 22}";
type = Stem;
},
{
horizontal = 1;
place = "{715, 22}";
type = Stem;
},
{
horizontal = 1;
place = "{794.25, 138.5}";
type = Stem;
},
{
place = "{20, 586.75}";
type = Stem;
}
);
layerId = "456D8B29-1305-406A-A7FA-547C067BBBCD";
paths = (
{
closed = 1;
nodes = (
"43.3 0 LINE",
"160.95 216.75 LINE",
"545.05 216.75 LINE",
"586.1 0 LINE",
"606.75 0 LINE",
"468 737 LINE",
"419.5 737 LINE",
"20 0 LINE"
);
},
{
closed = 1;
nodes = (
"431.4 715 LINE",
"450.7 715 LINE",
"540.89 238.75 LINE",
"172.89 238.75 LINE"
);
},
{
closed = 1;
nodes = (
"394.08 794.25 LINE",
"333.75 932.75 LINE",
"302.17 932.75 LINE",
"373.83 794.25 LINE"
);
},
{
closed = 1;
nodes = (
"504.08 794.25 LINE",
"443.75 932.75 LINE",
"412.17 932.75 LINE",
"483.83 794.25 LINE"
);
}
);
width = 627;
}
);
leftKerningGroup = A;
note = uni0200;
rightKerningGroup = A;
unicode = 0200;
},
{
glyphname = Adieresis;
lastChange = "2019-09-04 12:21:52 +0000";
layers = (
{
hints = (
{
horizontal = 1;
place = "{216.75, 22}";
type = Stem;
},
{
horizontal = 1;
place = "{715, 22}";
type = Stem;
},
{
horizontal = 1;
place = "{794.25, 103.5}";
type = Stem;
},
{
place = "{20, 594.12}";
type = Stem;
}
);
layerId = "456D8B29-1305-406A-A7FA-547C067BBBCD";
paths = (
{
closed = 1;
nodes = (
"43.3 0 LINE",
"160.95 216.75 LINE",
"545.05 216.75 LINE",
"586.1 0 LINE",
"606.75 0 LINE",
"468 737 LINE",
"419.5 737 LINE",
"20 0 LINE"
);
},
{
closed = 1;
nodes = (
"431.4 715 LINE",
"450.7 715 LINE",
"540.89 238.75 LINE",
"172.89 238.75 LINE"
);
},
{
closed = 1;
nodes = (
"329.62 794.25 LINE",
"347.87 897.75 LINE",
"325.87 897.75 LINE",
"307.62 794.25 LINE"
);
},
{
closed = 1;
nodes = (
"595.87 794.25 LINE",
"614.12 897.75 LINE",
"592.12 897.75 LINE",
"573.87 794.25 LINE"
);
}
);
width = 627;
}
);
leftKerningGroup = A;
note = Adieresis;
rightKerningGroup = A;
unicode = 00C4;
},
{
glyphname = uni1EA0;
lastChange = "2019-09-04 12:21:52 +0000";
layers = (
{
hints = (
{
horizontal = 1;
place = "{216.75, 22}";
type = Stem;
},
{
horizontal = 1;
place = "{715, 22}";
type = Stem;
},
{
place = "{20, 586.75}";
type = Stem;
}
);
layerId = "456D8B29-1305-406A-A7FA-547C067BBBCD";
paths = (
{
closed = 1;
nodes = (
"43.3 0 LINE",
"160.95 216.75 LINE",
"545.05 216.75 LINE",
"586.1 0 LINE",
"606.75 0 LINE",
"468 737 LINE",
"419.5 737 LINE",
"20 0 LINE"
);
},
{
closed = 1;
nodes = (
"299.81 -160.63 LINE",
"318.06 -57.25 LINE",
"296.06 -57.25 LINE",
"277.81 -160.63 LINE"
);
},
{
closed = 1;
nodes = (
"431.4 715 LINE",
"450.7 715 LINE",
"540.89 238.75 LINE",
"172.89 238.75 LINE"
);
}
);
width = 627;
}
);
leftKerningGroup = A;
note = uni1EA0;
rightKerningGroup = A;
unicode = 1EA0;
},
{
glyphname = Agrave;
lastChange = "2019-09-04 12:21:52 +0000";
layers = (
{
hints = (
{
horizontal = 1;
place = "{216.75, 22}";
type = Stem;
},
{
horizontal = 1;
place = "{715, 22}";
type = Stem;
},
{
horizontal = 1;
place = "{794.25, 138.5}";
type = Stem;
},
{
place = "{20, 586.75}";
type = Stem;
}
);
layerId = "456D8B29-1305-406A-A7FA-547C067BBBCD";
paths = (
{
closed = 1;
nodes = (
"43.3 0 LINE",
"160.95 216.75 LINE",
"545.05 216.75 LINE",
"586.1 0 LINE",
"606.75 0 LINE",
"468 737 LINE",
"419.5 737 LINE",
"20 0 LINE"
);
},
{
closed = 1;
nodes = (
"431.4 715 LINE",
"450.7 715 LINE",
"540.89 238.75 LINE",
"172.89 238.75 LINE"
);
},
{
closed = 1;
nodes = (
"449.1 794.25 LINE",
"388.77 932.75 LINE",
"357.2 932.75 LINE",
"428.85 794.25 LINE"
);
}
);
width = 627;
}
);
leftKerningGroup = A;
note = Agrave;
rightKerningGroup = A;
unicode = 00C0;
},
{
glyphname = uni1EA2;
lastChange = "2019-09-04 12:21:52 +0000";
layers = (
{
hints = (
{
horizontal = 1;
place = "{216.75, 22}";
type = Stem;
},
{
horizontal = 1;
place = "{715, 22}";
type = Stem;
},
{
horizontal = 1;
place = "{961, 21.62}";
type = Stem;
},
{
place = "{443.87, 20.49}";
type = Stem;
}
);
layerId = "456D8B29-1305-406A-A7FA-547C067BBBCD";
paths = (
{
closed = 1;
nodes = (
"43.3 -0.01 LINE",
"160.95 216.74 LINE",
"545.05 216.74 LINE",
"586.1 -0.01 LINE",
"606.75 -0.01 LINE",
"468 736.99 LINE",
"419.5 736.99 LINE",
"20 -0.01 LINE"
);
},
{
closed = 1;
nodes = (
"431.4 714.99 LINE",
"450.7 714.99 LINE",
"540.89 238.74 LINE",
"172.89 238.74 LINE"
);
},
{
closed = 1;
nodes = (
"462 794.25 LINE",
"466.73 820.3 LINE",
"545.9 886.42 LINE",
"556.49 946.42 LINE",
"528.34 982.61 LINE",
"454.46 982.61 LINE",
"411.32 943.54 LINE",
"425.62 927.61 LINE",
"462.75 961 LINE",
"518 961 LINE",
"534 940.37 LINE",
"526.37 897.37 LINE",
"447.12 831 LINE",
"440.62 794.25 LINE"
);
}
);
width = 627;
}
);
leftKerningGroup = A;
note = uni1EA2;
rightKerningGroup = A;
unicode = 1EA2;
},
{
glyphname = uni0202;
lastChange = "2019-09-04 12:21:52 +0000";
layers = (
{
hints = (
{
horizontal = 1;
place = "{216.75, 22}";
type = Stem;
},
{
horizontal = 1;
place = "{715, 22}";
type = Stem;
},
{
horizontal = 1;
place = "{889.87, 20.88}";
type = Stem;
},
{
place = "{20, 586.75}";
type = Stem;
}
);
layerId = "456D8B29-1305-406A-A7FA-547C067BBBCD";
paths = (
{
closed = 1;
nodes = (
"43.3 0 LINE",
"160.95 216.75 LINE",
"545.05 216.75 LINE",
"586.1 0 LINE",
"606.75 0 LINE",
"468 737 LINE",
"419.5 737 LINE",
"20 0 LINE"
);
},
{
closed = 1;
nodes = (
"431.4 715 LINE",
"450.7 715 LINE",
"540.89 238.75 LINE",
"172.89 238.75 LINE"
);
},
{
closed = 1;
nodes = (
"362.5 794.25 LINE",
"373.25 854.75 LINE",
"414.5 889.87 LINE",
"526.75 889.87 LINE",
"555.75 854.75 LINE",
"545 794.25 LINE",
"566 794.25 LINE",
"577.56 858.99 LINE",
"534.66 910.75 LINE",
"409.04 910.75 LINE",
"353.83 863.7 LINE",
"341.5 794.25 LINE"
);
}
);
width = 627;
}
);
leftKerningGroup = A;
note = uni0202;
rightKerningGroup = A;
unicode = 0202;
},
{
glyphname = Amacron;
lastChange = "2019-09-04 12:21:52 +0000";
layers = (
{
hints = (
{
horizontal = 1;
place = "{216.75, 22}";
type = Stem;
},
{
horizontal = 1;
place = "{715, 22}";
type = Stem;
},
{
horizontal = 1;
place = "{794.25, 20.87}";
type = Stem;
},
{
place = "{20, 586.75}";
type = Stem;
}
);
layerId = "456D8B29-1305-406A-A7FA-547C067BBBCD";
paths = (
{
closed = 1;
nodes = (
"43.3 0 LINE",
"160.95 216.75 LINE",
"545.05 216.75 LINE",
"586.1 0 LINE",
"606.75 0 LINE",
"468 737 LINE",
"419.5 737 LINE",
"20 0 LINE"
);
},
{
closed = 1;
nodes = (
"431.4 715 LINE",
"450.7 715 LINE",
"540.89 238.75 LINE",
"172.89 238.75 LINE"
);
},
{
closed = 1;
nodes = (
"597.87 794.25 LINE",
"601.62 815.12 LINE",
"313.37 815.12 LINE",
"309.62 794.25 LINE"
);
}
);
width = 627;
}
);
leftKerningGroup = A;
note = Amacron;
rightKerningGroup = A;
unicode = 0100;
},
{
glyphname = Aogonek;
lastChange = "2019-09-04 12:25:18 +0000";
layers = (
{
hints = (
{
horizontal = 1;
place = "{-138.63, 22}";
type = Stem;
},
{
horizontal = 1;
place = "{216.75, 22}";
type = Stem;
},
{
horizontal = 1;
place = "{715, 22}";
type = Stem;
},
{
place = "{521.47, 21.29}";
type = Stem;
}
);
layerId = "456D8B29-1305-406A-A7FA-547C067BBBCD";
paths = (
{
closed = 1;
nodes = (
"583.93 -138.63 LINE",
"587.81 -116.63 LINE",
"569.18 -116.63 LINE",
"540.15 -81.38 LINE",
"545.38 -51.96 LINE",
"608.81 -10.56 LINE",
"468 737 LINE",
"419.5 737 LINE",
"20 0 LINE",
"43.3 0 LINE",
"160.95 216.75 LINE",
"545.05 216.75 LINE",
"586.1 0 LINE",
"525.51 -39.63 LINE",
"517.44 -85.5 LINE",
"561.05 -138.63 LINE"
);
},
{
closed = 1;
nodes = (
"431.4 715 LINE",
"450.7 715 LINE",
"540.89 238.75 LINE",
"172.89 238.75 LINE"
);
}
);
width = 625;
}
);
leftKerningGroup = A;
note = Aogonek;
rightKerningGroup = A;
unicode = 0104;
},
{
glyphname = Aring;
lastChange = "2019-09-04 12:21:52 +0000";
layers = (
{
hints = (
{
horizontal = 1;
place = "{216.75, 22}";
type = Stem;
},
{
horizontal = 1;
place = "{715, 22}";
type = Stem;
},
{
horizontal = 1;
place = "{794.25, 20.87}";
type = Stem;
},
{
horizontal = 1;
place = "{940.5, 20.87}";
type = Stem;
},
{
place = "{20, 586.75}";
type = Stem;
}
);
layerId = "456D8B29-1305-406A-A7FA-547C067BBBCD";
paths = (
{
closed = 1;
nodes = (
"43.3 0 LINE",
"160.95 216.75 LINE",
"545.05 216.75 LINE",
"586.1 0 LINE",
"606.75 0 LINE",
"468 737 LINE",
"419.5 737 LINE",
"20 0 LINE"
);
},
{
closed = 1;
nodes = (
"431.4 715 LINE",
"450.7 715 LINE",
"540.89 238.75 LINE",
"172.89 238.75 LINE"
);
},
{
closed = 1;
nodes = (
"488.5 794.25 LINE",
"543.69 841.32 LINE",
"555.72 909.58 LINE",
"513.31 961.37 LINE",
"444.45 961.37 LINE",
"389.31 914.35 LINE",
"377.3 846.25 LINE",
"419.97 794.25 LINE"
);
},
{
closed = 1;
nodes = (
"398.87 850.25 LINE",
"408.62 905.25 LINE",
"450.12 940.5 LINE",
"505.12 940.5 LINE",
"534.12 905.25 LINE",
"524.37 850.25 LINE",
"483 815.12 LINE",
"428 815.12 LINE"
);
}
);
width = 627;
}
);
leftKerningGroup = A;
note = Aring;
rightKerningGroup = A;
unicode = 00C5;
},
{
glyphname = Aringacute;
lastChange = "2019-09-04 12:21:52 +0000";
layers = (
{
hints = (
{
horizontal = 1;
place = "{216.75, 22}";
type = Stem;
},
{
horizontal = 1;
place = "{715, 22}";
type = Stem;
},
{
horizontal = 1;
place = "{794.25, 20.87}";
type = Stem;
},
{
horizontal = 1;
place = "{940.5, 20.87}";
type = Stem;
},
{
place = "{20, 597.74}";
type = Stem;
}
);
layerId = "456D8B29-1305-406A-A7FA-547C067BBBCD";
paths = (
{
closed = 1;
nodes = (
"43.3 0 LINE",
"160.95 216.75 LINE",
"545.05 216.75 LINE",
"586.1 0 LINE",
"606.75 0 LINE",
"468 737 LINE",
"419.5 737 LINE",
"20 0 LINE"
);
},
{
closed = 1;
nodes = (
"431.4 715 LINE",
"450.7 715 LINE",
"540.89 238.75 LINE",
"172.89 238.75 LINE"
);
},
{
closed = 1;
nodes = (
"488.5 794.25 LINE",
"543.69 841.32 LINE",
"555.72 909.58 LINE",
"513.31 961.37 LINE",
"444.45 961.37 LINE",
"389.31 914.35 LINE",
"377.3 846.25 LINE",
"419.97 794.25 LINE"
);
},
{
closed = 1;
nodes = (
"398.87 850.25 LINE",
"408.62 905.25 LINE",
"450.12 940.5 LINE",
"505.12 940.5 LINE",
"534.12 905.25 LINE",
"524.37 850.25 LINE",
"483 815.12 LINE",
"428 815.12 LINE"
);
},
{
closed = 1;
nodes = (
"496.02 982.37 LINE",
"617.74 1120.87 LINE",
"581.97 1120.87 LINE",
"472.72 982.37 LINE"
);
}
);
width = 627;
}
);
leftKerningGroup = A;
note = Aringacute;
rightKerningGroup = A;
unicode = 01FA;
},
{
glyphname = Atilde;
lastChange = "2019-09-04 12:21:52 +0000";
layers = (
{
hints = (
{
horizontal = 1;
place = "{216.75, 22}";
type = Stem;
},
{
horizontal = 1;
place = "{715, 22}";
type = Stem;
},
{
horizontal = 1;
place = "{794.25, 20.87}";
type = Stem;
},
{
horizontal = 1;
place = "{871.25, 20.87}";
type = Stem;
},
{
place = "{20, 596.16}";
type = Stem;
}
);
layerId = "456D8B29-1305-406A-A7FA-547C067BBBCD";
paths = (
{
closed = 1;
nodes = (
"43.3 0 LINE",
"160.95 216.75 LINE",
"545.05 216.75 LINE",
"586.1 0 LINE",
"606.75 0 LINE",
"468 737 LINE",
"419.5 737 LINE",
"20 0 LINE"
);
},
{
closed = 1;
nodes = (
"431.4 715 LINE",
"450.7 715 LINE",
"540.89 238.75 LINE",
"172.89 238.75 LINE"
);
},
{
closed = 1;
nodes = (
"327.12 794.25 LINE",
"337.62 834.87 LINE",
"383.62 871.25 LINE",
"433.75 871.25 LINE",
"496.75 794.25 LINE",
"552.07 794.25 LINE",
"606.58 842.13 LINE",
"616.16 892.12 LINE",
"600.62 892.12 LINE",
"590.25 851.37 LINE",
"544.25 815.12 LINE",
"506.76 815.12 LINE",
"443.65 892.12 LINE",
"375.78 892.12 LINE",
"321.12 843.75 LINE",
"311.43 794.25 LINE"
);
}
);
width = 627;
}
);
leftKerningGroup = A;
note = Atilde;
rightKerningGroup = A;
unicode = 00C3;
},
{
glyphname = AE;
lastChange = "2019-09-04 12:21:52 +0000";
layers = (
{
hints = (
{
horizontal = 1;
place = "{0, 22}";
type = Stem;
},
{
horizontal = 1;
place = "{216.75, 22}";
type = Stem;
},
{
horizontal = 1;
place = "{379.5, 22}";
type = Stem;
},
{
horizontal = 1;
place = "{715, 22}";
type = Stem;
},
{
place = "{20, 987.87}";
type = Stem;
}
);
layerId = "456D8B29-1305-406A-A7FA-547C067BBBCD";
paths = (
{
closed = 1;
nodes = (
"43.3 0 LINE",
"160.95 216.75 LINE",
"545.05 216.75 LINE",
"586.1 0 LINE",
"877.87 0 LINE",
"881.75 22 LINE",
"602.61 22 LINE",
"535.3 379.5 LINE",
"885.37 379.5 LINE",
"889.25 401.5 LINE",
"531.16 401.5 LINE",
"472.14 715 LINE",
"1004 715 LINE",
"1007.87 737 LINE",
"419.5 737 LINE",
"20 0 LINE"
);
},
{
closed = 1;
nodes = (
"431.4 715 LINE",
"450.7 715 LINE",
"540.89 238.75 LINE",
"172.89 238.75 LINE"
);
}
);
width = 933;
}
);
leftKerningGroup = A;
note = AE;
rightKerningGroup = AE;
unicode = 00C6;
},
{
glyphname = AEacute;
lastChange = "2019-09-04 12:21:52 +0000";
layers = (
{
hints = (
{
horizontal = 1;
place = "{0, 22}";
type = Stem;
},
{
horizontal = 1;
place = "{216.75, 22}";
type = Stem;
},
{
horizontal = 1;
place = "{379.5, 22}";
type = Stem;
},
{
horizontal = 1;
place = "{715, 22}";
type = Stem;
},
{
place = "{20, 987.87}";
type = Stem;
}
);
layerId = "456D8B29-1305-406A-A7FA-547C067BBBCD";
paths = (
{
closed = 1;
nodes = (
"43.3 0 LINE",
"160.95 216.75 LINE",
"545.05 216.75 LINE",
"586.1 0 LINE",
"877.87 0 LINE",
"881.75 22 LINE",
"602.61 22 LINE",
"535.3 379.5 LINE",
"885.37 379.5 LINE",
"889.25 401.5 LINE",
"531.16 401.5 LINE",
"472.14 715 LINE",
"1004 715 LINE",
"1007.87 737 LINE",
"419.5 737 LINE",
"20 0 LINE"
);
},
{
closed = 1;
nodes = (
"431.4 715 LINE",
"450.7 715 LINE",
"540.89 238.75 LINE",
"172.89 238.75 LINE"
);
},
{
closed = 1;
nodes = (
"466.54 794.25 LINE",
"588.27 932.75 LINE",
"552.5 932.75 LINE",
"443.25 794.25 LINE"
);
}
);
width = 933;
}
);
leftKerningGroup = A;
note = AEacute;
rightKerningGroup = AE;
unicode = 01FC;
},
{
glyphname = B;
lastChange = "2019-09-04 12:21:52 +0000";
layers = (
{
hints = (
{
horizontal = 1;
place = "{0, 22}";
type = Stem;
},
{
horizontal = 1;
place = "{379.5, 22}";
type = Stem;
},
{
horizontal = 1;
place = "{715, 22}";
type = Stem;
},
{
place = "{100, 543.36}";
type = Stem;
}
);
layerId = "456D8B29-1305-406A-A7FA-547C067BBBCD";
paths = (
{
closed = 1;
nodes = (
"489.84 0 LINE",
"594.28 89.68 LINE",
"630.25 293.75 LINE",
"554.37 393.75 LINE",
"613.37 471.87 LINE",
"643.36 642.28 LINE",
"566.5 737 LINE",
"229.95 737 LINE",
"100 0 LINE"
);
},
{
closed = 1;
nodes = (
"189.13 379.5 LINE",
"537.25 379.5 LINE",
"607.25 287.87 LINE",
"574 99 LINE",
"484.5 22 LINE",
"126.1 22 LINE"
);
},
{
closed = 1;
nodes = (
"248.29 715 LINE",
"558.37 715 LINE",
"620.62 638 LINE",
"591.75 474.25 LINE",
"536.87 401.5 LINE",
"193.01 401.5 LINE"
);
}
);
width = 654;
}
);
leftKerningGroup = B;
note = B;
rightKerningGroup = B;
unicode = 0042;
},
{
glyphname = C;
lastChange = "2019-09-04 12:21:52 +0000";
layers = (
{
hints = (
{
horizontal = 1;
place = "{0, 22}";
type = Stem;
},
{
horizontal = 1;
place = "{715, 22}";
type = Stem;
},
{
place = "{102.45, 591.65}";
type = Stem;
}
);
layerId = "456D8B29-1305-406A-A7FA-547C067BBBCD";
paths = (
{
closed = 1;
nodes = (
"488.71 0 LINE",
"612.78 106.47 LINE",
"600.12 122.12 LINE",
"483.37 22 LINE",
"187.5 22 LINE",
"125.25 99 LINE",
"220.25 638 LINE",
"309.75 715 LINE",
"600.12 715 LINE",
"678.75 618.25 LINE",
"694.1 631.21 LINE",
"608.25 737 LINE",
"304.39 737 LINE",
"199.99 647.34 LINE",
"102.45 94.95 LINE",
"179.42 0 LINE"
);
}
);
width = 642;
}
);
note = C;
rightKerningGroup = C;
unicode = 0043;
},
{
glyphname = Cacute;
lastChange = "2019-09-04 12:21:52 +0000";
layers = (
{
hints = (
{
horizontal = 1;
place = "{0, 22}";
type = Stem;
},
{
horizontal = 1;
place = "{715, 22}";
type = Stem;
},
{
place = "{102.45, 591.65}";
type = Stem;
}
);
layerId = "456D8B29-1305-406A-A7FA-547C067BBBCD";
paths = (
{
closed = 1;
nodes = (
"488.71 0 LINE",
"612.78 106.47 LINE",
"600.12 122.12 LINE",
"483.37 22 LINE",
"187.5 22 LINE",
"125.25 99 LINE",
"220.25 638 LINE",
"309.75 715 LINE",
"600.12 715 LINE",
"678.75 618.25 LINE",
"694.1 631.21 LINE",
"608.25 737 LINE",
"304.39 737 LINE",
"199.99 647.34 LINE",
"102.45 94.95 LINE",
"179.42 0 LINE"
);
},
{
closed = 1;
nodes = (
"479.29 794.25 LINE",
"601.02 932.75 LINE",
"565.25 932.75 LINE",
"456 794.25 LINE"
);
}
);
width = 642;
}
);
note = Cacute;
rightKerningGroup = C;
unicode = 0106;
},
{
glyphname = Ccaron;
lastChange = "2019-09-04 12:21:52 +0000";
layers = (
{
hints = (
{
horizontal = 1;
place = "{0, 22}";
type = Stem;
},
{
horizontal = 1;
place = "{715, 22}";
type = Stem;
},
{
horizontal = 1;
place = "{794.24, 19.88}";
type = Stem;
},
{
place = "{102.45, 591.65}";
type = Stem;
}
);
layerId = "456D8B29-1305-406A-A7FA-547C067BBBCD";
paths = (
{
closed = 1;
nodes = (
"488.71 0 LINE",
"612.78 106.47 LINE",
"600.12 122.12 LINE",
"483.37 22 LINE",
"187.5 22 LINE",
"125.25 99 LINE",
"220.25 638 LINE",
"309.75 715 LINE",
"600.12 715 LINE",
"678.75 618.25 LINE",
"694.1 631.21 LINE",
"608.25 737 LINE",
"304.39 737 LINE",
"199.99 647.34 LINE",
"102.45 94.95 LINE",
"179.42 0 LINE"
);
},
{
closed = 1;
nodes = (
"486.69 794.24 LINE",
"613.97 931.74 LINE",
"590.14 931.74 LINE",
"472.52 814.12 LINE",
"455.02 814.12 LINE",
"378.89 931.74 LINE",
"357.8 931.74 LINE",
"439.55 794.24 LINE"
);
}
);
width = 642;
}
);
note = Ccaron;
rightKerningGroup = C;
unicode = 010C;
},
{
glyphname = Ccedilla;
lastChange = "2019-09-04 12:21:52 +0000";
layers = (
{
hints = (
{
horizontal = 1;
place = "{0, 22}";
type = Stem;
},
{
horizontal = 1;
place = "{715, 22}";
type = Stem;
},
{
place = "{102.45, 591.65}";
type = Stem;
}
);
layerId = "456D8B29-1305-406A-A7FA-547C067BBBCD";
paths = (
{
closed = 1;
nodes = (
"289.1 -132 LINE",
"350.92 0 LINE",
"488.71 0 LINE",
"612.78 106.47 LINE",
"600.12 122.12 LINE",
"483.37 22 LINE",
"187.5 22 LINE",
"125.25 99 LINE",
"220.25 638 LINE",
"309.75 715 LINE",
"600.12 715 LINE",
"678.75 618.25 LINE",
"694.1 631.21 LINE",
"608.25 737 LINE",
"304.39 737 LINE",
"199.99 647.34 LINE",
"102.45 94.95 LINE",
"179.42 0 LINE",
"326.37 0 LINE",
"265.75 -132 LINE"
);
}
);
width = 642;
}
);
note = Ccedilla;
rightKerningGroup = C;
unicode = 00C7;
},
{
glyphname = Ccircumflex;
lastChange = "2019-09-04 12:21:52 +0000";
layers = (
{
hints = (
{
horizontal = 1;
place = "{0, 22}";
type = Stem;
},
{
horizontal = 1;
place = "{715, 22}";
type = Stem;
},
{
horizontal = 1;
place = "{911.87, 19.88}";
type = Stem;
},
{
place = "{102.45, 591.65}";
type = Stem;
}
);
layerId = "456D8B29-1305-406A-A7FA-547C067BBBCD";
paths = (
{
closed = 1;
nodes = (
"488.71 0 LINE",
"612.78 106.47 LINE",
"600.12 122.12 LINE",
"483.37 22 LINE",
"187.5 22 LINE",
"125.25 99 LINE",
"220.25 638 LINE",
"309.75 715 LINE",
"600.12 715 LINE",
"678.75 618.25 LINE",
"694.1 631.21 LINE",
"608.25 737 LINE",
"304.39 737 LINE",
"199.99 647.34 LINE",
"102.45 94.95 LINE",
"179.42 0 LINE"
);
},
{
closed = 1;
nodes = (
"358.87 794.25 LINE",
"476.5 911.87 LINE",
"494 911.87 LINE",
"570.12 794.25 LINE",
"591.22 794.25 LINE",
"509.47 931.75 LINE",
"462.33 931.75 LINE",
"335.05 794.25 LINE"
);
}
);
width = 642;
}
);
note = Ccircumflex;
rightKerningGroup = C;
unicode = 0108;
},
{
glyphname = Cdotaccent;
lastChange = "2019-09-04 12:21:52 +0000";
layers = (
{
hints = (
{
horizontal = 1;
place = "{0, 22}";
type = Stem;
},
{
horizontal = 1;
place = "{715, 22}";
type = Stem;
},
{
horizontal = 1;
place = "{794.25, 103.37}";
type = Stem;
},
{
place = "{102.45, 591.65}";
type = Stem;
}
);
layerId = "456D8B29-1305-406A-A7FA-547C067BBBCD";
paths = (
{
closed = 1;
nodes = (
"488.71 0 LINE",
"612.78 106.47 LINE",
"600.12 122.12 LINE",
"483.37 22 LINE",
"187.5 22 LINE",
"125.25 99 LINE",
"220.25 638 LINE",
"309.75 715 LINE",
"600.12 715 LINE",
"678.75 618.25 LINE",
"694.1 631.21 LINE",
"608.25 737 LINE",
"304.39 737 LINE",
"199.99 647.34 LINE",
"102.45 94.95 LINE",
"179.42 0 LINE"
);
},
{
closed = 1;
nodes = (
"477.5 794.25 LINE",
"495.75 897.62 LINE",
"473.75 897.62 LINE",
"455.5 794.25 LINE"
);
}
);
width = 642;
}
);
note = Cdotaccent;
rightKerningGroup = C;
unicode = 010A;
},
{
glyphname = D;
lastChange = "2019-09-04 12:21:52 +0000";
layers = (
{
hints = (
{
horizontal = 1;
place = "{0, 22}";
type = Stem;
},
{
horizontal = 1;
place = "{715, 22}";
type = Stem;
},
{
place = "{100, 602.76}";
type = Stem;
}
);
layerId = "456D8B29-1305-406A-A7FA-547C067BBBCD";
paths = (
{
closed = 1;
nodes = (
"454.73 0 LINE",
"627.41 152.14 LINE",
"702.76 580.46 LINE",
"579.57 737 LINE",
"229.95 737 LINE",
"100 0 LINE"
);
},
{
closed = 1;
nodes = (
"248.29 715 LINE",
"571.25 715 LINE",
"680.12 575.87 LINE",
"607 161.25 LINE",
"449.12 22 LINE",
"126.1 22 LINE"
);
}
);
width = 676;
}
);
leftKerningGroup = B;
note = D;
rightKerningGroup = D;
unicode = 0044;
},
{
glyphname = uni01C4;
lastChange = "2019-09-04 12:21:52 +0000";
layers = (
{
hints = (
{
horizontal = 1;
place = "{0, 22}";
type = Stem;
},
{
horizontal = 1;
place = "{715, 22}";
type = Stem;
},
{
horizontal = 1;
place = "{794.24, 19.88}";
type = Stem;
},
{
place = "{100, 1296.62}";
type = Stem;
}
);
layerId = "456D8B29-1305-406A-A7FA-547C067BBBCD";
paths = (
{
closed = 1;
nodes = (
"454.73 0 LINE",
"627.41 152.14 LINE",
"702.76 580.46 LINE",
"579.57 737 LINE",
"229.95 737 LINE",
"100 0 LINE"
);
},
{
closed = 1;
nodes = (
"248.29 715 LINE",
"571.25 715 LINE",
"680.12 575.87 LINE",
"607 161.25 LINE",
"449.12 22 LINE",
"126.1 22 LINE"
);
},
{
closed = 1;
nodes = (
"1281 0 LINE",
"1284.87 22 LINE",
"823.87 22 LINE",
"827.37 41.75 LINE",
"1387.54 687.53 LINE",
"1396.62 737 LINE",
"946.75 737 LINE",
"942.87 715 LINE",
"1370.75 715 LINE",
"1367.25 695.25 LINE",
"806.68 49.45 LINE",
"798 0 LINE"
);
},
{
closed = 1;
nodes = (
"1200.19 794.24 LINE",
"1327.47 931.74 LINE",
"1303.64 931.74 LINE",
"1186.02 814.12 LINE",
"1168.52 814.12 LINE",
"1092.39 931.74 LINE",
"1071.3 931.74 LINE",
"1153.05 794.24 LINE"
);
}
);
width = 1376;
}
);
note = uni01C4;
unicode = 01C4;
},
{
glyphname = Eth;
lastChange = "2019-09-04 12:21:52 +0000";
layers = (
{
hints = (
{
horizontal = 1;
place = "{0, 22}";
type = Stem;
},
{
horizontal = 1;
place = "{363, 22}";
type = Stem;
},
{
horizontal = 1;
place = "{715, 22}";
type = Stem;
},
{
place = "{82.75, 620.01}";
type = Stem;
}
);
layerId = "456D8B29-1305-406A-A7FA-547C067BBBCD";
paths = (
{
closed = 1;
nodes = (
"454.73 0 LINE",
"627.41 152.14 LINE",
"702.76 580.46 LINE",
"579.57 737 LINE",
"229.95 737 LINE",
"167.88 385 LINE",
"86.62 385 LINE",
"82.75 363 LINE",
"164 363 LINE",
"100 0 LINE"
);
},
{
closed = 1;
nodes = (
"186.22 363 LINE",
"356.75 363 LINE",
"360.62 385 LINE",
"190.1 385 LINE",
"248.29 715 LINE",
"571.25 715 LINE",
"680.12 575.87 LINE",
"607 161.25 LINE",
"449.12 22 LINE",
"126.1 22 LINE"
);
}
);
width = 676;
}
);
note = Eth;
rightKerningGroup = D;
unicode = 00D0;
},
{
glyphname = Dcaron;
lastChange = "2019-09-04 12:21:52 +0000";
layers = (
{
hints = (
{
horizontal = 1;
place = "{0, 22}";
type = Stem;
},
{
horizontal = 1;
place = "{715, 22}";
type = Stem;
},
{
horizontal = 1;
place = "{794.24, 19.88}";
type = Stem;
},
{
place = "{100, 602.76}";
type = Stem;
}
);
layerId = "456D8B29-1305-406A-A7FA-547C067BBBCD";
paths = (
{
closed = 1;
nodes = (
"454.73 0 LINE",
"627.41 152.14 LINE",
"702.76 580.46 LINE",
"579.57 737 LINE",
"229.95 737 LINE",
"100 0 LINE"
);
},
{
closed = 1;
nodes = (
"248.29 715 LINE",
"571.25 715 LINE",
"680.12 575.87 LINE",
"607 161.25 LINE",
"449.12 22 LINE",
"126.1 22 LINE"
);
},
{
closed = 1;
nodes = (
"467.44 794.24 LINE",
"594.72 931.74 LINE",
"570.89 931.74 LINE",
"453.27 814.12 LINE",
"435.77 814.12 LINE",
"359.64 931.74 LINE",
"338.55 931.74 LINE",
"420.3 794.24 LINE"
);
}
);
width = 676;
}
);
note = Dcaron;
rightKerningGroup = D;
unicode = 010E;
},
{
glyphname = Dcroat;
lastChange = "2019-09-04 12:21:52 +0000";
layers = (
{
hints = (
{
horizontal = 1;
place = "{0, 22}";
type = Stem;
},
{
horizontal = 1;
place = "{363, 22}";
type = Stem;
},
{
horizontal = 1;
place = "{715, 22}";
type = Stem;
},
{
place = "{82.75, 620.01}";
type = Stem;
}
);
layerId = "456D8B29-1305-406A-A7FA-547C067BBBCD";
paths = (
{
closed = 1;
nodes = (
"454.73 0 LINE",
"627.41 152.14 LINE",
"702.76 580.46 LINE",
"579.57 737 LINE",
"229.95 737 LINE",
"167.88 385 LINE",
"86.62 385 LINE",
"82.75 363 LINE",
"164 363 LINE",
"100 0 LINE"
);
},
{
closed = 1;
nodes = (
"186.22 363 LINE",
"356.75 363 LINE",
"360.62 385 LINE",
"190.1 385 LINE",
"248.29 715 LINE",
"571.25 715 LINE",
"680.12 575.87 LINE",
"607 161.25 LINE",
"449.12 22 LINE",
"126.1 22 LINE"
);
}
);
width = 676;
}
);
note = Dcroat;
rightKerningGroup = D;
unicode = 0110;
},
{
glyphname = uni01C5;
lastChange = "2019-09-04 12:21:52 +0000";
layers = (
{
hints = (
{
horizontal = 1;
place = "{0, 22}";
type = Stem;
},
{
horizontal = 1;
place = "{500.5, 22}";
type = Stem;
},
{
horizontal = 1;
place = "{579.74, 19.88}";
type = Stem;
},
{
horizontal = 1;
place = "{715, 22}";
type = Stem;
},
{
place = "{770.18, 23.44}";
type = Stem;
},
{
place = "{1204.5, 23.43}";
type = Stem;
}
);
layerId = "456D8B29-1305-406A-A7FA-547C067BBBCD";
paths = (
{
closed = 1;
nodes = (
"454.73 0 LINE",
"627.41 152.14 LINE",
"702.76 580.46 LINE",
"579.57 737 LINE",
"229.95 737 LINE",
"100 0 LINE"
);
},
{
closed = 1;
nodes = (
"248.29 715 LINE",
"571.25 715 LINE",
"680.12 575.87 LINE",
"607 161.25 LINE",
"449.12 22 LINE",
"126.1 22 LINE"
);
},
{
closed = 1;
nodes = (
"1152 0 LINE",
"1155.87 22 LINE",
"791.87 22 LINE",
"795.37 41.75 LINE",
"1223.75 475.25 LINE",
"1232.12 522.5 LINE",
"885.62 522.5 LINE",
"881.75 500.5 LINE",
"1206.25 500.5 LINE",
"1202.75 480.75 LINE",
"774.37 47.25 LINE",
"766 0 LINE"
);
},
{
closed = 1;
nodes = (
"1092.81 579.74 LINE",
"1220.09 717.24 LINE",
"1196.27 717.24 LINE",
"1078.64 599.62 LINE",
"1061.14 599.62 LINE",
"985.02 717.24 LINE",
"963.92 717.24 LINE",
"1045.67 579.74 LINE"
);
}
);
width = 1207;
}
);
note = uni01C5;
unicode = 01C5;
},
{
glyphname = E;
lastChange = "2019-09-04 12:21:52 +0000";
layers = (
{
hints = (
{
horizontal = 1;
place = "{0, 22}";
type = Stem;
},
{
horizontal = 1;
place = "{379.5, 22}";
type = Stem;
},
{
horizontal = 1;
place = "{715, 22}";
type = Stem;
},
{
place = "{100, 581}";
type = Stem;
}
);
layerId = "456D8B29-1305-406A-A7FA-547C067BBBCD";
paths = (
{
closed = 1;
nodes = (
"551 0 LINE",
"554.87 22 LINE",
"126.1 22 LINE",
"189.13 379.5 LINE",
"558.5 379.5 LINE",
"562.37 401.5 LINE",
"193.01 401.5 LINE",
"248.29 715 LINE",
"677.12 715 LINE",
"681 737 LINE",
"229.95 737 LINE",
"100 0 LINE"
);
}
);
width = 606;
}
);
note = E;
rightKerningGroup = AE;
unicode = 0045;
},
{
glyphname = Eacute;
lastChange = "2019-09-04 12:21:52 +0000";
layers = (
{
hints = (
{
horizontal = 1;
place = "{0, 22}";
type = Stem;
},
{
horizontal = 1;
place = "{379.5, 22}";
type = Stem;
},
{
horizontal = 1;
place = "{715, 22}";
type = Stem;
},
{
place = "{100, 581}";
type = Stem;
}
);
layerId = "456D8B29-1305-406A-A7FA-547C067BBBCD";
paths = (
{
closed = 1;
nodes = (
"551 0 LINE",
"554.87 22 LINE",
"126.1 22 LINE",
"189.13 379.5 LINE",
"558.5 379.5 LINE",
"562.37 401.5 LINE",
"193.01 401.5 LINE",
"248.29 715 LINE",
"677.12 715 LINE",
"681 737 LINE",
"229.95 737 LINE",
"100 0 LINE"
);
},
{
closed = 1;
nodes = (
"477.42 794.25 LINE",
"599.15 932.75 LINE",
"563.37 932.75 LINE",
"454.12 794.25 LINE"
);
}
);
width = 606;
}
);
note = Eacute;
rightKerningGroup = AE;
unicode = 00C9;
},
{
glyphname = Ebreve;
lastChange = "2019-09-04 12:21:52 +0000";
layers = (
{
hints = (
{
horizontal = 1;
place = "{0, 22}";
type = Stem;
},
{
horizontal = 1;
place = "{379.5, 22}";
type = Stem;
},
{
horizontal = 1;
place = "{715, 22}";
type = Stem;
},
{
horizontal = 1;
place = "{794.25, 20.87}";
type = Stem;
},
{
place = "{100, 581}";
type = Stem;
}
);
layerId = "456D8B29-1305-406A-A7FA-547C067BBBCD";
paths = (
{
closed = 1;
nodes = (
"551 0 LINE",
"554.87 22 LINE",
"126.1 22 LINE",
"189.13 379.5 LINE",
"558.5 379.5 LINE",
"562.37 401.5 LINE",
"193.01 401.5 LINE",
"248.29 715 LINE",
"677.12 715 LINE",
"681 737 LINE",
"229.95 737 LINE",
"100 0 LINE"
);
},
{
closed = 1;
nodes = (
"525.94 794.25 LINE",
"581.07 841.18 LINE",
"593.5 910.75 LINE",
"572.5 910.75 LINE",
"561.75 850.25 LINE",
"520.5 815.12 LINE",
"408.25 815.12 LINE",
"379.25 850.25 LINE",
"390 910.75 LINE",
"369 910.75 LINE",
"357.45 845.44 LINE",
"400.11 794.25 LINE"
);
}
);
width = 606;
}
);
note = Ebreve;
rightKerningGroup = AE;
unicode = 0114;
},
{
glyphname = Ecaron;
lastChange = "2019-09-04 12:21:52 +0000";
layers = (
{
hints = (
{
horizontal = 1;
place = "{0, 22}";
type = Stem;
},
{
horizontal = 1;
place = "{379.5, 22}";
type = Stem;
},
{
horizontal = 1;
place = "{715, 22}";
type = Stem;
},
{
horizontal = 1;
place = "{794.24, 19.88}";
type = Stem;
},
{
place = "{100, 581}";
type = Stem;
}
);
layerId = "456D8B29-1305-406A-A7FA-547C067BBBCD";
paths = (
{
closed = 1;
nodes = (
"551 0 LINE",
"554.87 22 LINE",
"126.1 22 LINE",
"189.13 379.5 LINE",
"558.5 379.5 LINE",
"562.37 401.5 LINE",
"193.01 401.5 LINE",
"248.29 715 LINE",
"677.12 715 LINE",
"681 737 LINE",
"229.95 737 LINE",
"100 0 LINE"
);
},
{
closed = 1;
nodes = (
"484.81 794.24 LINE",
"612.09 931.74 LINE",
"588.27 931.74 LINE",
"470.64 814.12 LINE",
"453.14 814.12 LINE",
"377.02 931.74 LINE",
"355.92 931.74 LINE",
"437.67 794.24 LINE"
);
}
);
width = 606;
}
);
note = Ecaron;
rightKerningGroup = AE;
unicode = 011A;
},
{
glyphname = Ecircumflex;
lastChange = "2019-09-04 12:21:52 +0000";
layers = (
{
hints = (
{
horizontal = 1;
place = "{0, 22}";
type = Stem;
},
{
horizontal = 1;
place = "{379.5, 22}";
type = Stem;
},
{
horizontal = 1;
place = "{715, 22}";
type = Stem;
},
{
horizontal = 1;
place = "{911.87, 19.88}";
type = Stem;
},
{
place = "{100, 581}";
type = Stem;
}
);
layerId = "456D8B29-1305-406A-A7FA-547C067BBBCD";
paths = (
{
closed = 1;
nodes = (
"551 0 LINE",
"554.87 22 LINE",
"126.1 22 LINE",
"189.13 379.5 LINE",
"558.5 379.5 LINE",
"562.37 401.5 LINE",
"193.01 401.5 LINE",
"248.29 715 LINE",
"677.12 715 LINE",
"681 737 LINE",
"229.95 737 LINE",
"100 0 LINE"
);
},
{
closed = 1;
nodes = (
"357 794.25 LINE",
"474.62 911.87 LINE",
"492.12 911.87 LINE",
"568.25 794.25 LINE",
"589.34 794.25 LINE",
"507.59 931.75 LINE",
"460.45 931.75 LINE",
"333.17 794.25 LINE"
);
}
);
width = 606;
}
);
note = Ecircumflex;
rightKerningGroup = AE;
unicode = 00CA;
},
{
glyphname = uni1EBE;
lastChange = "2019-09-04 12:21:52 +0000";
layers = (
{
hints = (
{
horizontal = 1;
place = "{0, 22}";
type = Stem;
},
{
horizontal = 1;
place = "{379.5, 22}";
type = Stem;
},
{
horizontal = 1;
place = "{715, 22}";
type = Stem;
},
{
horizontal = 1;
place = "{911.87, 19.88}";
type = Stem;
},
{
place = "{100, 639.05}";
type = Stem;
}
);
layerId = "456D8B29-1305-406A-A7FA-547C067BBBCD";
paths = (
{
closed = 1;
nodes = (
"551 0 LINE",
"554.87 22 LINE",
"126.1 22 LINE",
"189.13 379.5 LINE",
"558.5 379.5 LINE",
"562.37 401.5 LINE",
"193.01 401.5 LINE",
"248.29 715 LINE",
"677.12 715 LINE",
"681 737 LINE",
"229.95 737 LINE",
"100 0 LINE"
);
},
{
closed = 1;
nodes = (
"357 794.25 LINE",
"474.62 911.87 LINE",
"492.12 911.87 LINE",
"568.25 794.25 LINE",
"589.34 794.25 LINE",
"507.59 931.75 LINE",
"460.45 931.75 LINE",
"333.17 794.25 LINE"
);
},
{
closed = 1;
nodes = (
"617.32 859.72 LINE",
"739.05 998.22 LINE",
"703.28 998.22 LINE",
"594.03 859.72 LINE"
);
}
);
width = 606;
}
);
note = uni1EBE;
rightKerningGroup = AE;
unicode = 1EBE;
},
{
glyphname = uni1EC6;
lastChange = "2019-09-04 12:21:52 +0000";
layers = (
{
hints = (
{
horizontal = 1;
place = "{0, 22}";
type = Stem;
},
{
horizontal = 1;
place = "{379.5, 22}";
type = Stem;
},
{
horizontal = 1;
place = "{715, 22}";
type = Stem;
},
{
horizontal = 1;
place = "{911.87, 19.88}";
type = Stem;
},
{
place = "{100, 581}";
type = Stem;
}
);
layerId = "456D8B29-1305-406A-A7FA-547C067BBBCD";
paths = (
{
closed = 1;
nodes = (
"551 0 LINE",
"554.87 22 LINE",
"126.1 22 LINE",
"189.13 379.5 LINE",
"558.5 379.5 LINE",
"562.37 401.5 LINE",
"193.01 401.5 LINE",
"248.29 715 LINE",
"677.12 715 LINE",
"681 737 LINE",
"229.95 737 LINE",
"100 0 LINE"
);
},
{
closed = 1;
nodes = (
"300.19 -160.63 LINE",
"318.44 -57.25 LINE",
"296.44 -57.25 LINE",
"278.19 -160.63 LINE"
);
},
{
closed = 1;
nodes = (
"357 794.25 LINE",
"474.62 911.87 LINE",
"492.12 911.87 LINE",
"568.25 794.25 LINE",
"589.34 794.25 LINE",
"507.59 931.75 LINE",
"460.45 931.75 LINE",
"333.17 794.25 LINE"
);
}
);
width = 606;
}
);
note = uni1EC6;
rightKerningGroup = AE;
unicode = 1EC6;
},
{
glyphname = uni1EC0;
lastChange = "2019-09-04 12:21:52 +0000";
layers = (
{
hints = (
{
horizontal = 1;
place = "{0, 22}";
type = Stem;
},
{
horizontal = 1;
place = "{379.5, 22}";
type = Stem;
},
{
horizontal = 1;
place = "{715, 22}";
type = Stem;
},
{
horizontal = 1;
place = "{859.7, 138.5}";
type = Stem;
},
{
place = "{100, 581}";
type = Stem;
},
{
horizontal = 1;
place = "{911.87, 19.88}";
type = Stem;
}
);
layerId = "456D8B29-1305-406A-A7FA-547C067BBBCD";
paths = (
{
closed = 1;
nodes = (
"551 0 LINE",
"554.87 22 LINE",
"126.1 22 LINE",
"189.13 379.5 LINE",
"558.5 379.5 LINE",
"562.37 401.5 LINE",
"193.01 401.5 LINE",
"248.29 715 LINE",
"677.12 715 LINE",
"681 737 LINE",
"229.95 737 LINE",
"100 0 LINE"
);
},
{
closed = 1;
nodes = (
"344.5 859.7 LINE",
"284.17 998.2 LINE",
"252.59 998.2 LINE",
"324.25 859.7 LINE"
);
},
{
closed = 1;
nodes = (
"357 794.25 LINE",
"474.62 911.87 LINE",
"492.12 911.87 LINE",
"568.25 794.25 LINE",
"589.34 794.25 LINE",
"507.59 931.75 LINE",
"460.45 931.75 LINE",
"333.17 794.25 LINE"
);
}
);
width = 606;
}
);
leftKerningGroup = B;
note = uni1EC0;
rightKerningGroup = AE;
unicode = 1EC0;
},
{
glyphname = uni1EC2;
lastChange = "2019-09-04 12:21:52 +0000";
layers = (
{
hints = (
{
horizontal = 1;
place = "{0, 22}";
type = Stem;
},
{
horizontal = 1;
place = "{379.5, 22}";
type = Stem;
},
{
horizontal = 1;
place = "{715, 22}";
type = Stem;
},
{
horizontal = 1;
place = "{911.87, 19.88}";
type = Stem;
},
{
horizontal = 1;
place = "{1026.5, 21.62}";
type = Stem;
},
{
place = "{587.75, 20.48}";
type = Stem;
}
);
layerId = "456D8B29-1305-406A-A7FA-547C067BBBCD";
paths = (
{
closed = 1;
nodes = (
"551 -0.01 LINE",
"554.87 21.99 LINE",
"126.1 21.99 LINE",
"189.13 379.49 LINE",
"558.5 379.49 LINE",
"562.37 401.49 LINE",
"193.01 401.49 LINE",
"248.29 714.99 LINE",
"677.12 714.99 LINE",
"681 736.99 LINE",
"229.95 736.99 LINE",
"100 -0.01 LINE"
);
},
{
closed = 1;
nodes = (
"357 794.24 LINE",
"474.62 911.86 LINE",
"492.12 911.86 LINE",
"568.25 794.24 LINE",
"589.34 794.24 LINE",
"507.59 931.74 LINE",
"460.45 931.74 LINE",
"333.17 794.24 LINE"
);
},
{
closed = 1;
nodes = (
"605.87 859.75 LINE",
"610.6 885.8 LINE",
"689.77 951.92 LINE",
"700.36 1011.92 LINE",
"672.21 1048.12 LINE",
"598.34 1048.12 LINE",
"555.19 1009.05 LINE",
"569.5 993.12 LINE",
"606.62 1026.5 LINE",
"661.87 1026.5 LINE",
"677.87 1005.87 LINE",
"670.25 962.87 LINE",
"591 896.5 LINE",
"584.5 859.75 LINE"
);
}
);
width = 606;
}
);
note = uni1EC2;
rightKerningGroup = AE;
unicode = 1EC2;
},
{
glyphname = uni1EC4;
lastChange = "2019-09-04 12:21:52 +0000";
layers = (
{
hints = (
{
horizontal = 1;
place = "{0, 22}";
type = Stem;
},
{
horizontal = 1;
place = "{379.5, 22}";
type = Stem;
},
{
horizontal = 1;
place = "{715, 22}";
type = Stem;
},
{
horizontal = 1;
place = "{952.87, 20.88}";
type = Stem;
},
{
horizontal = 1;
place = "{1029.87, 20.88}";
type = Stem;
},
{
place = "{100, 581}";
type = Stem;
},
{
horizontal = 1;
place = "{911.87, 19.88}";
type = Stem;
}
);
layerId = "456D8B29-1305-406A-A7FA-547C067BBBCD";
paths = (
{
closed = 1;
nodes = (
"551 0 LINE",
"554.87 22 LINE",
"126.1 22 LINE",
"189.13 379.5 LINE",
"558.5 379.5 LINE",
"562.37 401.5 LINE",
"193.01 401.5 LINE",
"248.29 715 LINE",
"677.12 715 LINE",
"681 737 LINE",
"229.95 737 LINE",
"100 0 LINE"
);
},
{
closed = 1;
nodes = (
"357 794.25 LINE",
"474.62 911.87 LINE",
"492.12 911.87 LINE",
"568.25 794.25 LINE",
"589.34 794.25 LINE",
"507.59 931.75 LINE",
"460.45 931.75 LINE",
"333.17 794.25 LINE"
);
},
{
closed = 1;
nodes = (
"360.5 952.87 LINE",
"371 993.5 LINE",
"417 1029.87 LINE",
"467.13 1029.87 LINE",
"530.13 952.87 LINE",
"585.44 952.87 LINE",
"639.95 1000.75 LINE",
"649.54 1050.75 LINE",
"634 1050.75 LINE",
"623.62 1010 LINE",
"577.62 973.75 LINE",
"540.14 973.75 LINE",
"477.03 1050.75 LINE",
"409.15 1050.75 LINE",
"354.49 1002.37 LINE",
"344.81 952.87 LINE"
);
}
);
width = 606;
}
);
note = uni1EC4;
rightKerningGroup = AE;
unicode = 1EC4;
},
{
glyphname = uni0204;
lastChange = "2019-09-04 12:21:52 +0000";
layers = (
{
hints = (
{
horizontal = 1;
place = "{0, 22}";
type = Stem;
},
{
horizontal = 1;
place = "{379.5, 22}";
type = Stem;
},
{
horizontal = 1;
place = "{715, 22}";
type = Stem;
},
{
horizontal = 1;
place = "{794.25, 138.5}";
type = Stem;
},
{
place = "{100, 581}";
type = Stem;
}
);
layerId = "456D8B29-1305-406A-A7FA-547C067BBBCD";
paths = (
{
closed = 1;
nodes = (
"551 0 LINE",
"554.87 22 LINE",
"126.1 22 LINE",
"189.13 379.5 LINE",
"558.5 379.5 LINE",
"562.37 401.5 LINE",
"193.01 401.5 LINE",
"248.29 715 LINE",
"677.12 715 LINE",
"681 737 LINE",
"229.95 737 LINE",
"100 0 LINE"
);
},
{
closed = 1;
nodes = (
"404.95 794.25 LINE",
"344.62 932.75 LINE",
"313.05 932.75 LINE",
"384.7 794.25 LINE"
);
},
{
closed = 1;
nodes = (
"514.95 794.25 LINE",
"454.62 932.75 LINE",
"423.05 932.75 LINE",
"494.7 794.25 LINE"
);
}
);
width = 606;
}
);
leftKerningGroup = B;
note = uni0204;
rightKerningGroup = AE;
unicode = 0204;
},
{
glyphname = Edieresis;
lastChange = "2019-09-04 12:21:52 +0000";
layers = (
{
hints = (
{
horizontal = 1;
place = "{0, 22}";
type = Stem;
},
{
horizontal = 1;
place = "{379.5, 22}";
type = Stem;
},
{
horizontal = 1;
place = "{715, 22}";
type = Stem;
},
{
horizontal = 1;
place = "{794.25, 103.5}";
type = Stem;
},
{
place = "{100, 581}";
type = Stem;
}
);
layerId = "456D8B29-1305-406A-A7FA-547C067BBBCD";
paths = (
{
closed = 1;
nodes = (
"551 0 LINE",
"554.87 22 LINE",
"126.1 22 LINE",
"189.13 379.5 LINE",
"558.5 379.5 LINE",
"562.37 401.5 LINE",
"193.01 401.5 LINE",
"248.29 715 LINE",
"677.12 715 LINE",
"681 737 LINE",
"229.95 737 LINE",
"100 0 LINE"
);
},
{
closed = 1;
nodes = (
"340.5 794.25 LINE",
"358.75 897.75 LINE",
"336.75 897.75 LINE",
"318.5 794.25 LINE"
);
},
{
closed = 1;
nodes = (
"606.75 794.25 LINE",
"625 897.75 LINE",
"603 897.75 LINE",
"584.75 794.25 LINE"
);
}
);
width = 606;
}
);
note = Edieresis;
rightKerningGroup = AE;
unicode = 00CB;
},
{
glyphname = Edotaccent;
lastChange = "2019-09-04 12:21:52 +0000";
layers = (
{
hints = (
{
horizontal = 1;
place = "{0, 22}";
type = Stem;
},
{
horizontal = 1;
place = "{379.5, 22}";
type = Stem;
},
{
horizontal = 1;
place = "{715, 22}";
type = Stem;
},
{
horizontal = 1;
place = "{794.25, 103.37}";
type = Stem;
},
{
place = "{100, 581}";
type = Stem;
}
);
layerId = "456D8B29-1305-406A-A7FA-547C067BBBCD";
paths = (
{
closed = 1;
nodes = (
"551 0 LINE",
"554.87 22 LINE",
"126.1 22 LINE",
"189.13 379.5 LINE",
"558.5 379.5 LINE",
"562.37 401.5 LINE",
"193.01 401.5 LINE",
"248.29 715 LINE",
"677.12 715 LINE",
"681 737 LINE",
"229.95 737 LINE",
"100 0 LINE"
);
},
{
closed = 1;
nodes = (
"475.62 794.25 LINE",
"493.87 897.62 LINE",
"471.87 897.62 LINE",
"453.62 794.25 LINE"
);
}
);
width = 606;
}
);
note = Edotaccent;
rightKerningGroup = AE;
unicode = 0116;
},
{
glyphname = uni1EB8;
lastChange = "2019-09-04 12:21:52 +0000";
layers = (
{
hints = (
{
horizontal = 1;
place = "{0, 22}";
type = Stem;
},
{
horizontal = 1;
place = "{379.5, 22}";
type = Stem;
},
{
horizontal = 1;
place = "{715, 22}";
type = Stem;
},
{
place = "{100, 581}";
type = Stem;
}
);
layerId = "456D8B29-1305-406A-A7FA-547C067BBBCD";
paths = (
{
closed = 1;
nodes = (
"551 0 LINE",
"554.87 22 LINE",
"126.1 22 LINE",
"189.13 379.5 LINE",
"558.5 379.5 LINE",
"562.37 401.5 LINE",
"193.01 401.5 LINE",
"248.29 715 LINE",
"677.12 715 LINE",
"681 737 LINE",
"229.95 737 LINE",
"100 0 LINE"
);
},
{
closed = 1;
nodes = (
"300.19 -160.63 LINE",
"318.44 -57.25 LINE",
"296.44 -57.25 LINE",
"278.19 -160.63 LINE"
);
}
);
width = 606;
}
);
note = uni1EB8;
rightKerningGroup = AE;
unicode = 1EB8;
},
{
glyphname = Egrave;
lastChange = "2019-09-04 12:21:52 +0000";
layers = (
{
hints = (
{
horizontal = 1;
place = "{0, 22}";
type = Stem;
},
{
horizontal = 1;
place = "{379.5, 22}";
type = Stem;
},
{
horizontal = 1;
place = "{715, 22}";
type = Stem;
},
{
horizontal = 1;
place = "{794.25, 138.5}";
type = Stem;
},
{
place = "{100, 581}";
type = Stem;
}
);
layerId = "456D8B29-1305-406A-A7FA-547C067BBBCD";
paths = (
{
closed = 1;
nodes = (
"551 0 LINE",
"554.87 22 LINE",
"126.1 22 LINE",
"189.13 379.5 LINE",
"558.5 379.5 LINE",
"562.37 401.5 LINE",
"193.01 401.5 LINE",
"248.29 715 LINE",
"677.12 715 LINE",
"681 737 LINE",
"229.95 737 LINE",
"100 0 LINE"
);
},
{
closed = 1;
nodes = (
"459.97 794.25 LINE",
"399.65 932.75 LINE",
"368.07 932.75 LINE",
"439.73 794.25 LINE"
);
}
);
width = 606;
}
);
note = Egrave;
rightKerningGroup = AE;
unicode = 00C8;
},
{
glyphname = uni1EBA;
lastChange = "2019-09-04 12:21:52 +0000";
layers = (
{
hints = (
{
horizontal = 1;
place = "{0, 22}";
type = Stem;
},
{
horizontal = 1;
place = "{379.5, 22}";
type = Stem;
},
{
horizontal = 1;
place = "{715, 22}";
type = Stem;
},
{
horizontal = 1;
place = "{961, 21.62}";
type = Stem;
},
{
place = "{454.75, 20.48}";
type = Stem;
}
);
layerId = "456D8B29-1305-406A-A7FA-547C067BBBCD";
paths = (
{
closed = 1;
nodes = (
"551 -0.01 LINE",
"554.87 21.99 LINE",
"126.1 21.99 LINE",
"189.13 379.49 LINE",
"558.5 379.49 LINE",
"562.37 401.49 LINE",
"193.01 401.49 LINE",
"248.29 714.99 LINE",
"677.12 714.99 LINE",
"681 736.99 LINE",
"229.95 736.99 LINE",
"100 -0.01 LINE"
);
},
{
closed = 1;
nodes = (
"472.87 794.25 LINE",
"477.6 820.3 LINE",
"556.77 886.42 LINE",
"567.36 946.42 LINE",
"539.21 982.61 LINE",
"465.34 982.61 LINE",
"422.19 943.54 LINE",
"436.5 927.61 LINE",
"473.62 961 LINE",
"528.87 961 LINE",
"544.87 940.37 LINE",
"537.25 897.37 LINE",
"458 831 LINE",
"451.5 794.25 LINE"
);
}
);
width = 606;
}
);
note = uni1EBA;
rightKerningGroup = AE;
unicode = 1EBA;
},
{
glyphname = uni0206;
lastChange = "2019-09-04 12:21:52 +0000";
layers = (
{
hints = (
{
horizontal = 1;
place = "{0, 22}";
type = Stem;
},
{
horizontal = 1;
place = "{379.5, 22}";
type = Stem;
},
{
horizontal = 1;
place = "{715, 22}";
type = Stem;
},
{
horizontal = 1;
place = "{889.87, 20.88}";
type = Stem;
},
{
place = "{100, 581}";
type = Stem;
}
);
layerId = "456D8B29-1305-406A-A7FA-547C067BBBCD";
paths = (
{
closed = 1;
nodes = (
"551 0 LINE",
"554.87 22 LINE",
"126.1 22 LINE",
"189.13 379.5 LINE",
"558.5 379.5 LINE",
"562.37 401.5 LINE",
"193.01 401.5 LINE",
"248.29 715 LINE",
"677.12 715 LINE",
"681 737 LINE",
"229.95 737 LINE",
"100 0 LINE"
);
},
{
closed = 1;
nodes = (
"373.37 794.25 LINE",
"384.12 854.75 LINE",
"425.37 889.87 LINE",
"537.62 889.87 LINE",
"566.62 854.75 LINE",
"555.87 794.25 LINE",
"576.87 794.25 LINE",
"588.43 858.99 LINE",
"545.54 910.75 LINE",
"419.91 910.75 LINE",
"364.71 863.7 LINE",
"352.37 794.25 LINE"
);
}
);
width = 606;
}
);
note = uni0206;
rightKerningGroup = AE;
unicode = 0206;
},
{
glyphname = Emacron;
lastChange = "2019-09-04 12:21:52 +0000";
layers = (
{
hints = (
{
horizontal = 1;
place = "{0, 22}";
type = Stem;
},
{
horizontal = 1;
place = "{379.5, 22}";
type = Stem;
},
{
horizontal = 1;
place = "{715, 22}";
type = Stem;
},
{
horizontal = 1;
place = "{794.25, 20.87}";
type = Stem;
},
{
place = "{100, 581}";
type = Stem;
}
);
layerId = "456D8B29-1305-406A-A7FA-547C067BBBCD";
paths = (
{
closed = 1;
nodes = (
"551 0 LINE",
"554.87 22 LINE",
"126.1 22 LINE",
"189.13 379.5 LINE",
"558.5 379.5 LINE",
"562.37 401.5 LINE",
"193.01 401.5 LINE",
"248.29 715 LINE",
"677.12 715 LINE",
"681 737 LINE",
"229.95 737 LINE",
"100 0 LINE"
);
},
{
closed = 1;
nodes = (
"608.75 794.25 LINE",
"612.5 815.12 LINE",
"324.25 815.12 LINE",
"320.5 794.25 LINE"
);
}
);
width = 606;
}
);
note = Emacron;
rightKerningGroup = AE;
unicode = 0112;
},
{
glyphname = Eogonek;
lastChange = "2019-09-04 12:21:52 +0000";
layers = (
{
hints = (
{
horizontal = 1;
place = "{-138.63, 22}";
type = Stem;
},
{
horizontal = 1;
place = "{0, 22}";
type = Stem;
},
{
horizontal = 1;
place = "{379.5, 22}";
type = Stem;
},
{
horizontal = 1;
place = "{715, 22}";
type = Stem;
},
{
place = "{100, 581}";
type = Stem;
}
);
layerId = "456D8B29-1305-406A-A7FA-547C067BBBCD";
paths = (
{
closed = 1;
nodes = (
"526.5 -138.63 LINE",
"530.37 -116.63 LINE",
"508.37 -116.63 LINE",
"482.12 -84.75 LINE",
"489.62 -42.63 LINE",
"551 0 LINE",
"554.87 22 LINE",
"126.1 22 LINE",
"189.13 379.5 LINE",
"558.5 379.5 LINE",
"562.37 401.5 LINE",
"193.01 401.5 LINE",
"248.29 715 LINE",
"677.12 715 LINE",
"681 737 LINE",
"229.95 737 LINE",
"100 0 LINE",
"513.8 0 LINE",
"469.52 -30.65 LINE",
"459.41 -88.88 LINE",
"500.25 -138.63 LINE"
);
}
);
width = 606;
}
);
note = Eogonek;
rightKerningGroup = AE;
unicode = 0118;
},
{
glyphname = uni1EBC;
lastChange = "2019-09-04 12:21:52 +0000";
layers = (
{
hints = (
{
horizontal = 1;
place = "{0, 22}";
type = Stem;
},
{
horizontal = 1;
place = "{379.5, 22}";
type = Stem;
},
{
horizontal = 1;
place = "{715, 22}";
type = Stem;
},
{
horizontal = 1;
place = "{794.25, 20.87}";
type = Stem;
},
{
horizontal = 1;
place = "{871.25, 20.87}";
type = Stem;
},
{
place = "{100, 581}";
type = Stem;
}
);
layerId = "456D8B29-1305-406A-A7FA-547C067BBBCD";
paths = (
{
closed = 1;
nodes = (
"551 0 LINE",
"554.87 22 LINE",
"126.1 22 LINE",
"189.13 379.5 LINE",
"558.5 379.5 LINE",
"562.37 401.5 LINE",
"193.01 401.5 LINE",
"248.29 715 LINE",
"677.12 715 LINE",
"681 737 LINE",
"229.95 737 LINE",
"100 0 LINE"
);
},
{
closed = 1;
nodes = (
"338 794.25 LINE",
"348.5 834.87 LINE",
"394.5 871.25 LINE",
"444.63 871.25 LINE",
"507.63 794.25 LINE",
"562.94 794.25 LINE",
"617.45 842.13 LINE",
"627.04 892.12 LINE",
"611.5 892.12 LINE",
"601.12 851.37 LINE",
"555.12 815.12 LINE",
"517.64 815.12 LINE",
"454.53 892.12 LINE",
"386.65 892.12 LINE",
"331.99 843.75 LINE",
"322.31 794.25 LINE"
);
}
);
width = 606;
}
);
note = uni1EBC;
rightKerningGroup = AE;
unicode = 1EBC;
},
{
glyphname = F;
lastChange = "2019-09-04 12:21:52 +0000";
layers = (
{
hints = (
{
horizontal = 1;
place = "{363, 22}";
type = Stem;
},
{
horizontal = 1;
place = "{715, 22}";
type = Stem;
},
{
place = "{100, 570}";
type = Stem;
}
);
layerId = "456D8B29-1305-406A-A7FA-547C067BBBCD";
paths = (
{
closed = 1;
nodes = (
"122.22 0 LINE",
"186.22 363 LINE",
"551.25 363 LINE",
"555.12 385 LINE",
"190.1 385 LINE",
"248.29 715 LINE",
"666.12 715 LINE",
"670 737 LINE",
"229.95 737 LINE",
"100 0 LINE"
);
}
);
width = 565;
}
);
note = F;
rightKerningGroup = F;
unicode = 0046;
},
{
glyphname = G;
lastChange = "2019-09-04 12:21:52 +0000";
layers = (
{
hints = (
{
horizontal = 1;
place = "{0, 22}";
type = Stem;
},
{
horizontal = 1;
place = "{330, 22}";
type = Stem;
},
{
horizontal = 1;
place = "{715, 22}";
type = Stem;
},
{
place = "{102.45, 605.89}";
type = Stem;
}
);
layerId = "456D8B29-1305-406A-A7FA-547C067BBBCD";
paths = (
{
closed = 1;
nodes = (
"473.44 0 LINE",
"594.15 107.06 LINE",
"575.25 0 LINE",
"597.25 0 LINE",
"659.37 352 LINE",
"464.62 352 LINE",
"460.75 330 LINE",
"633.5 330 LINE",
"599.85 139.38 LINE",
"467.75 22 LINE",
"187.5 22 LINE",
"125.25 99 LINE",
"220.25 638 LINE",
"309.75 715 LINE",
"614.37 715 LINE",
"693 618.25 LINE",
"708.34 631.24 LINE",
"622.5 737 LINE",
"304.39 737 LINE",
"199.83 647.21 LINE",
"102.45 94.95 LINE",
"179.42 0 LINE"
);
}
);
width = 693;
}
);
note = G;
rightKerningGroup = G;
unicode = 0047;
},
{
glyphname = Gbreve;
lastChange = "2019-09-04 12:21:52 +0000";
layers = (
{
hints = (
{
horizontal = 1;
place = "{0, 22}";
type = Stem;
},
{
horizontal = 1;
place = "{330, 22}";
type = Stem;
},
{
horizontal = 1;
place = "{715, 22}";
type = Stem;
},
{
horizontal = 1;
place = "{794.25, 20.87}";
type = Stem;
},
{
place = "{102.45, 605.89}";
type = Stem;
}
);
layerId = "456D8B29-1305-406A-A7FA-547C067BBBCD";
paths = (
{
closed = 1;
nodes = (
"473.44 0 LINE",
"594.15 107.06 LINE",
"575.25 0 LINE",
"597.25 0 LINE",
"659.37 352 LINE",
"464.62 352 LINE",
"460.75 330 LINE",
"633.5 330 LINE",
"599.85 139.38 LINE",
"467.75 22 LINE",
"187.5 22 LINE",
"125.25 99 LINE",
"220.25 638 LINE",
"309.75 715 LINE",
"614.37 715 LINE",
"693 618.25 LINE",
"708.34 631.24 LINE",
"622.5 737 LINE",
"304.39 737 LINE",
"199.83 647.21 LINE",
"102.45 94.95 LINE",
"179.42 0 LINE"
);
},
{
closed = 1;
nodes = (
"538.31 794.25 LINE",
"593.45 841.18 LINE",
"605.87 910.75 LINE",
"584.87 910.75 LINE",
"574.12 850.25 LINE",
"532.87 815.12 LINE",
"420.62 815.12 LINE",
"391.62 850.25 LINE",
"402.37 910.75 LINE",
"381.37 910.75 LINE",
"369.82 845.44 LINE",
"412.49 794.25 LINE"
);
}
);
width = 693;
}
);
note = Gbreve;
rightKerningGroup = G;
unicode = 011E;
},
{
glyphname = Gcaron;
lastChange = "2019-09-04 12:21:52 +0000";
layers = (
{
hints = (
{
horizontal = 1;
place = "{0, 22}";
type = Stem;
},
{
horizontal = 1;
place = "{330, 22}";
type = Stem;
},
{
horizontal = 1;
place = "{715, 22}";
type = Stem;
},
{
horizontal = 1;
place = "{794.24, 19.88}";
type = Stem;
},
{
place = "{102.45, 605.89}";
type = Stem;
}
);
layerId = "456D8B29-1305-406A-A7FA-547C067BBBCD";
paths = (
{
closed = 1;
nodes = (
"473.44 0 LINE",
"594.15 107.06 LINE",
"575.25 0 LINE",
"597.25 0 LINE",
"659.37 352 LINE",
"464.62 352 LINE",
"460.75 330 LINE",
"633.5 330 LINE",
"599.85 139.38 LINE",
"467.75 22 LINE",
"187.5 22 LINE",
"125.25 99 LINE",
"220.25 638 LINE",
"309.75 715 LINE",
"614.37 715 LINE",
"693 618.25 LINE",
"708.34 631.24 LINE",
"622.5 737 LINE",
"304.39 737 LINE",
"199.83 647.21 LINE",
"102.45 94.95 LINE",
"179.42 0 LINE"
);
},
{
closed = 1;
nodes = (
"497.19 794.24 LINE",
"624.47 931.74 LINE",
"600.64 931.74 LINE",
"483.02 814.12 LINE",
"465.52 814.12 LINE",
"389.39 931.74 LINE",
"368.3 931.74 LINE",
"450.05 794.24 LINE"
);
}
);
width = 693;
}
);
note = Gcaron;
rightKerningGroup = G;
unicode = 01E6;
},
{
glyphname = Gcircumflex;
lastChange = "2019-09-04 12:21:52 +0000";
layers = (
{
hints = (
{
horizontal = 1;
place = "{0, 22}";
type = Stem;
},
{
horizontal = 1;
place = "{330, 22}";
type = Stem;
},
{
horizontal = 1;
place = "{715, 22}";
type = Stem;
},
{
horizontal = 1;
place = "{911.87, 19.88}";
type = Stem;
},
{
place = "{102.45, 605.89}";
type = Stem;
}
);
layerId = "456D8B29-1305-406A-A7FA-547C067BBBCD";
paths = (
{
closed = 1;
nodes = (
"473.44 0 LINE",
"594.15 107.06 LINE",
"575.25 0 LINE",
"597.25 0 LINE",
"659.37 352 LINE",
"464.62 352 LINE",
"460.75 330 LINE",
"633.5 330 LINE",
"599.85 139.38 LINE",
"467.75 22 LINE",
"187.5 22 LINE",
"125.25 99 LINE",
"220.25 638 LINE",
"309.75 715 LINE",
"614.37 715 LINE",
"693 618.25 LINE",
"708.34 631.24 LINE",
"622.5 737 LINE",
"304.39 737 LINE",
"199.83 647.21 LINE",
"102.45 94.95 LINE",
"179.42 0 LINE"
);
},
{
closed = 1;
nodes = (
"369.37 794.25 LINE",
"487 911.87 LINE",
"504.5 911.87 LINE",
"580.62 794.25 LINE",
"601.72 794.25 LINE",
"519.97 931.75 LINE",
"472.83 931.75 LINE",
"345.55 794.25 LINE"
);
}
);
width = 693;
}
);
note = Gcircumflex;
rightKerningGroup = G;
unicode = 011C;
},
{
glyphname = uni0122;
lastChange = "2019-09-04 12:21:52 +0000";
layers = (
{
hints = (
{
horizontal = 1;
place = "{0, 22}";
type = Stem;
},
{
horizontal = 1;
place = "{330, 22}";
type = Stem;
},
{
horizontal = 1;
place = "{715, 22}";
type = Stem;
},
{
place = "{102.45, 605.89}";
type = Stem;
}
);
layerId = "456D8B29-1305-406A-A7FA-547C067BBBCD";
paths = (
{
closed = 1;
nodes = (
"473.44 0 LINE",
"594.15 107.06 LINE",
"575.25 0 LINE",
"597.25 0 LINE",
"659.37 352 LINE",
"464.62 352 LINE",
"460.75 330 LINE",
"633.5 330 LINE",
"599.85 139.38 LINE",
"467.75 22 LINE",
"187.5 22 LINE",
"125.25 99 LINE",
"220.25 638 LINE",
"309.75 715 LINE",
"614.37 715 LINE",
"693 618.25 LINE",
"708.34 631.24 LINE",
"622.5 737 LINE",
"304.39 737 LINE",
"199.83 647.21 LINE",
"102.45 94.95 LINE",
"179.42 0 LINE"
);
},
{
closed = 1;
nodes = (
"261.81 -216.75 LINE",
"335.83 -57.25 LINE",
"307.87 -57.25 LINE",
"242.25 -216.75 LINE"
);
}
);
width = 693;
}
);
note = uni0122;
rightKerningGroup = G;
unicode = 0122;
},
{
glyphname = Gdotaccent;
lastChange = "2019-09-04 12:21:52 +0000";
layers = (
{
hints = (
{
horizontal = 1;
place = "{0, 22}";
type = Stem;
},
{
horizontal = 1;
place = "{330, 22}";
type = Stem;
},
{
horizontal = 1;
place = "{715, 22}";
type = Stem;
},
{
horizontal = 1;
place = "{794.25, 103.37}";
type = Stem;
},
{
place = "{102.45, 605.89}";
type = Stem;
}
);
layerId = "456D8B29-1305-406A-A7FA-547C067BBBCD";
paths = (
{
closed = 1;
nodes = (
"473.44 0 LINE",
"594.15 107.06 LINE",
"575.25 0 LINE",
"597.25 0 LINE",
"659.37 352 LINE",
"464.62 352 LINE",
"460.75 330 LINE",
"633.5 330 LINE",
"599.85 139.38 LINE",
"467.75 22 LINE",
"187.5 22 LINE",
"125.25 99 LINE",
"220.25 638 LINE",
"309.75 715 LINE",
"614.37 715 LINE",
"693 618.25 LINE",
"708.34 631.24 LINE",
"622.5 737 LINE",
"304.39 737 LINE",
"199.83 647.21 LINE",
"102.45 94.95 LINE",
"179.42 0 LINE"
);
},
{
closed = 1;
nodes = (
"488 794.25 LINE",
"506.25 897.62 LINE",
"484.25 897.62 LINE",
"466 794.25 LINE"
);
}
);
width = 693;
}
);
note = Gdotaccent;
rightKerningGroup = G;
unicode = 0120;
},
{
glyphname = H;
lastChange = "2019-09-04 12:21:52 +0000";
layers = (
{
hints = (
{
horizontal = 1;
place = "{379.5, 22}";
type = Stem;
},
{
place = "{100, 625.17}";
type = Stem;
}
);
layerId = "456D8B29-1305-406A-A7FA-547C067BBBCD";
paths = (
{
closed = 1;
nodes = (
"122.22 0 LINE",
"189.13 379.5 LINE",
"639.91 379.5 LINE",
"573 0 LINE",
"595.22 0 LINE",
"725.17 737 LINE",
"702.95 737 LINE",
"643.79 401.5 LINE",
"193.01 401.5 LINE",
"252.17 737 LINE",
"229.95 737 LINE",
"100 0 LINE"
);
}
);
width = 695;
}
);
leftKerningGroup = B;
note = H;
rightKerningGroup = H;
unicode = 0048;
},
{
glyphname = Hbar;
lastChange = "2019-09-04 12:21:52 +0000";
layers = (
{
hints = (
{
horizontal = 1;
place = "{379.5, 22}";
type = Stem;
},
{
horizontal = 1;
place = "{572, 22}";
type = Stem;
},
{
place = "{99.75, 677.62}";
type = Stem;
}
);
layerId = "456D8B29-1305-406A-A7FA-547C067BBBCD";
paths = (
{
closed = 1;
nodes = (
"121.97 0 LINE",
"188.88 379.5 LINE",
"639.66 379.5 LINE",
"572.75 0 LINE",
"594.97 0 LINE",
"695.83 572 LINE",
"773.5 572 LINE",
"777.37 594 LINE",
"699.71 594 LINE",
"724.92 737 LINE",
"702.7 737 LINE",
"677.49 594 LINE",
"226.71 594 LINE",
"251.92 737 LINE",
"229.7 737 LINE",
"204.49 594 LINE",
"126.75 594 LINE",
"122.87 572 LINE",
"200.61 572 LINE",
"99.75 0 LINE"
);
},
{
closed = 1;
nodes = (
"222.83 572 LINE",
"673.61 572 LINE",
"643.54 401.5 LINE",
"192.76 401.5 LINE"
);
}
);
width = 695;
}
);
note = Hbar;
unicode = 0126;
},
{
glyphname = Hcircumflex;
lastChange = "2019-09-04 12:21:52 +0000";
layers = (
{
hints = (
{
horizontal = 1;
place = "{379.5, 22}";
type = Stem;
},
{
horizontal = 1;
place = "{911.87, 19.88}";
type = Stem;
},
{
place = "{100, 625.17}";
type = Stem;
}
);
layerId = "456D8B29-1305-406A-A7FA-547C067BBBCD";
paths = (
{
closed = 1;
nodes = (
"122.22 0 LINE",
"189.13 379.5 LINE",
"639.91 379.5 LINE",
"573 0 LINE",
"595.22 0 LINE",
"725.17 737 LINE",
"702.95 737 LINE",
"643.79 401.5 LINE",
"193.01 401.5 LINE",
"252.17 737 LINE",
"229.95 737 LINE",
"100 0 LINE"
);
},
{
closed = 1;
nodes = (
"374.37 794.25 LINE",
"492 911.87 LINE",
"509.5 911.87 LINE",
"585.62 794.25 LINE",
"606.72 794.25 LINE",
"524.97 931.75 LINE",
"477.83 931.75 LINE",
"350.55 794.25 LINE"
);
}
);
width = 695;
}
);
leftKerningGroup = B;
note = Hcircumflex;
rightKerningGroup = H;
unicode = 0124;
},
{
glyphname = I;
lastChange = "2019-09-04 12:21:52 +0000";
layers = (
{
hints = (
{
horizontal = 1;
place = "{0, 22}";
type = Stem;
},
{
horizontal = 1;
place = "{715, 22}";
type = Stem;
},
{
place = "{65, 394}";
type = Stem;
}
);
layerId = "456D8B29-1305-406A-A7FA-547C067BBBCD";
paths = (
{
closed = 1;
nodes = (
"329 0 LINE",
"332.87 22 LINE",
"212.1 22 LINE",
"334.29 715 LINE",
"455.12 715 LINE",
"459 737 LINE",
"195 737 LINE",
"191.12 715 LINE",
"312.07 715 LINE",
"189.88 22 LINE",
"68.87 22 LINE",
"65 0 LINE"
);
}
);
width = 394;
}
);
leftKerningGroup = B;
note = I;
rightKerningGroup = H;
unicode = 0049;
},
{
glyphname = Iacute;
lastChange = "2019-09-04 12:21:52 +0000";
layers = (
{
hints = (
{
horizontal = 1;
place = "{0, 22}";
type = Stem;
},
{
horizontal = 1;
place = "{715, 22}";
type = Stem;
},
{
place = "{65, 406.52}";
type = Stem;
}
);
layerId = "456D8B29-1305-406A-A7FA-547C067BBBCD";
paths = (
{
closed = 1;
nodes = (
"329 0 LINE",
"332.87 22 LINE",
"212.1 22 LINE",
"334.29 715 LINE",
"455.12 715 LINE",
"459 737 LINE",
"195 737 LINE",
"191.12 715 LINE",
"312.07 715 LINE",
"189.88 22 LINE",
"68.87 22 LINE",
"65 0 LINE"
);
},
{
closed = 1;
nodes = (
"349.79 794.25 LINE",
"471.52 932.75 LINE",
"435.75 932.75 LINE",
"326.5 794.25 LINE"
);
}
);
width = 394;
}
);
leftKerningGroup = B;
note = Iacute;
rightKerningGroup = H;
unicode = 00CD;
},
{
glyphname = Ibreve;
lastChange = "2019-09-04 12:21:52 +0000";
layers = (
{
hints = (
{
horizontal = 1;
place = "{0, 22}";
type = Stem;
},
{
horizontal = 1;
place = "{715, 22}";
type = Stem;
},
{
horizontal = 1;
place = "{794.25, 20.87}";
type = Stem;
},
{
place = "{65, 400.87}";
type = Stem;
}
);
layerId = "456D8B29-1305-406A-A7FA-547C067BBBCD";
paths = (
{
closed = 1;
nodes = (
"329 0 LINE",
"332.87 22 LINE",
"212.1 22 LINE",
"334.29 715 LINE",
"455.12 715 LINE",
"459 737 LINE",
"195 737 LINE",
"191.12 715 LINE",
"312.07 715 LINE",
"189.88 22 LINE",
"68.87 22 LINE",
"65 0 LINE"
);
},
{
closed = 1;
nodes = (
"398.31 794.25 LINE",
"453.45 841.18 LINE",
"465.87 910.75 LINE",
"444.87 910.75 LINE",
"434.12 850.25 LINE",
"392.87 815.12 LINE",
"280.62 815.12 LINE",
"251.62 850.25 LINE",
"262.37 910.75 LINE",
"241.37 910.75 LINE",
"229.82 845.44 LINE",
"272.49 794.25 LINE"
);
}
);
width = 394;
}
);
leftKerningGroup = B;
note = Ibreve;
rightKerningGroup = H;
unicode = 012C;
},
{
glyphname = Icircumflex;
lastChange = "2019-09-04 12:21:52 +0000";
layers = (
{
hints = (
{
horizontal = 1;
place = "{0, 22}";
type = Stem;
},
{
horizontal = 1;
place = "{715, 22}";
type = Stem;
},
{
horizontal = 1;
place = "{911.87, 19.88}";
type = Stem;
},
{
place = "{65, 396.72}";
type = Stem;
}
);
layerId = "456D8B29-1305-406A-A7FA-547C067BBBCD";
paths = (
{
closed = 1;
nodes = (
"329 0 LINE",
"332.87 22 LINE",
"212.1 22 LINE",
"334.29 715 LINE",
"455.12 715 LINE",
"459 737 LINE",
"195 737 LINE",
"191.12 715 LINE",
"312.07 715 LINE",
"189.88 22 LINE",
"68.87 22 LINE",
"65 0 LINE"
);
},
{
closed = 1;
nodes = (
"229.37 794.25 LINE",
"347 911.87 LINE",
"364.5 911.87 LINE",
"440.62 794.25 LINE",
"461.72 794.25 LINE",
"379.97 931.75 LINE",
"332.83 931.75 LINE",
"205.55 794.25 LINE"
);
}
);
width = 394;
}
);
leftKerningGroup = B;
note = Icircumflex;
rightKerningGroup = H;
unicode = 00CE;
},
{
glyphname = uni0208;
lastChange = "2019-09-04 12:21:52 +0000";
layers = (
{
hints = (
{
horizontal = 1;
place = "{0, 22}";
type = Stem;
},
{
horizontal = 1;
place = "{715, 22}";
type = Stem;
},
{
horizontal = 1;
place = "{794.25, 138.5}";
type = Stem;
},
{
place = "{65, 394}";
type = Stem;
}
);
layerId = "456D8B29-1305-406A-A7FA-547C067BBBCD";
paths = (
{
closed = 1;
nodes = (
"329 0 LINE",
"332.87 22 LINE",
"212.1 22 LINE",
"334.29 715 LINE",
"455.12 715 LINE",
"459 737 LINE",
"195 737 LINE",
"191.12 715 LINE",
"312.07 715 LINE",
"189.88 22 LINE",
"68.87 22 LINE",
"65 0 LINE"
);
},
{
closed = 1;
nodes = (
"277.33 794.25 LINE",
"217 932.75 LINE",
"185.42 932.75 LINE",
"257.08 794.25 LINE"
);
},
{
closed = 1;
nodes = (
"387.33 794.25 LINE",
"327 932.75 LINE",
"295.42 932.75 LINE",
"367.08 794.25 LINE"
);
}
);
width = 394;
}
);
leftKerningGroup = B;
note = uni0208;
rightKerningGroup = H;
unicode = 0208;
},
{
glyphname = Idieresis;
lastChange = "2019-09-04 12:21:52 +0000";
layers = (
{
hints = (
{
horizontal = 1;
place = "{0, 22}";
type = Stem;
},
{
horizontal = 1;
place = "{715, 22}";
type = Stem;
},
{
horizontal = 1;
place = "{794.25, 103.5}";
type = Stem;
},
{
place = "{65, 432.37}";
type = Stem;
}
);
layerId = "456D8B29-1305-406A-A7FA-547C067BBBCD";
paths = (
{
closed = 1;
nodes = (
"329 0 LINE",
"332.87 22 LINE",
"212.1 22 LINE",
"334.29 715 LINE",
"455.12 715 LINE",
"459 737 LINE",
"195 737 LINE",
"191.12 715 LINE",
"312.07 715 LINE",
"189.88 22 LINE",
"68.87 22 LINE",
"65 0 LINE"
);
},
{
closed = 1;
nodes = (
"212.87 794.25 LINE",
"231.12 897.75 LINE",
"209.12 897.75 LINE",
"190.87 794.25 LINE"
);
},
{
closed = 1;
nodes = (
"479.12 794.25 LINE",
"497.37 897.75 LINE",
"475.37 897.75 LINE",
"457.12 794.25 LINE"
);
}
);
width = 394;
}
);
leftKerningGroup = B;
note = Idieresis;
rightKerningGroup = H;
unicode = 00CF;
},
{
glyphname = Idotaccent;
lastChange = "2019-09-04 12:21:52 +0000";
layers = (
{
hints = (
{
horizontal = 1;
place = "{0, 22}";
type = Stem;
},
{
horizontal = 1;
place = "{715, 22}";
type = Stem;
},
{
horizontal = 1;
place = "{794.25, 103.37}";
type = Stem;
},
{
place = "{65, 394}";
type = Stem;
}
);
layerId = "456D8B29-1305-406A-A7FA-547C067BBBCD";
paths = (
{
closed = 1;
nodes = (
"329 0 LINE",
"332.87 22 LINE",
"212.1 22 LINE",
"334.29 715 LINE",
"455.12 715 LINE",
"459 737 LINE",
"195 737 LINE",
"191.12 715 LINE",
"312.07 715 LINE",
"189.88 22 LINE",
"68.87 22 LINE",
"65 0 LINE"
);
},
{
closed = 1;
nodes = (
"348 794.25 LINE",
"366.25 897.62 LINE",
"344.25 897.62 LINE",
"326 794.25 LINE"
);
}
);
width = 394;
}
);
leftKerningGroup = B;
note = Idotaccent;
rightKerningGroup = H;
unicode = 0130;
},
{
glyphname = uni1ECA;
lastChange = "2019-09-04 12:21:52 +0000";
layers = (
{
hints = (
{
horizontal = 1;
place = "{0, 22}";
type = Stem;
},
{
horizontal = 1;
place = "{715, 22}";
type = Stem;
},
{
place = "{65, 394}";
type = Stem;
}
);
layerId = "456D8B29-1305-406A-A7FA-547C067BBBCD";
paths = (
{
closed = 1;
nodes = (
"329 0 LINE",
"332.87 22 LINE",
"212.1 22 LINE",
"334.29 715 LINE",
"455.12 715 LINE",
"459 737 LINE",
"195 737 LINE",
"191.12 715 LINE",
"312.07 715 LINE",
"189.88 22 LINE",
"68.87 22 LINE",
"65 0 LINE"
);
},
{
closed = 1;
nodes = (
"179.44 -160.63 LINE",
"197.69 -57.25 LINE",
"175.69 -57.25 LINE",
"157.44 -160.63 LINE"
);
}
);
width = 394;
}
);
leftKerningGroup = B;
note = uni1ECA;
rightKerningGroup = H;
unicode = 1ECA;
},
{
glyphname = Igrave;
lastChange = "2019-09-04 12:21:52 +0000";
layers = (
{
hints = (
{
horizontal = 1;
place = "{0, 22}";
type = Stem;
},
{
horizontal = 1;
place = "{715, 22}";
type = Stem;
},
{
horizontal = 1;
place = "{794.25, 138.5}";
type = Stem;
},
{
place = "{65, 394}";
type = Stem;
}
);
layerId = "456D8B29-1305-406A-A7FA-547C067BBBCD";
paths = (
{
closed = 1;
nodes = (
"329 0 LINE",
"332.87 22 LINE",
"212.1 22 LINE",
"334.29 715 LINE",
"455.12 715 LINE",
"459 737 LINE",
"195 737 LINE",
"191.12 715 LINE",
"312.07 715 LINE",
"189.88 22 LINE",
"68.87 22 LINE",
"65 0 LINE"
);
},
{
closed = 1;
nodes = (
"332.35 794.25 LINE",
"272.02 932.75 LINE",
"240.45 932.75 LINE",
"312.1 794.25 LINE"
);
}
);
width = 394;
}
);
leftKerningGroup = B;
note = Igrave;
rightKerningGroup = H;
unicode = 00CC;
},
{
glyphname = uni1EC8;
lastChange = "2019-09-04 12:21:52 +0000";
layers = (
{
hints = (
{
horizontal = 1;
place = "{0, 22}";
type = Stem;
},
{
horizontal = 1;
place = "{715, 22}";
type = Stem;
},
{
horizontal = 1;
place = "{961, 21.62}";
type = Stem;
},
{
place = "{327.12, 20.49}";
type = Stem;
}
);
layerId = "456D8B29-1305-406A-A7FA-547C067BBBCD";
paths = (
{
closed = 1;
nodes = (
"329 -0.01 LINE",
"332.87 21.99 LINE",
"212.1 21.99 LINE",
"334.29 714.99 LINE",
"455.12 714.99 LINE",
"459 736.99 LINE",
"195 736.99 LINE",
"191.12 714.99 LINE",
"312.07 714.99 LINE",
"189.88 21.99 LINE",
"68.87 21.99 LINE",
"65 -0.01 LINE"
);
},
{
closed = 1;
nodes = (
"345.25 794.25 LINE",
"349.98 820.3 LINE",
"429.15 886.42 LINE",
"439.74 946.42 LINE",
"411.59 982.61 LINE",
"337.71 982.61 LINE",
"294.57 943.54 LINE",
"308.87 927.61 LINE",
"346 961 LINE",
"401.25 961 LINE",
"417.25 940.37 LINE",
"409.62 897.37 LINE",
"330.37 831 LINE",
"323.87 794.25 LINE"
);
}
);
width = 394;
}
);
leftKerningGroup = B;
note = uni1EC8;
rightKerningGroup = H;
unicode = 1EC8;
},
{
glyphname = uni020A;
lastChange = "2019-09-04 12:21:52 +0000";
layers = (
{
hints = (
{
horizontal = 1;
place = "{0, 22}";
type = Stem;
},
{
horizontal = 1;
place = "{715, 22}";
type = Stem;
},
{
horizontal = 1;
place = "{889.87, 20.88}";
type = Stem;
},
{
place = "{65, 395.81}";
type = Stem;
}
);
layerId = "456D8B29-1305-406A-A7FA-547C067BBBCD";
paths = (
{
closed = 1;
nodes = (
"329 0 LINE",
"332.87 22 LINE",
"212.1 22 LINE",
"334.29 715 LINE",
"455.12 715 LINE",
"459 737 LINE",
"195 737 LINE",
"191.12 715 LINE",
"312.07 715 LINE",
"189.88 22 LINE",
"68.87 22 LINE",
"65 0 LINE"
);
},
{
closed = 1;
nodes = (
"245.75 794.25 LINE",
"256.5 854.75 LINE",
"297.75 889.87 LINE",
"410 889.87 LINE",
"439 854.75 LINE",
"428.25 794.25 LINE",
"449.25 794.25 LINE",
"460.81 858.99 LINE",
"417.91 910.75 LINE",
"292.29 910.75 LINE",
"237.08 863.7 LINE",
"224.75 794.25 LINE"
);
}
);
width = 394;
}
);
leftKerningGroup = B;
note = uni020A;
rightKerningGroup = H;
unicode = 020A;
},
{
glyphname = Imacron;
lastChange = "2019-09-04 12:21:52 +0000";
layers = (
{
hints = (
{
horizontal = 1;
place = "{0, 22}";
type = Stem;
},
{
horizontal = 1;
place = "{715, 22}";
type = Stem;
},
{
horizontal = 1;
place = "{794.25, 20.87}";
type = Stem;
},
{
place = "{65, 419.87}";
type = Stem;
}
);
layerId = "456D8B29-1305-406A-A7FA-547C067BBBCD";
paths = (
{
closed = 1;
nodes = (
"329 0 LINE",
"332.87 22 LINE",
"212.1 22 LINE",
"334.29 715 LINE",
"455.12 715 LINE",
"459 737 LINE",
"195 737 LINE",
"191.12 715 LINE",
"312.07 715 LINE",
"189.88 22 LINE",
"68.87 22 LINE",
"65 0 LINE"
);
},
{
closed = 1;
nodes = (
"481.12 794.25 LINE",
"484.87 815.12 LINE",
"196.62 815.12 LINE",
"192.87 794.25 LINE"
);
}
);
width = 394;
}
);
leftKerningGroup = B;
note = Imacron;
rightKerningGroup = H;
unicode = 012A;
},
{
glyphname = Iogonek;
lastChange = "2019-09-04 12:21:52 +0000";
layers = (
{
hints = (
{
horizontal = 1;
place = "{-138.63, 22}";
type = Stem;
},
{
horizontal = 1;
place = "{0, 22}";
type = Stem;
},
{
horizontal = 1;
place = "{715, 22}";
type = Stem;
},
{
place = "{65, 394}";
type = Stem;
}
);
layerId = "456D8B29-1305-406A-A7FA-547C067BBBCD";
paths = (
{
closed = 1;
nodes = (
"304.5 -138.63 LINE",
"308.37 -116.63 LINE",
"286.37 -116.63 LINE",
"260.12 -84.75 LINE",
"267.62 -42.63 LINE",
"329 0 LINE",
"332.87 22 LINE",
"212.1 22 LINE",
"334.29 715 LINE",
"455.12 715 LINE",
"459 737 LINE",
"195 737 LINE",
"191.12 715 LINE",
"312.07 715 LINE",
"189.88 22 LINE",
"68.87 22 LINE",
"65 0 LINE",
"291.8 0 LINE",
"247.52 -30.65 LINE",
"237.41 -88.88 LINE",
"278.25 -138.63 LINE"
);
}
);
width = 394;
}
);
leftKerningGroup = B;
note = Iogonek;
rightKerningGroup = H;
unicode = 012E;
},
{
glyphname = Itilde;
lastChange = "2019-09-04 12:21:52 +0000";
layers = (
{
hints = (
{
horizontal = 1;
place = "{0, 22}";
type = Stem;
},
{
horizontal = 1;
place = "{715, 22}";
type = Stem;
},
{
horizontal = 1;
place = "{794.25, 20.87}";
type = Stem;
},
{
horizontal = 1;
place = "{871.25, 20.87}";
type = Stem;
},
{
place = "{65, 434.41}";
type = Stem;
}
);
layerId = "456D8B29-1305-406A-A7FA-547C067BBBCD";
paths = (
{
closed = 1;
nodes = (
"329 0 LINE",
"332.87 22 LINE",
"212.1 22 LINE",
"334.29 715 LINE",
"455.12 715 LINE",
"459 737 LINE",
"195 737 LINE",
"191.12 715 LINE",
"312.07 715 LINE",
"189.88 22 LINE",
"68.87 22 LINE",
"65 0 LINE"
);
},
{
closed = 1;
nodes = (
"210.37 794.25 LINE",
"220.87 834.87 LINE",
"266.87 871.25 LINE",
"317 871.25 LINE",
"380 794.25 LINE",
"435.32 794.25 LINE",
"489.83 842.13 LINE",
"499.41 892.12 LINE",
"483.87 892.12 LINE",
"473.5 851.37 LINE",
"427.5 815.12 LINE",
"390.01 815.12 LINE",
"326.9 892.12 LINE",
"259.03 892.12 LINE",
"204.37 843.75 LINE",
"194.68 794.25 LINE"
);
}
);
width = 394;
}
);
leftKerningGroup = B;
note = Itilde;
rightKerningGroup = H;
unicode = 0128;
},
{
glyphname = J;
lastChange = "2019-09-04 12:21:52 +0000";
layers = (
{
hints = (
{
horizontal = 1;
place = "{0, 22}";
type = Stem;
},
{
place = "{86.87, 498.3}";
type = Stem;
}
);
layerId = "456D8B29-1305-406A-A7FA-547C067BBBCD";
paths = (
{
closed = 1;
nodes = (
"366.51 0 LINE",
"470.95 89.68 LINE",
"585.17 737 LINE",
"563.17 737 LINE",
"450.67 99 LINE",
"361.17 22 LINE",
"171.92 22 LINE",
"109.67 99 LINE",
"137.92 259.62 LINE",
"115.92 259.62 LINE",
"86.87 94.95 LINE",
"163.84 0 LINE"
);
}
);
width = 555;
}
);
leftKerningGroup = J;
note = J;
unicode = 004A;
},
{
glyphname = Jcircumflex;
lastChange = "2019-09-04 12:21:52 +0000";
layers = (
{
hints = (
{
horizontal = 1;
place = "{0, 22}";
type = Stem;
},
{
horizontal = 1;
place = "{911.87, 19.88}";
type = Stem;
},
{
place = "{86.87, 622.02}";
type = Stem;
}
);
layerId = "456D8B29-1305-406A-A7FA-547C067BBBCD";
paths = (
{
closed = 1;
nodes = (
"366.51 0 LINE",
"470.95 89.68 LINE",
"585.17 737 LINE",
"563.17 737 LINE",
"450.67 99 LINE",
"361.17 22 LINE",
"171.92 22 LINE",
"109.67 99 LINE",
"137.92 259.62 LINE",
"115.92 259.62 LINE",
"86.87 94.95 LINE",
"163.84 0 LINE"
);
},
{
closed = 1;
nodes = (
"476.54 794.25 LINE",
"594.17 911.87 LINE",
"611.67 911.87 LINE",
"687.79 794.25 LINE",
"708.89 794.25 LINE",
"627.14 931.75 LINE",
"580 931.75 LINE",
"452.72 794.25 LINE"
);
}
);
width = 555;
}
);
note = Jcircumflex;
unicode = 0134;
},
{
glyphname = K;
lastChange = "2019-09-04 12:21:52 +0000";
layers = (
{
hints = (
{
horizontal = 1;
place = "{0, 737}";
type = Stem;
},
{
place = "{100, 583.12}";
type = Stem;
}
);
layerId = "456D8B29-1305-406A-A7FA-547C067BBBCD";
paths = (
{
closed = 1;
nodes = (
"122.22 0 LINE",
"167.64 257.6 LINE",
"325.36 404.28 LINE",
"546 0 LINE",
"568.5 0 LINE",
"340.54 418.4 LINE",
"683.12 737 LINE",
"653.25 737 LINE",
"173.65 291.67 LINE",
"252.17 737 LINE",
"229.95 737 LINE",
"100 0 LINE"
);
}
);
width = 609;
}
);
leftKerningGroup = B;
note = K;
rightKerningGroup = K;
unicode = 004B;
},
{
glyphname = uni0136;
lastChange = "2019-09-04 12:21:52 +0000";
layers = (
{
hints = (
{
horizontal = 1;
place = "{-216.75, 953.75}";
type = Stem;
},
{
place = "{100, 583.12}";
type = Stem;
}
);
layerId = "456D8B29-1305-406A-A7FA-547C067BBBCD";
paths = (
{
closed = 1;
nodes = (
"122.22 0 LINE",
"167.64 257.6 LINE",
"325.36 404.28 LINE",
"546 0 LINE",
"568.5 0 LINE",
"340.54 418.4 LINE",
"683.12 737 LINE",
"653.25 737 LINE",
"173.65 291.67 LINE",
"252.17 737 LINE",
"229.95 737 LINE",
"100 0 LINE"
);
},
{
closed = 1;
nodes = (
"265.06 -216.75 LINE",
"339.08 -57.25 LINE",
"311.12 -57.25 LINE",
"245.5 -216.75 LINE"
);
}
);
width = 609;
}
);
leftKerningGroup = B;
note = uni0136;
rightKerningGroup = K;
unicode = 0136;
},
{
glyphname = L;
lastChange = "2019-09-04 12:21:52 +0000";
layers = (
{
hints = (
{
horizontal = 1;
place = "{0, 22}";
type = Stem;
},
{
place = "{100, 428.37}";
type = Stem;
}
);
layerId = "456D8B29-1305-406A-A7FA-547C067BBBCD";
paths = (
{
closed = 1;
nodes = (
"524.5 0 LINE",
"528.37 22 LINE",
"126.1 22 LINE",
"252.17 737 LINE",
"229.95 737 LINE",
"100 0 LINE"
);
}
);
width = 535;
}
);
leftKerningGroup = B;
note = L;
rightKerningGroup = L;
unicode = 004C;
},
{
glyphname = uni01C7;
lastChange = "2019-09-04 12:21:52 +0000";
layers = (
{
hints = (
{
horizontal = 1;
place = "{0, 22}";
type = Stem;
},
{
place = "{100, 1037.42}";
type = Stem;
}
);
layerId = "456D8B29-1305-406A-A7FA-547C067BBBCD";
paths = (
{
closed = 1;
nodes = (
"918.76 0 LINE",
"1023.2 89.68 LINE",
"1137.42 737 LINE",
"1115.42 737 LINE",
"1002.92 99 LINE",
"913.42 22 LINE",
"724.17 22 LINE",
"661.92 99 LINE",
"690.17 259.62 LINE",
"668.17 259.62 LINE",
"639.12 94.95 LINE",
"716.09 0 LINE"
);
},
{
closed = 1;
nodes = (
"524.5 0 LINE",
"528.37 22 LINE",
"126.1 22 LINE",
"252.17 737 LINE",
"229.95 737 LINE",
"100 0 LINE"
);
}
);
width = 1107;
}
);
note = uni01C7;
unicode = 01C7;
},
{
glyphname = Lacute;
lastChange = "2019-09-04 12:21:52 +0000";
layers = (
{
hints = (
{
horizontal = 1;
place = "{0, 22}";
type = Stem;
},
{
place = "{100, 428.37}";
type = Stem;
}
);
layerId = "456D8B29-1305-406A-A7FA-547C067BBBCD";
paths = (
{
closed = 1;
nodes = (
"524.5 0 LINE",
"528.37 22 LINE",
"126.1 22 LINE",
"252.17 737 LINE",
"229.95 737 LINE",
"100 0 LINE"
);
},
{
closed = 1;
nodes = (
"263.79 794.25 LINE",
"385.52 932.75 LINE",
"349.75 932.75 LINE",
"240.5 794.25 LINE"
);
}
);
width = 535;
}
);
leftKerningGroup = B;
note = Lacute;
rightKerningGroup = L;
unicode = 0139;
},
{
glyphname = Lcaron;
lastChange = "2019-09-04 12:21:52 +0000";
layers = (
{
hints = (
{
horizontal = 1;
place = "{0, 22}";
type = Stem;
},
{
place = "{100, 428.37}";
type = Stem;
}
);
layerId = "456D8B29-1305-406A-A7FA-547C067BBBCD";
paths = (
{
closed = 1;
nodes = (
"524.5 0 LINE",
"528.37 22 LINE",
"126.1 22 LINE",
"252.17 737 LINE",
"229.95 737 LINE",
"100 0 LINE"
);
},
{
closed = 1;
nodes = (
"427.56 577.5 LINE",
"501.58 737 LINE",
"473.62 737 LINE",
"408 577.5 LINE"
);
}
);
width = 534;
}
);
leftKerningGroup = B;
note = Lcaron;
rightKerningGroup = L;
unicode = 013D;
},
{
glyphname = uni013B;
lastChange = "2019-09-04 12:21:52 +0000";
layers = (
{
hints = (
{
horizontal = 1;
place = "{0, 22}";
type = Stem;
},
{
place = "{100, 428.37}";
type = Stem;
}
);
layerId = "456D8B29-1305-406A-A7FA-547C067BBBCD";
paths = (
{
closed = 1;
nodes = (
"524.5 0 LINE",
"528.37 22 LINE",
"126.1 22 LINE",
"252.17 737 LINE",
"229.95 737 LINE",
"100 0 LINE"
);
},
{
closed = 1;
nodes = (
"243.06 -216.75 LINE",
"317.08 -57.25 LINE",
"289.12 -57.25 LINE",
"223.5 -216.75 LINE"
);
}
);
width = 534;
}
);
leftKerningGroup = B;
note = uni013B;
rightKerningGroup = L;
unicode = 013B;
},
{
glyphname = Ldot;
lastChange = "2019-09-04 12:21:52 +0000";
layers = (
{
hints = (
{
horizontal = 1;
place = "{0, 22}";
type = Stem;
},
{
horizontal = 1;
place = "{331.12, 103.38}";
type = Stem;
},
{
place = "{100, 428.37}";
type = Stem;
}
);
layerId = "456D8B29-1305-406A-A7FA-547C067BBBCD";
paths = (
{
closed = 1;
nodes = (
"524.5 0 LINE",
"528.37 22 LINE",
"126.1 22 LINE",
"252.17 737 LINE",
"229.95 737 LINE",
"100 0 LINE"
);
},
{
closed = 1;
nodes = (
"405.47 331.12 LINE",
"423.7 434.5 LINE",
"401.7 434.5 LINE",
"383.47 331.12 LINE"
);
}
);
width = 535;
}
);
leftKerningGroup = B;
note = Ldot;
rightKerningGroup = L;
unicode = 013F;
},
{
glyphname = uni01C8;
lastChange = "2019-09-04 12:21:52 +0000";
layers = (
{
hints = (
{
horizontal = 1;
place = "{-187, 22}";
type = Stem;
},
{
horizontal = 1;
place = "{0, 22}";
type = Stem;
},
{
horizontal = 1;
place = "{579.75, 103.37}";
type = Stem;
},
{
place = "{100, 688.62}";
type = Stem;
}
);
layerId = "456D8B29-1305-406A-A7FA-547C067BBBCD";
paths = (
{
closed = 1;
nodes = (
"524.5 0 LINE",
"528.37 22 LINE",
"126.1 22 LINE",
"252.17 737 LINE",
"229.95 737 LINE",
"100 0 LINE"
);
},
{
closed = 1;
nodes = (
"563.12 -187 LINE",
"648.2 -113.71 LINE",
"760.37 522.5 LINE",
"738.37 522.5 LINE",
"627.87 -104.5 LINE",
"557.62 -165 LINE",
"446.62 -165 LINE",
"442.75 -187 LINE"
);
},
{
closed = 1;
nodes = (
"770.37 579.75 LINE",
"788.62 683.12 LINE",
"766.62 683.12 LINE",
"748.37 579.75 LINE"
);
}
);
width = 763;
}
);
leftKerningGroup = B;
note = uni01C8;
unicode = 01C8;
},
{
glyphname = Lslash;
lastChange = "2019-09-04 12:21:52 +0000";
layers = (
{
hints = (
{
horizontal = 1;
place = "{0, 22}";
type = Stem;
},
{
place = "{77.75, 450.62}";
type = Stem;
}
);
layerId = "456D8B29-1305-406A-A7FA-547C067BBBCD";
paths = (
{
closed = 1;
nodes = (
"524.5 0 LINE",
"528.37 22 LINE",
"126.1 22 LINE",
"187.91 372.53 LINE",
"410.74 463.12 LINE",
"415.08 487.75 LINE",
"192.25 397.16 LINE",
"252.17 737 LINE",
"229.95 737 LINE",
"168.31 387.43 LINE",
"82.09 352.37 LINE",
"77.75 327.75 LINE",
"163.97 362.8 LINE",
"100 0 LINE"
);
}
);
width = 535;
}
);
leftKerningGroup = B;
note = Lslash;
rightKerningGroup = L;
unicode = 0141;
},
{
glyphname = M;
lastChange = "2019-09-04 12:21:52 +0000";
layers = (
{
hints = (
{
horizontal = 1;
place = "{715, 22}";
type = Stem;
},
{
place = "{100, 792.42}";
type = Stem;
}
);
layerId = "456D8B29-1305-406A-A7FA-547C067BBBCD";
paths = (
{
closed = 1;
nodes = (
"122.22 0 LINE",
"248.29 715 LINE",
"268 715 LINE",
"424.5 0 LINE",
"437.75 0 LINE",
"846.5 715 LINE",
"866.32 715 LINE",
"740.25 0 LINE",
"762.47 0 LINE",
"892.42 737 LINE",
"836.25 737 LINE",
"436.62 38.62 LINE",
"283.75 737 LINE",
"229.95 737 LINE",
"100 0 LINE"
);
}
);
width = 862;
}
);
note = M;
unicode = 004D;
},
{
glyphname = N;
lastChange = "2019-09-04 12:21:52 +0000";
layers = (
{
hints = (
{
horizontal = 1;
place = "{0, 22}";
type = Stem;
},
{
horizontal = 1;
place = "{715, 22}";
type = Stem;
},
{
place = "{100, 606.42}";
type = Stem;
}
);
layerId = "456D8B29-1305-406A-A7FA-547C067BBBCD";
paths = (
{
closed = 1;
nodes = (
"122.22 0 LINE",
"248.29 715 LINE",
"267.87 715 LINE",
"525 0 LINE",
"576.47 0 LINE",
"706.42 737 LINE",
"684.2 737 LINE",
"558.13 22 LINE",
"538.37 22 LINE",
"281.12 737 LINE",
"229.95 737 LINE",
"100 0 LINE"
);
}
);
width = 676;
}
);
leftKerningGroup = B;
note = N;
rightKerningGroup = H;
unicode = 004E;
},
{
glyphname = uni01CA;
lastChange = "2019-09-04 12:21:52 +0000";
layers = (
{
hints = (
{
horizontal = 1;
place = "{0, 22}";
type = Stem;
},
{
horizontal = 1;
place = "{715, 22}";
type = Stem;
},
{
place = "{100, 1186.54}";
type = Stem;
}
);
layerId = "456D8B29-1305-406A-A7FA-547C067BBBCD";
paths = (
{
closed = 1;
nodes = (
"122.22 0 LINE",
"248.29 715 LINE",
"267.87 715 LINE",
"525 0 LINE",
"576.47 0 LINE",
"706.42 737 LINE",
"684.2 737 LINE",
"558.13 22 LINE",
"538.37 22 LINE",
"281.12 737 LINE",
"229.95 737 LINE",
"100 0 LINE"
);
},
{
closed = 1;
nodes = (
"1067.88 0 LINE",
"1172.33 89.68 LINE",
"1286.54 737 LINE",
"1264.54 737 LINE",
"1152.04 99 LINE",
"1062.54 22 LINE",
"873.29 22 LINE",
"811.04 99 LINE",
"839.29 259.62 LINE",
"817.29 259.62 LINE",
"788.25 94.95 LINE",
"865.21 0 LINE"
);
}
);
width = 1256;
}
);
note = uni01CA;
unicode = 01CA;
},
{
glyphname = Nacute;
lastChange = "2019-09-04 12:21:52 +0000";
layers = (
{
hints = (
{
horizontal = 1;
place = "{0, 22}";
type = Stem;
},
{
horizontal = 1;
place = "{715, 22}";
type = Stem;
},
{
place = "{100, 606.42}";
type = Stem;
}
);
layerId = "456D8B29-1305-406A-A7FA-547C067BBBCD";
paths = (
{
closed = 1;
nodes = (
"122.22 0 LINE",
"248.29 715 LINE",
"267.87 715 LINE",
"525 0 LINE",
"576.47 0 LINE",
"706.42 737 LINE",
"684.2 737 LINE",
"558.13 22 LINE",
"538.37 22 LINE",
"281.12 737 LINE",
"229.95 737 LINE",
"100 0 LINE"
);
},
{
closed = 1;
nodes = (
"491.42 794.25 LINE",
"613.15 932.75 LINE",
"577.37 932.75 LINE",
"468.12 794.25 LINE"
);
}
);
width = 676;
}
);
note = Nacute;
unicode = 0143;
},
{
glyphname = Ncaron;
lastChange = "2019-09-04 12:21:52 +0000";
layers = (
{
hints = (
{
horizontal = 1;
place = "{0, 22}";
type = Stem;
},
{
horizontal = 1;
place = "{715, 22}";
type = Stem;
},
{
horizontal = 1;
place = "{794.24, 19.88}";
type = Stem;
},
{
place = "{100, 606.42}";
type = Stem;
}
);
layerId = "456D8B29-1305-406A-A7FA-547C067BBBCD";
paths = (
{
closed = 1;
nodes = (
"122.22 0 LINE",
"248.29 715 LINE",
"267.87 715 LINE",
"525 0 LINE",
"576.47 0 LINE",
"706.42 737 LINE",
"684.2 737 LINE",
"558.13 22 LINE",
"538.37 22 LINE",
"281.12 737 LINE",
"229.95 737 LINE",
"100 0 LINE"
);
},
{
closed = 1;
nodes = (
"498.81 794.24 LINE",
"626.09 931.74 LINE",
"602.27 931.74 LINE",
"484.64 814.12 LINE",
"467.14 814.12 LINE",
"391.02 931.74 LINE",
"369.92 931.74 LINE",
"451.67 794.24 LINE"
);
}
);
width = 676;
}
);
note = Ncaron;
unicode = 0147;
},
{
glyphname = uni0145;
lastChange = "2019-09-04 12:21:52 +0000";
layers = (
{
hints = (
{
horizontal = 1;
place = "{0, 22}";
type = Stem;
},
{
horizontal = 1;
place = "{715, 22}";
type = Stem;
},
{
place = "{100, 606.42}";
type = Stem;
}
);
layerId = "456D8B29-1305-406A-A7FA-547C067BBBCD";
paths = (
{
closed = 1;
nodes = (
"122.22 0 LINE",
"248.29 715 LINE",
"267.87 715 LINE",
"525 0 LINE",
"576.47 0 LINE",
"706.42 737 LINE",
"684.2 737 LINE",
"558.13 22 LINE",
"538.37 22 LINE",
"281.12 737 LINE",
"229.95 737 LINE",
"100 0 LINE"
);
},
{
closed = 1;
nodes = (
"263.93 -216.75 LINE",
"337.96 -57.25 LINE",
"310 -57.25 LINE",
"244.37 -216.75 LINE"
);
}
);
width = 676;
}
);
note = uni0145;
unicode = 0145;
},
{
glyphname = Eng;
lastChange = "2019-09-04 12:21:52 +0000";
layers = (
{
hints = (
{
horizontal = 1;
place = "{-187, 22}";
type = Stem;
},
{
horizontal = 1;
place = "{0, 22}";
type = Stem;
},
{
horizontal = 1;
place = "{715, 22}";
type = Stem;
},
{
place = "{100, 606.42}";
type = Stem;
}
);
layerId = "456D8B29-1305-406A-A7FA-547C067BBBCD";
paths = (
{
closed = 1;
nodes = (
"471.34 -187.01 LINE",
"556.42 -113.72 LINE",
"706.42 737 LINE",
"684.2 737 LINE",
"558.13 22 LINE",
"538.37 22 LINE",
"281.12 737 LINE",
"229.95 737 LINE",
"100 0 LINE",
"122.22 0 LINE",
"248.29 715 LINE",
"267.87 715 LINE",
"525 0 LINE",
"554.51 0 LINE",
"536.09 -104.51 LINE",
"465.84 -165.01 LINE",
"354.84 -165.01 LINE",
"350.97 -187.01 LINE"
);
}
);
width = 676;
}
);
note = Eng;
unicode = 014A;
},
{
glyphname = uni01CB;
lastChange = "2019-09-04 12:21:52 +0000";
layers = (
{
hints = (
{
horizontal = 1;
place = "{-187, 22}";
type = Stem;
},
{
horizontal = 1;
place = "{0, 22}";
type = Stem;
},
{
horizontal = 1;
place = "{579.75, 103.37}";
type = Stem;
},
{
horizontal = 1;
place = "{715, 22}";
type = Stem;
},
{
place = "{100, 854.25}";
type = Stem;
}
);
layerId = "456D8B29-1305-406A-A7FA-547C067BBBCD";
paths = (
{
closed = 1;
nodes = (
"122.22 0 LINE",
"248.29 715 LINE",
"267.87 715 LINE",
"525 0 LINE",
"576.47 0 LINE",
"706.42 737 LINE",
"684.2 737 LINE",
"558.13 22 LINE",
"538.37 22 LINE",
"281.12 737 LINE",
"229.95 737 LINE",
"100 0 LINE"
);
},
{
closed = 1;
nodes = (
"728.75 -187 LINE",
"813.82 -113.71 LINE",
"926 522.5 LINE",
"904 522.5 LINE",
"793.5 -104.5 LINE",
"723.25 -165 LINE",
"612.25 -165 LINE",
"608.37 -187 LINE"
);
},
{
closed = 1;
nodes = (
"936 579.75 LINE",
"954.25 683.12 LINE",
"932.25 683.12 LINE",
"914 579.75 LINE"
);
}
);
width = 929;
}
);
note = uni01CB;
unicode = 01CB;
},
{
glyphname = Ntilde;
lastChange = "2019-09-04 12:21:52 +0000";
layers = (
{
hints = (
{
horizontal = 1;
place = "{0, 22}";
type = Stem;
},
{
horizontal = 1;
place = "{715, 22}";
type = Stem;
},
{
horizontal = 1;
place = "{794.25, 20.87}";
type = Stem;
},
{
horizontal = 1;
place = "{871.25, 20.87}";
type = Stem;
},
{
place = "{100, 606.42}";
type = Stem;
}
);
layerId = "456D8B29-1305-406A-A7FA-547C067BBBCD";
paths = (
{
closed = 1;
nodes = (
"122.22 0 LINE",
"248.29 715 LINE",
"267.87 715 LINE",
"525 0 LINE",
"576.47 0 LINE",
"706.42 737 LINE",
"684.2 737 LINE",
"558.13 22 LINE",
"538.37 22 LINE",
"281.12 737 LINE",
"229.95 737 LINE",
"100 0 LINE"
);
},
{
closed = 1;
nodes = (
"352 794.25 LINE",
"362.5 834.87 LINE",
"408.5 871.25 LINE",
"458.63 871.25 LINE",
"521.63 794.25 LINE",
"576.94 794.25 LINE",
"631.45 842.13 LINE",
"641.04 892.12 LINE",
"625.5 892.12 LINE",
"615.12 851.37 LINE",
"569.12 815.12 LINE",
"531.64 815.12 LINE",
"468.53 892.12 LINE",
"400.65 892.12 LINE",
"345.99 843.75 LINE",
"336.31 794.25 LINE"
);
}
);
width = 676;
}
);
leftKerningGroup = B;
note = Ntilde;
rightKerningGroup = H;
unicode = 00D1;
},
{
glyphname = O;
lastChange = "2019-09-04 12:21:52 +0000";
layers = (
{
hints = (
{
horizontal = 1;
place = "{0, 22}";
type = Stem;
},
{
horizontal = 1;
place = "{715, 22}";
type = Stem;
},
{
place = "{102.45, 602.54}";
type = Stem;
}
);
layerId = "456D8B29-1305-406A-A7FA-547C067BBBCD";
paths = (
{
closed = 1;
nodes = (
"503.09 0 LINE",
"607.53 89.68 LINE",
"704.99 642.28 LINE",
"628.13 737 LINE",
"304.39 737 LINE",
"199.83 647.21 LINE",
"102.45 94.95 LINE",
"179.42 0 LINE"
);
},
{
closed = 1;
nodes = (
"125.25 99 LINE",
"220.25 638 LINE",
"309.75 715 LINE",
"620 715 LINE",
"682.25 638 LINE",
"587.25 99 LINE",
"497.75 22 LINE",
"187.5 22 LINE"
);
}
);
width = 676;
}
);
note = O;
rightKerningGroup = O;
unicode = 004F;
},
{
glyphname = Oacute;
lastChange = "2019-09-04 12:21:52 +0000";
layers = (
{
hints = (
{
horizontal = 1;
place = "{0, 22}";
type = Stem;
},
{
horizontal = 1;
place = "{715, 22}";
type = Stem;
},
{
place = "{102.45, 602.54}";
type = Stem;
}
);
layerId = "456D8B29-1305-406A-A7FA-547C067BBBCD";
paths = (
{
closed = 1;
nodes = (
"503.09 0 LINE",
"607.53 89.68 LINE",
"704.99 642.28 LINE",
"628.13 737 LINE",
"304.39 737 LINE",
"199.83 647.21 LINE",
"102.45 94.95 LINE",
"179.42 0 LINE"
);
},
{
closed = 1;
nodes = (
"125.25 99 LINE",
"220.25 638 LINE",
"309.75 715 LINE",
"620 715 LINE",
"682.25 638 LINE",
"587.25 99 LINE",
"497.75 22 LINE",
"187.5 22 LINE"
);
},
{
closed = 1;
nodes = (
"489.54 794.25 LINE",
"611.27 932.75 LINE",
"575.5 932.75 LINE",
"466.25 794.25 LINE"
);
}
);
width = 676;
}
);
note = Oacute;
rightKerningGroup = O;
unicode = 00D3;
},
{
glyphname = Obreve;
lastChange = "2019-09-04 12:21:52 +0000";
layers = (
{
hints = (
{
horizontal = 1;
place = "{0, 22}";
type = Stem;
},
{
horizontal = 1;
place = "{715, 22}";
type = Stem;
},
{
horizontal = 1;
place = "{794.25, 20.87}";
type = Stem;
},
{
place = "{102.45, 602.54}";
type = Stem;
}
);
layerId = "456D8B29-1305-406A-A7FA-547C067BBBCD";
paths = (
{
closed = 1;
nodes = (
"503.09 0 LINE",
"607.53 89.68 LINE",
"704.99 642.28 LINE",
"628.13 737 LINE",
"304.39 737 LINE",
"199.83 647.21 LINE",
"102.45 94.95 LINE",
"179.42 0 LINE"
);
},
{
closed = 1;
nodes = (
"125.25 99 LINE",
"220.25 638 LINE",
"309.75 715 LINE",
"620 715 LINE",
"682.25 638 LINE",
"587.25 99 LINE",
"497.75 22 LINE",
"187.5 22 LINE"
);
},
{
closed = 1;
nodes = (
"538.06 794.25 LINE",
"593.2 841.18 LINE",
"605.62 910.75 LINE",
"584.62 910.75 LINE",
"573.87 850.25 LINE",
"532.62 815.12 LINE",
"420.37 815.12 LINE",
"391.37 850.25 LINE",
"402.12 910.75 LINE",
"381.12 910.75 LINE",
"369.57 845.44 LINE",
"412.24 794.25 LINE"
);
}
);
width = 676;
}
);
note = Obreve;
rightKerningGroup = O;
unicode = 014E;
},
{
glyphname = Ocircumflex;
lastChange = "2019-09-04 12:21:52 +0000";
layers = (
{
hints = (
{
horizontal = 1;
place = "{0, 22}";
type = Stem;
},
{
horizontal = 1;
place = "{715, 22}";
type = Stem;
},
{
horizontal = 1;
place = "{911.87, 19.88}";
type = Stem;
},
{
place = "{102.45, 602.54}";
type = Stem;
}
);
layerId = "456D8B29-1305-406A-A7FA-547C067BBBCD";
paths = (
{
closed = 1;
nodes = (
"503.09 0 LINE",
"607.53 89.68 LINE",
"704.99 642.28 LINE",
"628.13 737 LINE",
"304.39 737 LINE",
"199.83 647.21 LINE",
"102.45 94.95 LINE",
"179.42 0 LINE"
);
},
{
closed = 1;
nodes = (
"125.25 99 LINE",
"220.25 638 LINE",
"309.75 715 LINE",
"620 715 LINE",
"682.25 638 LINE",
"587.25 99 LINE",
"497.75 22 LINE",
"187.5 22 LINE"
);
},
{
closed = 1;
nodes = (
"369.12 794.25 LINE",
"486.75 911.87 LINE",
"504.25 911.87 LINE",
"580.37 794.25 LINE",
"601.47 794.25 LINE",
"519.72 931.75 LINE",
"472.58 931.75 LINE",
"345.3 794.25 LINE"
);
}
);
width = 676;
}
);
note = Ocircumflex;
rightKerningGroup = O;
unicode = 00D4;
},
{
glyphname = uni1ED0;
lastChange = "2019-09-04 12:21:52 +0000";
layers = (
{
hints = (
{
horizontal = 1;
place = "{0, 22}";
type = Stem;
},
{
horizontal = 1;
place = "{715, 22}";
type = Stem;
},
{
horizontal = 1;
place = "{911.87, 19.88}";
type = Stem;
},
{
place = "{102.45, 648.73}";
type = Stem;
}
);
layerId = "456D8B29-1305-406A-A7FA-547C067BBBCD";
paths = (
{
closed = 1;
nodes = (
"503.09 0 LINE",
"607.53 89.68 LINE",
"704.99 642.28 LINE",
"628.13 737 LINE",
"304.39 737 LINE",
"199.83 647.21 LINE",
"102.45 94.95 LINE",
"179.42 0 LINE"
);
},
{
closed = 1;
nodes = (
"125.25 99 LINE",
"220.25 638 LINE",
"309.75 715 LINE",
"620 715 LINE",
"682.25 638 LINE",
"587.25 99 LINE",
"497.75 22 LINE",
"187.5 22 LINE"
);
},
{
closed = 1;
nodes = (
"369.12 794.25 LINE",
"486.75 911.87 LINE",
"504.25 911.87 LINE",
"580.37 794.25 LINE",
"601.47 794.25 LINE",
"519.72 931.75 LINE",
"472.58 931.75 LINE",
"345.3 794.25 LINE"
);
},
{
closed = 1;
nodes = (
"629.45 859.72 LINE",
"751.18 998.22 LINE",
"715.4 998.22 LINE",
"606.15 859.72 LINE"
);
}
);
width = 676;
}
);
note = uni1ED0;
rightKerningGroup = O;
unicode = 1ED0;
},
{
glyphname = uni1ED8;
lastChange = "2019-09-04 12:21:52 +0000";
layers = (
{
hints = (
{
horizontal = 1;
place = "{0, 22}";
type = Stem;
},
{
horizontal = 1;
place = "{715, 22}";
type = Stem;
},
{
horizontal = 1;
place = "{911.87, 19.88}";
type = Stem;
},
{
place = "{102.45, 602.54}";
type = Stem;
}
);
layerId = "456D8B29-1305-406A-A7FA-547C067BBBCD";
paths = (
{
closed = 1;
nodes = (
"503.09 0 LINE",
"607.53 89.68 LINE",
"704.99 642.28 LINE",
"628.13 737 LINE",
"304.39 737 LINE",
"199.83 647.21 LINE",
"102.45 94.95 LINE",
"179.42 0 LINE"
);
},
{
closed = 1;
nodes = (
"321.19 -160.63 LINE",
"339.44 -57.25 LINE",
"317.44 -57.25 LINE",
"299.19 -160.63 LINE"
);
},
{
closed = 1;
nodes = (
"125.25 99 LINE",
"220.25 638 LINE",
"309.75 715 LINE",
"620 715 LINE",
"682.25 638 LINE",
"587.25 99 LINE",
"497.75 22 LINE",
"187.5 22 LINE"
);
},
{
closed = 1;
nodes = (
"369.12 794.25 LINE",
"486.75 911.87 LINE",
"504.25 911.87 LINE",
"580.37 794.25 LINE",
"601.47 794.25 LINE",
"519.72 931.75 LINE",
"472.58 931.75 LINE",
"345.3 794.25 LINE"
);
}
);
width = 676;
}
);
note = uni1ED8;
rightKerningGroup = O;
unicode = 1ED8;
},
{
glyphname = uni1ED2;
lastChange = "2019-09-04 12:21:52 +0000";
layers = (
{
hints = (
{
horizontal = 1;
place = "{0, 22}";
type = Stem;
},
{
horizontal = 1;
place = "{715, 22}";
type = Stem;
},
{
horizontal = 1;
place = "{859.7, 138.5}";
type = Stem;
},
{
place = "{102.45, 602.54}";
type = Stem;
},
{
horizontal = 1;
place = "{911.87, 19.88}";
type = Stem;
}
);
layerId = "456D8B29-1305-406A-A7FA-547C067BBBCD";
paths = (
{
closed = 1;
nodes = (
"503.09 0 LINE",
"607.53 89.68 LINE",
"704.99 642.28 LINE",
"628.13 737 LINE",
"304.39 737 LINE",
"199.83 647.21 LINE",
"102.45 94.95 LINE",
"179.42 0 LINE"
);
},
{
closed = 1;
nodes = (
"125.25 99 LINE",
"220.25 638 LINE",
"309.75 715 LINE",
"620 715 LINE",
"682.25 638 LINE",
"587.25 99 LINE",
"497.75 22 LINE",
"187.5 22 LINE"
);
},
{
closed = 1;
nodes = (
"356.62 859.7 LINE",
"296.29 998.2 LINE",
"264.72 998.2 LINE",
"336.37 859.7 LINE"
);
},
{
closed = 1;
nodes = (
"369.12 794.25 LINE",
"486.75 911.87 LINE",
"504.25 911.87 LINE",
"580.37 794.25 LINE",
"601.47 794.25 LINE",
"519.72 931.75 LINE",
"472.58 931.75 LINE",
"345.3 794.25 LINE"
);
}
);
width = 676;
}
);
note = uni1ED2;
rightKerningGroup = O;
unicode = 1ED2;
},
{
glyphname = uni1ED4;
lastChange = "2019-09-04 12:21:52 +0000";
layers = (
{
hints = (
{
horizontal = 1;
place = "{0, 22}";
type = Stem;
},
{
horizontal = 1;
place = "{715, 22}";
type = Stem;
},
{
horizontal = 1;
place = "{911.87, 19.88}";
type = Stem;
},
{
horizontal = 1;
place = "{1026.5, 21.62}";
type = Stem;
},
{
place = "{599.87, 20.49}";
type = Stem;
}
);
layerId = "456D8B29-1305-406A-A7FA-547C067BBBCD";
paths = (
{
closed = 1;
nodes = (
"503.09 -0.01 LINE",
"607.53 89.67 LINE",
"704.99 642.27 LINE",
"628.13 736.99 LINE",
"304.39 736.99 LINE",
"199.83 647.2 LINE",
"102.45 94.94 LINE",
"179.42 -0.01 LINE"
);
},
{
closed = 1;
nodes = (
"125.25 98.99 LINE",
"220.25 637.99 LINE",
"309.75 714.99 LINE",
"620 714.99 LINE",
"682.25 637.99 LINE",
"587.25 98.99 LINE",
"497.75 21.99 LINE",
"187.5 21.99 LINE"
);
},
{
closed = 1;
nodes = (
"369.12 794.24 LINE",
"486.75 911.86 LINE",
"504.25 911.86 LINE",
"580.37 794.24 LINE",
"601.47 794.24 LINE",
"519.72 931.74 LINE",
"472.58 931.74 LINE",
"345.3 794.24 LINE"
);
},
{
closed = 1;
nodes = (
"618 859.75 LINE",
"622.73 885.8 LINE",
"701.9 951.92 LINE",
"712.49 1011.92 LINE",
"684.34 1048.11 LINE",
"610.46 1048.11 LINE",
"567.32 1009.04 LINE",
"581.62 993.11 LINE",
"618.75 1026.49 LINE",
"674 1026.49 LINE",
"690 1005.86 LINE",
"682.37 962.86 LINE",
"603.12 896.49 LINE",
"596.62 859.75 LINE"
);
}
);
width = 676;
}
);
note = uni1ED4;
rightKerningGroup = O;
unicode = 1ED4;
},
{
glyphname = uni1ED6;
lastChange = "2019-09-04 12:21:52 +0000";
layers = (
{
hints = (
{
horizontal = 1;
place = "{0, 22}";
type = Stem;
},
{
horizontal = 1;
place = "{715, 22}";
type = Stem;
},
{
horizontal = 1;
place = "{952.87, 20.88}";
type = Stem;
},
{
horizontal = 1;
place = "{1029.87, 20.88}";
type = Stem;
},
{
place = "{102.45, 602.54}";
type = Stem;
},
{
horizontal = 1;
place = "{911.87, 19.88}";
type = Stem;
}
);
layerId = "456D8B29-1305-406A-A7FA-547C067BBBCD";
paths = (
{
closed = 1;
nodes = (
"503.09 0 LINE",
"607.53 89.68 LINE",
"704.99 642.28 LINE",
"628.13 737 LINE",
"304.39 737 LINE",
"199.83 647.21 LINE",
"102.45 94.95 LINE",
"179.42 0 LINE"
);
},
{
closed = 1;
nodes = (
"125.25 99 LINE",
"220.25 638 LINE",
"309.75 715 LINE",
"620 715 LINE",
"682.25 638 LINE",
"587.25 99 LINE",
"497.75 22 LINE",
"187.5 22 LINE"
);
},
{
closed = 1;
nodes = (
"369.12 794.25 LINE",
"486.75 911.87 LINE",
"504.25 911.87 LINE",
"580.37 794.25 LINE",
"601.47 794.25 LINE",
"519.72 931.75 LINE",
"472.58 931.75 LINE",
"345.3 794.25 LINE"
);
},
{
closed = 1;
nodes = (
"372.62 952.87 LINE",
"383.12 993.5 LINE",
"429.12 1029.87 LINE",
"479.25 1029.87 LINE",
"542.25 952.87 LINE",
"597.57 952.87 LINE",
"652.08 1000.75 LINE",
"661.66 1050.75 LINE",
"646.12 1050.75 LINE",
"635.75 1010 LINE",
"589.75 973.75 LINE",
"552.26 973.75 LINE",
"489.15 1050.75 LINE",
"421.28 1050.75 LINE",
"366.62 1002.37 LINE",
"356.93 952.87 LINE"
);
}
);
width = 676;
}
);
note = uni1ED6;
rightKerningGroup = O;
unicode = 1ED6;
},
{
glyphname = uni020C;
lastChange = "2019-09-04 12:21:52 +0000";
layers = (
{
hints = (
{
horizontal = 1;
place = "{0, 22}";
type = Stem;
},
{
horizontal = 1;
place = "{715, 22}";
type = Stem;
},
{
horizontal = 1;
place = "{794.25, 138.5}";
type = Stem;
},
{
place = "{102.45, 602.54}";
type = Stem;
}
);
layerId = "456D8B29-1305-406A-A7FA-547C067BBBCD";
paths = (
{
closed = 1;
nodes = (
"503.09 0 LINE",
"607.53 89.68 LINE",
"704.99 642.28 LINE",
"628.13 737 LINE",
"304.39 737 LINE",
"199.83 647.21 LINE",
"102.45 94.95 LINE",
"179.42 0 LINE"
);
},
{
closed = 1;
nodes = (
"125.25 99 LINE",
"220.25 638 LINE",
"309.75 715 LINE",
"620 715 LINE",
"682.25 638 LINE",
"587.25 99 LINE",
"497.75 22 LINE",
"187.5 22 LINE"
);
},
{
closed = 1;
nodes = (
"417.08 794.25 LINE",
"356.75 932.75 LINE",
"325.17 932.75 LINE",
"396.83 794.25 LINE"
);
},
{
closed = 1;
nodes = (
"527.08 794.25 LINE",
"466.75 932.75 LINE",
"435.17 932.75 LINE",
"506.83 794.25 LINE"
);
}
);
width = 676;
}
);
note = uni020C;
rightKerningGroup = O;
unicode = 020C;
},
{
glyphname = Odieresis;
lastChange = "2019-09-04 12:21:52 +0000";
layers = (
{
hints = (
{
horizontal = 1;
place = "{0, 22}";
type = Stem;
},
{
horizontal = 1;
place = "{715, 22}";
type = Stem;
},
{
horizontal = 1;
place = "{794.25, 103.5}";
type = Stem;
},
{
place = "{102.45, 602.54}";
type = Stem;
}
);
layerId = "456D8B29-1305-406A-A7FA-547C067BBBCD";
paths = (
{
closed = 1;
nodes = (
"503.09 0 LINE",
"607.53 89.68 LINE",
"704.99 642.28 LINE",
"628.13 737 LINE",
"304.39 737 LINE",
"199.83 647.21 LINE",
"102.45 94.95 LINE",
"179.42 0 LINE"
);
},
{
closed = 1;
nodes = (
"125.25 99 LINE",
"220.25 638 LINE",
"309.75 715 LINE",
"620 715 LINE",
"682.25 638 LINE",
"587.25 99 LINE",
"497.75 22 LINE",
"187.5 22 LINE"
);
},
{
closed = 1;
nodes = (
"352.62 794.25 LINE",
"370.87 897.75 LINE",
"348.87 897.75 LINE",
"330.62 794.25 LINE"
);
},
{
closed = 1;
nodes = (
"618.87 794.25 LINE",
"637.12 897.75 LINE",
"615.12 897.75 LINE",
"596.87 794.25 LINE"
);
}
);
width = 676;
}
);
note = Odieresis;
rightKerningGroup = O;
unicode = 00D6;
},
{
glyphname = uni022A;
lastChange = "2019-09-04 12:21:52 +0000";
layers = (
{
hints = (
{
horizontal = 1;
place = "{0, 22}";
type = Stem;
},
{
horizontal = 1;
place = "{715, 22}";
type = Stem;
},
{
horizontal = 1;
place = "{929.69, 20.88}";
type = Stem;
},
{
place = "{102.45, 602.54}";
type = Stem;
}
);
layerId = "456D8B29-1305-406A-A7FA-547C067BBBCD";
paths = (
{
closed = 1;
nodes = (
"503.09 0 LINE",
"607.53 89.68 LINE",
"704.99 642.28 LINE",
"628.13 737 LINE",
"304.39 737 LINE",
"199.83 647.21 LINE",
"102.45 94.95 LINE",
"179.42 0 LINE"
);
},
{
closed = 1;
nodes = (
"125.25 99 LINE",
"220.25 638 LINE",
"309.75 715 LINE",
"620 715 LINE",
"682.25 638 LINE",
"587.25 99 LINE",
"497.75 22 LINE",
"187.5 22 LINE"
);
},
{
closed = 1;
nodes = (
"352.62 794.25 LINE",
"370.87 897.75 LINE",
"348.87 897.75 LINE",
"330.62 794.25 LINE"
);
},
{
closed = 1;
nodes = (
"642.72 929.69 LINE",
"646.47 950.57 LINE",
"358.22 950.57 LINE",
"354.47 929.69 LINE"
);
},
{
closed = 1;
nodes = (
"618.87 794.25 LINE",
"637.12 897.75 LINE",
"615.12 897.75 LINE",
"596.87 794.25 LINE"
);
}
);
width = 676;
}
);
note = uni022A;
rightKerningGroup = O;
unicode = 022A;
},
{
glyphname = uni0230;
lastChange = "2019-09-04 12:21:52 +0000";
layers = (
{
hints = (
{
horizontal = 1;
place = "{0, 22}";
type = Stem;
},
{
horizontal = 1;
place = "{715, 22}";
type = Stem;
},
{
horizontal = 1;
place = "{929.69, 20.88}";
type = Stem;
},
{
place = "{102.45, 602.54}";
type = Stem;
}
);
layerId = "456D8B29-1305-406A-A7FA-547C067BBBCD";
paths = (
{
closed = 1;
nodes = (
"503.09 0 LINE",
"607.53 89.68 LINE",
"704.99 642.28 LINE",
"628.13 737 LINE",
"304.39 737 LINE",
"199.83 647.21 LINE",
"102.45 94.95 LINE",
"179.42 0 LINE"
);
},
{
closed = 1;
nodes = (
"125.25 99 LINE",
"220.25 638 LINE",
"309.75 715 LINE",
"620 715 LINE",
"682.25 638 LINE",
"587.25 99 LINE",
"497.75 22 LINE",
"187.5 22 LINE"
);
},
{
closed = 1;
nodes = (
"487.75 794.25 LINE",
"506 897.62 LINE",
"484 897.62 LINE",
"465.75 794.25 LINE"
);
},
{
closed = 1;
nodes = (
"642.72 929.69 LINE",
"646.47 950.57 LINE",
"358.22 950.57 LINE",
"354.47 929.69 LINE"
);
}
);
width = 676;
}
);
note = uni0230;
rightKerningGroup = O;
unicode = 0230;
},
{
glyphname = uni1ECC;
lastChange = "2019-09-04 12:21:52 +0000";
layers = (
{
hints = (
{
horizontal = 1;
place = "{0, 22}";
type = Stem;
},
{
horizontal = 1;
place = "{715, 22}";
type = Stem;
},
{
place = "{102.45, 602.54}";
type = Stem;
}
);
layerId = "456D8B29-1305-406A-A7FA-547C067BBBCD";
paths = (
{
closed = 1;
nodes = (
"503.09 0 LINE",
"607.53 89.68 LINE",
"704.99 642.28 LINE",
"628.13 737 LINE",
"304.39 737 LINE",
"199.83 647.21 LINE",
"102.45 94.95 LINE",
"179.42 0 LINE"
);
},
{
closed = 1;
nodes = (
"321.19 -160.63 LINE",
"339.44 -57.25 LINE",
"317.44 -57.25 LINE",
"299.19 -160.63 LINE"
);
},
{
closed = 1;
nodes = (
"125.25 99 LINE",
"220.25 638 LINE",
"309.75 715 LINE",
"620 715 LINE",
"682.25 638 LINE",
"587.25 99 LINE",
"497.75 22 LINE",
"187.5 22 LINE"
);
}
);
width = 676;
}
);
note = uni1ECC;
rightKerningGroup = O;
unicode = 1ECC;
},
{
glyphname = Ograve;
lastChange = "2019-09-04 12:21:52 +0000";
layers = (
{
hints = (
{
horizontal = 1;
place = "{0, 22}";
type = Stem;
},
{
horizontal = 1;
place = "{715, 22}";
type = Stem;
},
{
horizontal = 1;
place = "{794.25, 138.5}";
type = Stem;
},
{
place = "{102.45, 602.54}";
type = Stem;
}
);
layerId = "456D8B29-1305-406A-A7FA-547C067BBBCD";
paths = (
{
closed = 1;
nodes = (
"503.09 0 LINE",
"607.53 89.68 LINE",
"704.99 642.28 LINE",
"628.13 737 LINE",
"304.39 737 LINE",
"199.83 647.21 LINE",
"102.45 94.95 LINE",
"179.42 0 LINE"
);
},
{
closed = 1;
nodes = (
"125.25 99 LINE",
"220.25 638 LINE",
"309.75 715 LINE",
"620 715 LINE",
"682.25 638 LINE",
"587.25 99 LINE",
"497.75 22 LINE",
"187.5 22 LINE"
);
},
{
closed = 1;
nodes = (
"472.1 794.25 LINE",
"411.77 932.75 LINE",
"380.2 932.75 LINE",
"451.85 794.25 LINE"
);
}
);
width = 676;
}
);
note = Ograve;
rightKerningGroup = O;
unicode = 00D2;
},
{
glyphname = uni1ECE;
lastChange = "2019-09-04 12:21:52 +0000";
layers = (
{
hints = (
{
horizontal = 1;
place = "{0, 22}";
type = Stem;
},
{
horizontal = 1;
place = "{715, 22}";
type = Stem;
},
{
horizontal = 1;
place = "{961, 21.62}";
type = Stem;
},
{
place = "{466.87, 20.49}";
type = Stem;
}
);
layerId = "456D8B29-1305-406A-A7FA-547C067BBBCD";
paths = (
{
closed = 1;
nodes = (
"503.09 -0.01 LINE",
"607.53 89.67 LINE",
"704.99 642.27 LINE",
"628.13 736.99 LINE",
"304.39 736.99 LINE",
"199.83 647.2 LINE",
"102.45 94.94 LINE",
"179.42 -0.01 LINE"
);
},
{
closed = 1;
nodes = (
"125.25 98.99 LINE",
"220.25 637.99 LINE",
"309.75 714.99 LINE",
"620 714.99 LINE",
"682.25 637.99 LINE",
"587.25 98.99 LINE",
"497.75 21.99 LINE",
"187.5 21.99 LINE"
);
},
{
closed = 1;
nodes = (
"485 794.25 LINE",
"489.73 820.3 LINE",
"568.9 886.42 LINE",
"579.49 946.42 LINE",
"551.34 982.61 LINE",
"477.46 982.61 LINE",
"434.32 943.54 LINE",
"448.62 927.61 LINE",
"485.75 960.99 LINE",
"541 960.99 LINE",
"557 940.36 LINE",
"549.37 897.36 LINE",
"470.12 830.99 LINE",
"463.62 794.25 LINE"
);
}
);
width = 676;
}
);
note = uni1ECE;
rightKerningGroup = O;
unicode = 1ECE;
},
{
glyphname = Ohorn;
lastChange = "2019-09-04 12:21:52 +0000";
layers = (
{
hints = (
{
horizontal = 1;
place = "{0, 22}";
type = Stem;
},
{
horizontal = 1;
place = "{633.62, 21.5}";
type = Stem;
},
{
horizontal = 1;
place = "{715, 22}";
type = Stem;
},
{
place = "{102.45, 726.54}";
type = Stem;
}
);
layerId = "456D8B29-1305-406A-A7FA-547C067BBBCD";
paths = (
{
closed = 1;
nodes = (
"503.09 0 LINE",
"607.53 89.68 LINE",
"703.46 633.62 LINE",
"753.15 633.62 LINE",
"828.99 803 LINE",
"801.75 803 LINE",
"741.25 655.12 LINE",
"694.56 655.12 LINE",
"628.13 737 LINE",
"304.39 737 LINE",
"199.83 647.21 LINE",
"102.45 94.95 LINE",
"179.42 0 LINE"
);
},
{
closed = 1;
nodes = (
"125.25 99 LINE",
"220.25 638 LINE",
"309.75 715 LINE",
"620 715 LINE",
"682.25 638 LINE",
"587.25 99 LINE",
"497.75 22 LINE",
"187.5 22 LINE"
);
}
);
width = 676;
}
);
note = Ohorn;
rightKerningGroup = O;
unicode = 01A0;
},
{
glyphname = uni1EDA;
lastChange = "2019-09-04 12:21:52 +0000";
layers = (
{
hints = (
{
horizontal = 1;
place = "{0, 22}";
type = Stem;
},
{
horizontal = 1;
place = "{633.62, 21.5}";
type = Stem;
},
{
horizontal = 1;
place = "{715, 22}";
type = Stem;
},
{
place = "{102.45, 726.54}";
type = Stem;
}
);
layerId = "456D8B29-1305-406A-A7FA-547C067BBBCD";
paths = (
{
closed = 1;
nodes = (
"503.09 0 LINE",
"607.53 89.68 LINE",
"703.46 633.62 LINE",
"753.15 633.62 LINE",
"828.99 803 LINE",
"801.75 803 LINE",
"741.25 655.12 LINE",
"694.56 655.12 LINE",
"628.13 737 LINE",
"304.39 737 LINE",
"199.83 647.21 LINE",
"102.45 94.95 LINE",
"179.42 0 LINE"
);
},
{
closed = 1;
nodes = (
"125.25 99 LINE",
"220.25 638 LINE",
"309.75 715 LINE",
"620 715 LINE",
"682.25 638 LINE",
"587.25 99 LINE",
"497.75 22 LINE",
"187.5 22 LINE"
);
},
{
closed = 1;
nodes = (
"489.54 794.25 LINE",
"611.27 932.75 LINE",
"575.5 932.75 LINE",
"466.25 794.25 LINE"
);
}
);
width = 676;
}
);
note = uni1EDA;
rightKerningGroup = O;
unicode = 1EDA;
},
{
glyphname = uni1EE2;
lastChange = "2019-09-04 12:21:52 +0000";
layers = (
{
hints = (
{
horizontal = 1;
place = "{0, 22}";
type = Stem;
},
{
horizontal = 1;
place = "{633.62, 21.5}";
type = Stem;
},
{
horizontal = 1;
place = "{715, 22}";
type = Stem;
},
{
place = "{102.45, 726.54}";
type = Stem;
}
);
layerId = "456D8B29-1305-406A-A7FA-547C067BBBCD";
paths = (
{
closed = 1;
nodes = (
"503.09 0 LINE",
"607.53 89.68 LINE",
"703.46 633.62 LINE",
"753.15 633.62 LINE",
"828.99 803 LINE",
"801.75 803 LINE",
"741.25 655.12 LINE",
"694.56 655.12 LINE",
"628.13 737 LINE",
"304.39 737 LINE",
"199.83 647.21 LINE",
"102.45 94.95 LINE",
"179.42 0 LINE"
);
},
{
closed = 1;
nodes = (
"321.19 -160.63 LINE",
"339.44 -57.25 LINE",
"317.44 -57.25 LINE",
"299.19 -160.63 LINE"
);
},
{
closed = 1;
nodes = (
"125.25 99 LINE",
"220.25 638 LINE",
"309.75 715 LINE",
"620 715 LINE",
"682.25 638 LINE",
"587.25 99 LINE",
"497.75 22 LINE",
"187.5 22 LINE"
);
}
);
width = 676;
}
);
note = uni1EE2;
rightKerningGroup = O;
unicode = 1EE2;
},
{
glyphname = uni1EDC;
lastChange = "2019-09-04 12:21:52 +0000";
layers = (
{
hints = (
{
horizontal = 1;
place = "{0, 22}";
type = Stem;
},
{
horizontal = 1;
place = "{633.62, 21.5}";
type = Stem;
},
{
horizontal = 1;
place = "{715, 22}";
type = Stem;
},
{
horizontal = 1;
place = "{794.25, 138.5}";
type = Stem;
},
{
place = "{102.45, 726.54}";
type = Stem;
}
);
layerId = "456D8B29-1305-406A-A7FA-547C067BBBCD";
paths = (
{
closed = 1;
nodes = (
"503.09 0 LINE",
"607.53 89.68 LINE",
"703.46 633.62 LINE",
"753.15 633.62 LINE",
"828.99 803 LINE",
"801.75 803 LINE",
"741.25 655.12 LINE",
"694.56 655.12 LINE",
"628.13 737 LINE",
"304.39 737 LINE",
"199.83 647.21 LINE",
"102.45 94.95 LINE",
"179.42 0 LINE"
);
},
{
closed = 1;
nodes = (
"125.25 99 LINE",
"220.25 638 LINE",
"309.75 715 LINE",
"620 715 LINE",
"682.25 638 LINE",
"587.25 99 LINE",
"497.75 22 LINE",
"187.5 22 LINE"
);
},
{
closed = 1;
nodes = (
"472.1 794.25 LINE",
"411.77 932.75 LINE",
"380.2 932.75 LINE",
"451.85 794.25 LINE"
);
}
);
width = 676;
}
);
note = uni1EDC;
rightKerningGroup = O;
unicode = 1EDC;
},
{
glyphname = uni1EDE;
lastChange = "2019-09-04 12:21:52 +0000";
layers = (
{
hints = (
{
horizontal = 1;
place = "{0, 22}";
type = Stem;
},
{
horizontal = 1;
place = "{633.62, 21.5}";
type = Stem;
},
{
horizontal = 1;
place = "{715, 22}";
type = Stem;
},
{
horizontal = 1;
place = "{961, 21.62}";
type = Stem;
},
{
place = "{466.87, 20.49}";
type = Stem;
}
);
layerId = "456D8B29-1305-406A-A7FA-547C067BBBCD";
paths = (
{
closed = 1;
nodes = (
"503.09 -0.01 LINE",
"607.53 89.67 LINE",
"703.46 633.61 LINE",
"753.15 633.61 LINE",
"828.99 802.99 LINE",
"801.75 802.99 LINE",
"741.25 655.11 LINE",
"694.56 655.11 LINE",
"628.13 736.99 LINE",
"304.39 736.99 LINE",
"199.83 647.2 LINE",
"102.45 94.94 LINE",
"179.42 -0.01 LINE"
);
},
{
closed = 1;
nodes = (
"125.25 98.99 LINE",
"220.25 637.99 LINE",
"309.75 714.99 LINE",
"620 714.99 LINE",
"682.25 637.99 LINE",
"587.25 98.99 LINE",
"497.75 21.99 LINE",
"187.5 21.99 LINE"
);
},
{
closed = 1;
nodes = (
"485 794.25 LINE",
"489.73 820.3 LINE",
"568.9 886.42 LINE",
"579.49 946.42 LINE",
"551.34 982.61 LINE",
"477.46 982.61 LINE",
"434.32 943.54 LINE",
"448.62 927.61 LINE",
"485.75 961 LINE",
"541 961 LINE",
"557 940.37 LINE",
"549.37 897.37 LINE",
"470.12 831 LINE",
"463.62 794.25 LINE"
);
}
);
width = 676;
}
);
note = uni1EDE;
rightKerningGroup = O;
unicode = 1EDE;
},
{
glyphname = uni1EE0;
lastChange = "2019-09-04 12:21:52 +0000";
layers = (
{
hints = (
{
horizontal = 1;
place = "{0, 22}";
type = Stem;
},
{
horizontal = 1;
place = "{633.62, 21.5}";
type = Stem;
},
{
horizontal = 1;
place = "{715, 22}";
type = Stem;
},
{
horizontal = 1;
place = "{794.25, 20.87}";
type = Stem;
},
{
horizontal = 1;
place = "{871.25, 20.87}";
type = Stem;
},
{
place = "{102.45, 726.54}";
type = Stem;
}
);
layerId = "456D8B29-1305-406A-A7FA-547C067BBBCD";
paths = (
{
closed = 1;
nodes = (
"503.09 0 LINE",
"607.53 89.68 LINE",
"703.46 633.62 LINE",
"753.15 633.62 LINE",
"828.99 803 LINE",
"801.75 803 LINE",
"741.25 655.12 LINE",
"694.56 655.12 LINE",
"628.13 737 LINE",
"304.39 737 LINE",
"199.83 647.21 LINE",
"102.45 94.95 LINE",
"179.42 0 LINE"
);
},
{
closed = 1;
nodes = (
"125.25 99 LINE",
"220.25 638 LINE",
"309.75 715 LINE",
"620 715 LINE",
"682.25 638 LINE",
"587.25 99 LINE",
"497.75 22 LINE",
"187.5 22 LINE"
);
},
{
closed = 1;
nodes = (
"350.12 794.25 LINE",
"360.62 834.87 LINE",
"406.62 871.25 LINE",
"456.75 871.25 LINE",
"519.75 794.25 LINE",
"575.07 794.25 LINE",
"629.58 842.13 LINE",
"639.16 892.12 LINE",
"623.62 892.12 LINE",
"613.25 851.37 LINE",
"567.25 815.12 LINE",
"529.76 815.12 LINE",
"466.65 892.12 LINE",
"398.78 892.12 LINE",
"344.12 843.75 LINE",
"334.43 794.25 LINE"
);
}
);
width = 676;
}
);
note = uni1EE0;
rightKerningGroup = O;
unicode = 1EE0;
},
{
glyphname = Ohungarumlaut;
lastChange = "2019-09-04 12:21:52 +0000";
layers = (
{
hints = (
{
horizontal = 1;
place = "{0, 22}";
type = Stem;
},
{
horizontal = 1;
place = "{715, 22}";
type = Stem;
},
{
horizontal = 1;
place = "{794.25, 138.5}";
type = Stem;
},
{
place = "{102.45, 602.54}";
type = Stem;
}
);
layerId = "456D8B29-1305-406A-A7FA-547C067BBBCD";
paths = (
{
closed = 1;
nodes = (
"503.09 0 LINE",
"607.53 89.68 LINE",
"704.99 642.28 LINE",
"628.13 737 LINE",
"304.39 737 LINE",
"199.83 647.21 LINE",
"102.45 94.95 LINE",
"179.42 0 LINE"
);
},
{
closed = 1;
nodes = (
"125.25 99 LINE",
"220.25 638 LINE",
"309.75 715 LINE",
"620 715 LINE",
"682.25 638 LINE",
"587.25 99 LINE",
"497.75 22 LINE",
"187.5 22 LINE"
);
},
{
closed = 1;
nodes = (
"422.42 794.25 LINE",
"544.15 932.75 LINE",
"508.37 932.75 LINE",
"399.12 794.25 LINE"
);
},
{
closed = 1;
nodes = (
"532.42 794.25 LINE",
"654.15 932.75 LINE",
"618.37 932.75 LINE",
"509.12 794.25 LINE"
);
}
);
width = 676;
}
);
note = Ohungarumlaut;
rightKerningGroup = O;
unicode = 0150;
},
{
glyphname = uni020E;
lastChange = "2019-09-04 12:21:52 +0000";
layers = (
{
hints = (
{
horizontal = 1;
place = "{0, 22}";
type = Stem;
},
{
horizontal = 1;
place = "{715, 22}";
type = Stem;
},
{
horizontal = 1;
place = "{889.87, 20.88}";
type = Stem;
},
{
place = "{102.45, 602.54}";
type = Stem;
}
);
layerId = "456D8B29-1305-406A-A7FA-547C067BBBCD";
paths = (
{
closed = 1;
nodes = (
"503.09 0 LINE",
"607.53 89.68 LINE",
"704.99 642.28 LINE",
"628.13 737 LINE",
"304.39 737 LINE",
"199.83 647.21 LINE",
"102.45 94.95 LINE",
"179.42 0 LINE"
);
},
{
closed = 1;
nodes = (
"125.25 99 LINE",
"220.25 638 LINE",
"309.75 715 LINE",
"620 715 LINE",
"682.25 638 LINE",
"587.25 99 LINE",
"497.75 22 LINE",
"187.5 22 LINE"
);
},
{
closed = 1;
nodes = (
"385.5 794.25 LINE",
"396.25 854.75 LINE",
"437.5 889.87 LINE",
"549.75 889.87 LINE",
"578.75 854.75 LINE",
"568 794.25 LINE",
"589 794.25 LINE",
"600.56 858.99 LINE",
"557.66 910.75 LINE",
"432.04 910.75 LINE",
"376.83 863.7 LINE",
"364.5 794.25 LINE"
);
}
);
width = 676;
}
);
note = uni020E;
rightKerningGroup = O;
unicode = 020E;
},
{
glyphname = Omacron;
lastChange = "2019-09-04 12:21:52 +0000";
layers = (
{
hints = (
{
horizontal = 1;
place = "{0, 22}";
type = Stem;
},
{
horizontal = 1;
place = "{715, 22}";
type = Stem;
},
{
horizontal = 1;
place = "{794.25, 20.87}";
type = Stem;
},
{
place = "{102.45, 602.54}";
type = Stem;
}
);
layerId = "456D8B29-1305-406A-A7FA-547C067BBBCD";
paths = (
{
closed = 1;
nodes = (
"503.09 0 LINE",
"607.53 89.68 LINE",
"704.99 642.28 LINE",
"628.13 737 LINE",
"304.39 737 LINE",
"199.83 647.21 LINE",
"102.45 94.95 LINE",
"179.42 0 LINE"
);
},
{
closed = 1;
nodes = (
"125.25 99 LINE",
"220.25 638 LINE",
"309.75 715 LINE",
"620 715 LINE",
"682.25 638 LINE",
"587.25 99 LINE",
"497.75 22 LINE",
"187.5 22 LINE"
);
},
{
closed = 1;
nodes = (
"620.87 794.25 LINE",
"624.62 815.12 LINE",
"336.37 815.12 LINE",
"332.62 794.25 LINE"
);
}
);
width = 676;
}
);
note = Omacron;
rightKerningGroup = O;
unicode = 014C;
},
{
glyphname = uni01EA;
lastChange = "2019-09-04 12:21:52 +0000";
layers = (
{
hints = (
{
horizontal = 1;
place = "{-138.63, 22}";
type = Stem;
},
{
horizontal = 1;
place = "{0, 22}";
type = Stem;
},
{
horizontal = 1;
place = "{715, 22}";
type = Stem;
},
{
place = "{102.45, 602.54}";
type = Stem;
}
);
layerId = "456D8B29-1305-406A-A7FA-547C067BBBCD";
paths = (
{
closed = 1;
nodes = (
"490.77 -138.63 LINE",
"494.65 -116.63 LINE",
"472.65 -116.63 LINE",
"446.4 -84.75 LINE",
"453.43 -44.88 LINE",
"503.09 0 LINE",
"607.53 89.68 LINE",
"704.99 642.28 LINE",
"628.13 737 LINE",
"304.39 737 LINE",
"199.83 647.21 LINE",
"102.45 94.95 LINE",
"179.42 0 LINE",
"471.62 0 LINE",
"433.3 -34.23 LINE",
"423.68 -88.88 LINE",
"464.53 -138.63 LINE"
);
},
{
closed = 1;
nodes = (
"125.25 99 LINE",
"220.25 638 LINE",
"309.75 715 LINE",
"620 715 LINE",
"682.25 638 LINE",
"587.25 99 LINE",
"497.75 22 LINE",
"187.5 22 LINE"
);
}
);
width = 675;
}
);
note = uni01EA;
rightKerningGroup = O;
unicode = 01EA;
},
{
glyphname = Oslash;
lastChange = "2019-09-04 12:21:52 +0000";
layers = (
{
hints = (
{
horizontal = 1;
place = "{0, 22}";
type = Stem;
},
{
horizontal = 1;
place = "{715, 22}";
type = Stem;
},
{
place = "{102.45, 602.54}";
type = Stem;
}
);
layerId = "456D8B29-1305-406A-A7FA-547C067BBBCD";
paths = (
{
closed = 1;
nodes = (
"503.09 0 LINE",
"607.53 89.68 LINE",
"704.99 642.28 LINE",
"628.13 737 LINE",
"304.39 737 LINE",
"199.83 647.21 LINE",
"102.45 94.95 LINE",
"179.42 0 LINE"
);
},
{
closed = 1;
nodes = (
"162.6 52.8 LINE",
"658.17 667.78 LINE",
"682.25 638 LINE",
"587.25 99 LINE",
"497.75 22 LINE",
"187.5 22 LINE"
);
},
{
closed = 1;
nodes = (
"125.25 99 LINE",
"220.25 638 LINE",
"309.75 715 LINE",
"620 715 LINE",
"643.84 685.51 LINE",
"148.26 70.54 LINE"
);
}
);
width = 676;
}
);
note = Oslash;
rightKerningGroup = O;
unicode = 00D8;
},
{
glyphname = Oslashacute;
lastChange = "2019-09-04 12:21:52 +0000";
layers = (
{
hints = (
{
horizontal = 1;
place = "{0, 22}";
type = Stem;
},
{
horizontal = 1;
place = "{715, 22}";
type = Stem;
},
{
place = "{102.45, 602.54}";
type = Stem;
}
);
layerId = "456D8B29-1305-406A-A7FA-547C067BBBCD";
paths = (
{
closed = 1;
nodes = (
"503.09 0 LINE",
"607.53 89.68 LINE",
"704.99 642.28 LINE",
"628.13 737 LINE",
"304.39 737 LINE",
"199.83 647.21 LINE",
"102.45 94.95 LINE",
"179.42 0 LINE"
);
},
{
closed = 1;
nodes = (
"162.6 52.8 LINE",
"658.17 667.78 LINE",
"682.25 638 LINE",
"587.25 99 LINE",
"497.75 22 LINE",
"187.5 22 LINE"
);
},
{
closed = 1;
nodes = (
"125.25 99 LINE",
"220.25 638 LINE",
"309.75 715 LINE",
"620 715 LINE",
"643.84 685.51 LINE",
"148.26 70.54 LINE"
);
},
{
closed = 1;
nodes = (
"489.54 794.25 LINE",
"611.27 932.75 LINE",
"575.5 932.75 LINE",
"466.25 794.25 LINE"
);
}
);
width = 676;
}
);
note = Oslashacute;
rightKerningGroup = O;
unicode = 01FE;
},
{
glyphname = Otilde;
lastChange = "2019-09-04 12:21:52 +0000";
layers = (
{
hints = (
{
horizontal = 1;
place = "{0, 22}";
type = Stem;
},
{
horizontal = 1;
place = "{715, 22}";
type = Stem;
},
{
horizontal = 1;
place = "{794.25, 20.87}";
type = Stem;
},
{
horizontal = 1;
place = "{871.25, 20.87}";
type = Stem;
},
{
place = "{102.45, 602.54}";
type = Stem;
}
);
layerId = "456D8B29-1305-406A-A7FA-547C067BBBCD";
paths = (
{
closed = 1;
nodes = (
"503.09 0 LINE",
"607.53 89.68 LINE",
"704.99 642.28 LINE",
"628.13 737 LINE",
"304.39 737 LINE",
"199.83 647.21 LINE",
"102.45 94.95 LINE",
"179.42 0 LINE"
);
},
{
closed = 1;
nodes = (
"125.25 99 LINE",
"220.25 638 LINE",
"309.75 715 LINE",
"620 715 LINE",
"682.25 638 LINE",
"587.25 99 LINE",
"497.75 22 LINE",
"187.5 22 LINE"
);
},
{
closed = 1;
nodes = (
"350.12 794.25 LINE",
"360.62 834.87 LINE",
"406.62 871.25 LINE",
"456.75 871.25 LINE",
"519.75 794.25 LINE",
"575.07 794.25 LINE",
"629.58 842.13 LINE",
"639.16 892.12 LINE",
"623.62 892.12 LINE",
"613.25 851.37 LINE",
"567.25 815.12 LINE",
"529.76 815.12 LINE",
"466.65 892.12 LINE",
"398.78 892.12 LINE",
"344.12 843.75 LINE",
"334.43 794.25 LINE"
);
}
);
width = 676;
}
);
note = Otilde;
rightKerningGroup = O;
unicode = 00D5;
},
{
glyphname = uni022C;
lastChange = "2019-09-04 12:21:52 +0000";
layers = (
{
hints = (
{
horizontal = 1;
place = "{0, 22}";
type = Stem;
},
{
horizontal = 1;
place = "{715, 22}";
type = Stem;
},
{
horizontal = 1;
place = "{794.25, 20.87}";
type = Stem;
},
{
horizontal = 1;
place = "{871.25, 20.87}";
type = Stem;
},
{
horizontal = 1;
place = "{924.13, 20.88}";
type = Stem;
},
{
place = "{102.45, 602.54}";
type = Stem;
}
);
layerId = "456D8B29-1305-406A-A7FA-547C067BBBCD";
paths = (
{
closed = 1;
nodes = (
"503.09 0 LINE",
"607.53 89.68 LINE",
"704.99 642.28 LINE",
"628.13 737 LINE",
"304.39 737 LINE",
"199.83 647.21 LINE",
"102.45 94.95 LINE",
"179.42 0 LINE"
);
},
{
closed = 1;
nodes = (
"125.25 99 LINE",
"220.25 638 LINE",
"309.75 715 LINE",
"620 715 LINE",
"682.25 638 LINE",
"587.25 99 LINE",
"497.75 22 LINE",
"187.5 22 LINE"
);
},
{
closed = 1;
nodes = (
"350.12 794.25 LINE",
"360.62 834.87 LINE",
"406.62 871.25 LINE",
"456.75 871.25 LINE",
"519.75 794.25 LINE",
"575.07 794.25 LINE",
"629.58 842.13 LINE",
"639.16 892.12 LINE",
"623.62 892.12 LINE",
"613.25 851.37 LINE",
"567.25 815.12 LINE",
"529.76 815.12 LINE",
"466.65 892.12 LINE",
"398.78 892.12 LINE",
"344.12 843.75 LINE",
"334.43 794.25 LINE"
);
},
{
closed = 1;
nodes = (
"645.75 924.13 LINE",
"649.5 945.01 LINE",
"361.25 945.01 LINE",
"357.5 924.13 LINE"
);
}
);
width = 676;
}
);
note = uni022C;
rightKerningGroup = O;
unicode = 022C;
},
{
glyphname = OE;
lastChange = "2019-09-04 12:26:05 +0000";
layers = (
{
hints = (
{
horizontal = 1;
place = "{0, 22}";
type = Stem;
},
{
horizontal = 1;
place = "{379.5, 22}";
type = Stem;
},
{
horizontal = 1;
place = "{715, 22}";
type = Stem;
},
{
place = "{102.45, 1047.55}";
type = Stem;
}
);
layerId = "456D8B29-1305-406A-A7FA-547C067BBBCD";
paths = (
{
closed = 1;
nodes = (
"503.09 0 LINE",
"580.76 66.68 LINE",
"569 0 LINE",
"1020 0 LINE",
"1023.87 22 LINE",
"595.1 22 LINE",
"658.64 379.5 LINE",
"1027.5 379.5 LINE",
"1031.37 401.5 LINE",
"662.52 401.5 LINE",
"717.29 715 LINE",
"1146.12 715 LINE",
"1150 737 LINE",
"698.95 737 LINE",
"686.31 665.3 LINE",
"628.13 737 LINE",
"304.39 737 LINE",
"199.83 647.21 LINE",
"102.45 94.95 LINE",
"179.42 0 LINE"
);
},
{
closed = 1;
nodes = (
"125.25 99 LINE",
"220.25 638 LINE",
"309.75 715 LINE",
"620 715 LINE",
"681.63 638.76 LINE",
"586.31 98.19 LINE",
"497.75 22 LINE",
"187.5 22 LINE"
);
}
);
width = 1075;
}
);
note = OE;
rightKerningGroup = AE;
unicode = 0152;
},
{
glyphname = P;
lastChange = "2019-09-04 12:21:52 +0000";
layers = (
{
hints = (
{
horizontal = 1;
place = "{313.5, 22}";
type = Stem;
},
{
horizontal = 1;
place = "{715, 22}";
type = Stem;
},
{
place = "{100, 542.24}";
type = Stem;
}
);
layerId = "456D8B29-1305-406A-A7FA-547C067BBBCD";
paths = (
{
closed = 1;
nodes = (
"122.22 0 LINE",
"177.5 313.5 LINE",
"495.57 313.5 LINE",
"600.02 403.18 LINE",
"642.24 642.28 LINE",
"567.7 737 LINE",
"229.95 737 LINE",
"100 0 LINE"
);
},
{
closed = 1;
nodes = (
"248.29 715 LINE",
"557.25 715 LINE",
"619.49 638 LINE",
"579.73 412.5 LINE",
"490.28 335.5 LINE",
"181.38 335.5 LINE"
);
}
);
width = 579;
}
);
leftKerningGroup = B;
note = P;
rightKerningGroup = P;
unicode = 0050;
},
{
glyphname = Thorn;
lastChange = "2019-09-04 12:21:52 +0000";
layers = (
{
hints = (
{
horizontal = 1;
place = "{168.25, 22}";
type = Stem;
},
{
horizontal = 1;
place = "{569.75, 22}";
type = Stem;
},
{
place = "{100, 516.58}";
type = Stem;
}
);
layerId = "456D8B29-1305-406A-A7FA-547C067BBBCD";
paths = (
{
closed = 1;
nodes = (
"122.22 0 LINE",
"151.88 168.25 LINE",
"469.92 168.25 LINE",
"574.36 257.93 LINE",
"616.58 497.03 LINE",
"542.05 591.75 LINE",
"226.56 591.75 LINE",
"252.17 737 LINE",
"229.95 737 LINE",
"100 0 LINE"
);
},
{
closed = 1;
nodes = (
"222.68 569.75 LINE",
"531.59 569.75 LINE",
"593.84 492.75 LINE",
"554.08 267.25 LINE",
"464.63 190.25 LINE",
"155.76 190.25 LINE"
);
}
);
width = 579;
}
);
note = Thorn;
rightKerningGroup = Thorn;
unicode = 00DE;
},
{
glyphname = Q;
lastChange = "2019-09-04 12:21:52 +0000";
layers = (
{
hints = (
{
horizontal = 1;
place = "{0, 22}";
type = Stem;
},
{
horizontal = 1;
place = "{715, 22}";
type = Stem;
},
{
place = "{102.45, 602.54}";
type = Stem;
}
);
layerId = "456D8B29-1305-406A-A7FA-547C067BBBCD";
paths = (
{
closed = 1;
nodes = (
"326.25 -128.75 LINE",
"348.95 0 LINE",
"503.09 0 LINE",
"607.53 89.68 LINE",
"704.99 642.28 LINE",
"628.13 737 LINE",
"304.39 737 LINE",
"199.83 647.21 LINE",
"102.45 94.95 LINE",
"179.42 0 LINE",
"326.95 0 LINE",
"304.25 -128.75 LINE"
);
},
{
closed = 1;
nodes = (
"125.25 99 LINE",
"220.25 638 LINE",
"309.75 715 LINE",
"620 715 LINE",
"682.25 638 LINE",
"587.25 99 LINE",
"497.75 22 LINE",
"352.83 22 LINE",
"374.37 144.12 LINE",
"352.37 144.12 LINE",
"330.83 22 LINE",
"187.5 22 LINE"
);
}
);
width = 676;
}
);
note = Q;
rightKerningGroup = O;
unicode = 0051;
},
{
glyphname = R;
lastChange = "2019-09-04 12:21:52 +0000";
layers = (
{
hints = (
{
horizontal = 1;
place = "{335.5, 22}";
type = Stem;
},
{
horizontal = 1;
place = "{715, 22}";
type = Stem;
},
{
place = "{100, 555.31}";
type = Stem;
}
);
layerId = "456D8B29-1305-406A-A7FA-547C067BBBCD";
paths = (
{
closed = 1;
nodes = (
"122.22 0 LINE",
"181.38 335.5 LINE",
"443.87 335.5 LINE",
"550.5 0 LINE",
"573 0 LINE",
"466.37 335.5 LINE",
"512.7 335.5 LINE",
"617.15 425.18 LINE",
"655.31 642.28 LINE",
"578.45 737 LINE",
"229.95 737 LINE",
"100 0 LINE"
);
},
{
closed = 1;
nodes = (
"248.29 715 LINE",
"570.32 715 LINE",
"632.57 638 LINE",
"596.86 434.5 LINE",
"507.36 357.5 LINE",
"185.25 357.5 LINE"
);
}
);
width = 643;
}
);
leftKerningGroup = B;
note = R;
rightKerningGroup = R;
unicode = 0052;
},
{
glyphname = Racute;
lastChange = "2019-09-04 12:21:52 +0000";
layers = (
{
hints = (
{
horizontal = 1;
place = "{335.5, 22}";
type = Stem;
},
{
horizontal = 1;
place = "{715, 22}";
type = Stem;
},
{
place = "{100, 555.31}";
type = Stem;
}
);
layerId = "456D8B29-1305-406A-A7FA-547C067BBBCD";
paths = (
{
closed = 1;
nodes = (
"122.22 0 LINE",
"181.38 335.5 LINE",
"443.87 335.5 LINE",
"550.5 0 LINE",
"573 0 LINE",
"466.37 335.5 LINE",
"512.7 335.5 LINE",
"617.15 425.18 LINE",
"655.31 642.28 LINE",
"578.45 737 LINE",
"229.95 737 LINE",
"100 0 LINE"
);
},
{
closed = 1;
nodes = (
"248.29 715 LINE",
"570.32 715 LINE",
"632.57 638 LINE",
"596.86 434.5 LINE",
"507.36 357.5 LINE",
"185.25 357.5 LINE"
);
},
{
closed = 1;
nodes = (
"445.29 794.25 LINE",
"567.02 932.75 LINE",
"531.25 932.75 LINE",
"422 794.25 LINE"
);
}
);
width = 643;
}
);
note = Racute;
rightKerningGroup = R;
unicode = 0154;
},
{
glyphname = Rcaron;
lastChange = "2019-09-04 12:21:52 +0000";
layers = (
{
hints = (
{
horizontal = 1;
place = "{335.5, 22}";
type = Stem;
},
{
horizontal = 1;
place = "{715, 22}";
type = Stem;
},
{
horizontal = 1;
place = "{794.24, 19.88}";
type = Stem;
},
{
place = "{100, 555.31}";
type = Stem;
}
);
layerId = "456D8B29-1305-406A-A7FA-547C067BBBCD";
paths = (
{
closed = 1;
nodes = (
"122.22 0 LINE",
"181.38 335.5 LINE",
"443.87 335.5 LINE",
"550.5 0 LINE",
"573 0 LINE",
"466.37 335.5 LINE",
"512.7 335.5 LINE",
"617.15 425.18 LINE",
"655.31 642.28 LINE",
"578.45 737 LINE",
"229.95 737 LINE",
"100 0 LINE"
);
},
{
closed = 1;
nodes = (
"248.29 715 LINE",
"570.32 715 LINE",
"632.57 638 LINE",
"596.86 434.5 LINE",
"507.36 357.5 LINE",
"185.25 357.5 LINE"
);
},
{
closed = 1;
nodes = (
"452.69 794.24 LINE",
"579.97 931.74 LINE",
"556.14 931.74 LINE",
"438.52 814.12 LINE",
"421.02 814.12 LINE",
"344.89 931.74 LINE",
"323.8 931.74 LINE",
"405.55 794.24 LINE"
);
}
);
width = 643;
}
);
note = Rcaron;
rightKerningGroup = R;
unicode = 0158;
},
{
glyphname = uni0156;
lastChange = "2019-09-04 12:21:52 +0000";
layers = (
{
hints = (
{
horizontal = 1;
place = "{335.5, 22}";
type = Stem;
},
{
horizontal = 1;
place = "{715, 22}";
type = Stem;
},
{
place = "{100, 555.31}";
type = Stem;
}
);
layerId = "456D8B29-1305-406A-A7FA-547C067BBBCD";
paths = (
{
closed = 1;
nodes = (
"122.22 0 LINE",
"181.38 335.5 LINE",
"443.87 335.5 LINE",
"550.5 0 LINE",
"573 0 LINE",
"466.37 335.5 LINE",
"512.7 335.5 LINE",
"617.15 425.18 LINE",
"655.31 642.28 LINE",
"578.45 737 LINE",
"229.95 737 LINE",
"100 0 LINE"
);
},
{
closed = 1;
nodes = (
"265.06 -216.75 LINE",
"339.08 -57.25 LINE",
"311.12 -57.25 LINE",
"245.5 -216.75 LINE"
);
},
{
closed = 1;
nodes = (
"248.29 715 LINE",
"570.32 715 LINE",
"632.57 638 LINE",
"596.86 434.5 LINE",
"507.36 357.5 LINE",
"185.25 357.5 LINE"
);
}
);
width = 643;
}
);
note = uni0156;
rightKerningGroup = R;
unicode = 0156;
},
{
glyphname = uni0210;
lastChange = "2019-09-04 12:21:52 +0000";
layers = (
{
hints = (
{
horizontal = 1;
place = "{335.5, 22}";
type = Stem;
},
{
horizontal = 1;
place = "{715, 22}";
type = Stem;
},
{
horizontal = 1;
place = "{794.25, 138.5}";
type = Stem;
},
{
place = "{100, 555.31}";
type = Stem;
}
);
layerId = "456D8B29-1305-406A-A7FA-547C067BBBCD";
paths = (
{
closed = 1;
nodes = (
"122.22 0 LINE",
"181.38 335.5 LINE",
"443.87 335.5 LINE",
"550.5 0 LINE",
"573 0 LINE",
"466.37 335.5 LINE",
"512.7 335.5 LINE",
"617.15 425.18 LINE",
"655.31 642.28 LINE",
"578.45 737 LINE",
"229.95 737 LINE",
"100 0 LINE"
);
},
{
closed = 1;
nodes = (
"248.29 715 LINE",
"570.32 715 LINE",
"632.57 638 LINE",
"596.86 434.5 LINE",
"507.36 357.5 LINE",
"185.25 357.5 LINE"
);
},
{
closed = 1;
nodes = (
"372.83 794.25 LINE",
"312.5 932.75 LINE",
"280.92 932.75 LINE",
"352.58 794.25 LINE"
);
},
{
closed = 1;
nodes = (
"482.83 794.25 LINE",
"422.5 932.75 LINE",
"390.92 932.75 LINE",
"462.58 794.25 LINE"
);
}
);
width = 643;
}
);
note = uni0210;
unicode = 0210;
},
{
glyphname = uni0212;
lastChange = "2019-09-04 12:21:52 +0000";
layers = (
{
hints = (
{
horizontal = 1;
place = "{335.5, 22}";
type = Stem;
},
{
horizontal = 1;
place = "{715, 22}";
type = Stem;
},
{
horizontal = 1;
place = "{889.87, 20.88}";
type = Stem;
},
{
place = "{100, 555.31}";
type = Stem;
}
);
layerId = "456D8B29-1305-406A-A7FA-547C067BBBCD";
paths = (
{
closed = 1;
nodes = (
"122.22 0 LINE",
"181.38 335.5 LINE",
"443.87 335.5 LINE",
"550.5 0 LINE",
"573 0 LINE",
"466.37 335.5 LINE",
"512.7 335.5 LINE",
"617.15 425.18 LINE",
"655.31 642.28 LINE",
"578.45 737 LINE",
"229.95 737 LINE",
"100 0 LINE"
);
},
{
closed = 1;
nodes = (
"248.29 715 LINE",
"570.32 715 LINE",
"632.57 638 LINE",
"596.86 434.5 LINE",
"507.36 357.5 LINE",
"185.25 357.5 LINE"
);
},
{
closed = 1;
nodes = (
"341.25 794.25 LINE",
"352 854.75 LINE",
"393.25 889.87 LINE",
"505.5 889.87 LINE",
"534.5 854.75 LINE",
"523.75 794.25 LINE",
"544.75 794.25 LINE",
"556.31 858.99 LINE",
"513.41 910.75 LINE",
"387.79 910.75 LINE",
"332.58 863.7 LINE",
"320.25 794.25 LINE"
);
}
);
width = 643;
}
);
note = uni0212;
unicode = 0212;
},
{
glyphname = S;
lastChange = "2019-09-04 12:21:52 +0000";
layers = (
{
hints = (
{
horizontal = 1;
place = "{0, 22}";
type = Stem;
},
{
horizontal = 1;
place = "{368.5, 22}";
type = Stem;
},
{
horizontal = 1;
place = "{715, 22}";
type = Stem;
},
{
place = "{103.62, 551.25}";
type = Stem;
}
);
layerId = "456D8B29-1305-406A-A7FA-547C067BBBCD";
paths = (
{
closed = 1;
nodes = (
"470.34 0 LINE",
"574.78 89.68 LINE",
"611.62 298.12 LINE",
"536.62 390.5 LINE",
"241.75 390.5 LINE",
"179.37 467.5 LINE",
"209.5 638 LINE",
"299 715 LINE",
"651 715 LINE",
"654.87 737 LINE",
"293.64 737 LINE",
"189.08 647.21 LINE",
"156.25 460.87 LINE",
"231.25 368.5 LINE",
"526.12 368.5 LINE",
"588.37 291.5 LINE",
"554.5 99 LINE",
"465 22 LINE",
"107.5 22 LINE",
"103.62 0 LINE"
);
}
);
width = 634;
}
);
leftKerningGroup = S;
note = S;
rightKerningGroup = S;
unicode = 0053;
},
{
glyphname = Sacute;
lastChange = "2019-09-04 12:21:52 +0000";
layers = (
{
hints = (
{
horizontal = 1;
place = "{0, 22}";
type = Stem;
},
{
horizontal = 1;
place = "{368.5, 22}";
type = Stem;
},
{
horizontal = 1;
place = "{715, 22}";
type = Stem;
},
{
place = "{103.62, 551.25}";
type = Stem;
}
);
layerId = "456D8B29-1305-406A-A7FA-547C067BBBCD";
paths = (
{
closed = 1;
nodes = (
"470.34 0 LINE",
"574.78 89.68 LINE",
"611.62 298.12 LINE",
"536.62 390.5 LINE",
"241.75 390.5 LINE",
"179.37 467.5 LINE",
"209.5 638 LINE",
"299 715 LINE",
"651 715 LINE",
"654.87 737 LINE",
"293.64 737 LINE",
"189.08 647.21 LINE",
"156.25 460.87 LINE",
"231.25 368.5 LINE",
"526.12 368.5 LINE",
"588.37 291.5 LINE",
"554.5 99 LINE",
"465 22 LINE",
"107.5 22 LINE",
"103.62 0 LINE"
);
},
{
closed = 1;
nodes = (
"464.29 794.25 LINE",
"586.02 932.75 LINE",
"550.25 932.75 LINE",
"441 794.25 LINE"
);
}
);
width = 634;
}
);
leftKerningGroup = S;
note = Sacute;
rightKerningGroup = S;
unicode = 015A;
},
{
glyphname = Scaron;
lastChange = "2019-09-04 12:21:52 +0000";
layers = (
{
hints = (
{
horizontal = 1;
place = "{0, 22}";
type = Stem;
},
{
horizontal = 1;
place = "{368.5, 22}";
type = Stem;
},
{
horizontal = 1;
place = "{715, 22}";
type = Stem;
},
{
horizontal = 1;
place = "{794.24, 19.88}";
type = Stem;
},
{
place = "{103.62, 551.25}";
type = Stem;
}
);
layerId = "456D8B29-1305-406A-A7FA-547C067BBBCD";
paths = (
{
closed = 1;
nodes = (
"470.34 0 LINE",
"574.78 89.68 LINE",
"611.62 298.12 LINE",
"536.62 390.5 LINE",
"241.75 390.5 LINE",
"179.37 467.5 LINE",
"209.5 638 LINE",
"299 715 LINE",
"651 715 LINE",
"654.87 737 LINE",
"293.64 737 LINE",
"189.08 647.21 LINE",
"156.25 460.87 LINE",
"231.25 368.5 LINE",
"526.12 368.5 LINE",
"588.37 291.5 LINE",
"554.5 99 LINE",
"465 22 LINE",
"107.5 22 LINE",
"103.62 0 LINE"
);
},
{
closed = 1;
nodes = (
"471.69 794.24 LINE",
"598.97 931.74 LINE",
"575.14 931.74 LINE",
"457.52 814.12 LINE",
"440.02 814.12 LINE",
"363.89 931.74 LINE",
"342.8 931.74 LINE",
"424.55 794.24 LINE"
);
}
);
width = 634;
}
);
leftKerningGroup = S;
note = Scaron;
rightKerningGroup = S;
unicode = 0160;
},
{
glyphname = Scedilla;
lastChange = "2019-09-04 12:21:52 +0000";
layers = (
{
hints = (
{
horizontal = 1;
place = "{0, 22}";
type = Stem;
},
{
horizontal = 1;
place = "{368.5, 22}";
type = Stem;
},
{
horizontal = 1;
place = "{715, 22}";
type = Stem;
},
{
place = "{103.62, 551.25}";
type = Stem;
}
);
layerId = "456D8B29-1305-406A-A7FA-547C067BBBCD";
paths = (
{
closed = 1;
nodes = (
"262.1 -132 LINE",
"323.92 0 LINE",
"470.34 0 LINE",
"574.78 89.68 LINE",
"611.62 298.12 LINE",
"536.62 390.5 LINE",
"241.75 390.5 LINE",
"179.37 467.5 LINE",
"209.5 638 LINE",
"299 715 LINE",
"651 715 LINE",
"654.87 737 LINE",
"293.64 737 LINE",
"189.08 647.21 LINE",
"156.25 460.87 LINE",
"231.25 368.5 LINE",
"526.12 368.5 LINE",
"588.37 291.5 LINE",
"554.5 99 LINE",
"465 22 LINE",
"107.5 22 LINE",
"103.62 0 LINE",
"299.37 0 LINE",
"238.75 -132 LINE"
);
}
);
width = 634;
}
);
leftKerningGroup = S;
note = Scedilla;
rightKerningGroup = S;
unicode = 015E;
},
{
glyphname = Scircumflex;
lastChange = "2019-09-04 12:21:52 +0000";
layers = (
{
hints = (
{
horizontal = 1;
place = "{0, 22}";
type = Stem;
},
{
horizontal = 1;
place = "{368.5, 22}";
type = Stem;
},
{
horizontal = 1;
place = "{715, 22}";
type = Stem;
},
{
horizontal = 1;
place = "{911.87, 19.88}";
type = Stem;
},
{
place = "{103.62, 551.25}";
type = Stem;
}
);
layerId = "456D8B29-1305-406A-A7FA-547C067BBBCD";
paths = (
{
closed = 1;
nodes = (
"470.34 0 LINE",
"574.78 89.68 LINE",
"611.62 298.12 LINE",
"536.62 390.5 LINE",
"241.75 390.5 LINE",
"179.37 467.5 LINE",
"209.5 638 LINE",
"299 715 LINE",
"651 715 LINE",
"654.87 737 LINE",
"293.64 737 LINE",
"189.08 647.21 LINE",
"156.25 460.87 LINE",
"231.25 368.5 LINE",
"526.12 368.5 LINE",
"588.37 291.5 LINE",
"554.5 99 LINE",
"465 22 LINE",
"107.5 22 LINE",
"103.62 0 LINE"
);
},
{
closed = 1;
nodes = (
"343.87 794.25 LINE",
"461.5 911.87 LINE",
"479 911.87 LINE",
"555.12 794.25 LINE",
"576.22 794.25 LINE",
"494.47 931.75 LINE",
"447.33 931.75 LINE",
"320.05 794.25 LINE"
);
}
);
width = 634;
}
);
note = Scircumflex;
unicode = 015C;
},
{
glyphname = uni0218;
lastChange = "2019-09-04 12:21:52 +0000";
layers = (
{
hints = (
{
horizontal = 1;
place = "{0, 22}";
type = Stem;
},
{
horizontal = 1;
place = "{368.5, 22}";
type = Stem;
},
{
horizontal = 1;
place = "{715, 22}";
type = Stem;
},
{
place = "{103.62, 551.25}";
type = Stem;
}
);
layerId = "456D8B29-1305-406A-A7FA-547C067BBBCD";
paths = (
{
closed = 1;
nodes = (
"470.34 0 LINE",
"574.78 89.68 LINE",
"611.62 298.12 LINE",
"536.62 390.5 LINE",
"241.75 390.5 LINE",
"179.37 467.5 LINE",
"209.5 638 LINE",
"299 715 LINE",
"651 715 LINE",
"654.87 737 LINE",
"293.64 737 LINE",
"189.08 647.21 LINE",
"156.25 460.87 LINE",
"231.25 368.5 LINE",
"526.12 368.5 LINE",
"588.37 291.5 LINE",
"554.5 99 LINE",
"465 22 LINE",
"107.5 22 LINE",
"103.62 0 LINE"
);
},
{
closed = 1;
nodes = (
"242.31 -216.75 LINE",
"316.33 -57.25 LINE",
"288.37 -57.25 LINE",
"222.75 -216.75 LINE"
);
}
);
width = 634;
}
);
leftKerningGroup = S;
note = uni0218;
rightKerningGroup = S;
unicode = 0218;
},
{
glyphname = uni1E9E;
lastChange = "2019-09-04 12:21:52 +0000";
layers = (
{
hints = (
{
horizontal = 1;
place = "{0, 22}";
type = Stem;
},
{
horizontal = 1;
place = "{403.75, 22}";
type = Stem;
},
{
horizontal = 1;
place = "{715, 22}";
type = Stem;
},
{
place = "{100, 538.72}";
type = Stem;
}
);
layerId = "456D8B29-1305-406A-A7FA-547C067BBBCD";
paths = (
{
closed = 1;
nodes = (
"122 0 LINE",
"234.5 638 LINE",
"324 715 LINE",
"544 715 LINE",
"606.25 637.87 LINE",
"370.62 425.75 LINE",
"366.75 403.75 LINE",
"527.75 403.75 LINE",
"616 287.87 LINE",
"582.75 99 LINE",
"493.25 22 LINE",
"309.5 22 LINE",
"231 118.75 LINE",
"215.61 105.85 LINE",
"301.42 0 LINE",
"498.59 0 LINE",
"603.03 89.68 LINE",
"638.72 291.99 LINE",
"536.31 425.75 LINE",
"398.25 425.75 LINE",
"627.25 632 LINE",
"628.99 642.28 LINE",
"552.13 737 LINE",
"318.64 737 LINE",
"214.08 647.21 LINE",
"100 0 LINE"
);
}
);
width = 662;
}
);
note = uni1E9E;
unicode = 1E9E;
},
{
glyphname = uni018F;
lastChange = "2019-09-04 12:21:52 +0000";
layers = (
{
hints = (
{
horizontal = 1;
place = "{0, 22}";
type = Stem;
},
{
horizontal = 1;
place = "{359.75, 20.75}";
type = Stem;
},
{
horizontal = 1;
place = "{715, 22}";
type = Stem;
},
{
place = "{102.46, 668.53}";
type = Stem;
}
);
layerId = "456D8B29-1305-406A-A7FA-547C067BBBCD";
paths = (
{
closed = 1;
nodes = (
"569.09 0 LINE",
"673.54 89.68 LINE",
"770.99 642.28 LINE",
"694.13 737 LINE",
"226.75 737 LINE",
"222.88 715 LINE",
"686 715 LINE",
"748.25 638 LINE",
"702.87 380.5 LINE",
"152.88 380.5 LINE",
"102.46 94.95 LINE",
"179.42 0 LINE"
);
},
{
closed = 1;
nodes = (
"125.25 99 LINE",
"171.25 359.75 LINE",
"699.21 359.75 LINE",
"653.25 99 LINE",
"563.75 22 LINE",
"187.5 22 LINE"
);
}
);
width = 742;
}
);
note = uni018F;
unicode = 018F;
},
{
glyphname = T;
lastChange = "2019-09-04 12:21:52 +0000";
layers = (
{
hints = (
{
horizontal = 1;
place = "{715, 22}";
type = Stem;
},
{
place = "{136.12, 519.88}";
type = Stem;
}
);
layerId = "456D8B29-1305-406A-A7FA-547C067BBBCD";
paths = (
{
closed = 1;
nodes = (
"279.72 0 LINE",
"405.79 715 LINE",
"652.12 715 LINE",
"656 737 LINE",
"140 737 LINE",
"136.12 715 LINE",
"383.57 715 LINE",
"257.5 0 LINE"
);
}
);
width = 536;
}
);
leftKerningGroup = T;
note = T;
rightKerningGroup = T;
unicode = 0054;
},
{
glyphname = Tbar;
lastChange = "2019-09-04 12:21:52 +0000";
layers = (
{
hints = (
{
horizontal = 1;
place = "{389.37, 22}";
type = Stem;
},
{
horizontal = 1;
place = "{715, 22}";
type = Stem;
},
{
place = "{136.12, 519.88}";
type = Stem;
}
);
layerId = "456D8B29-1305-406A-A7FA-547C067BBBCD";
paths = (
{
closed = 1;
nodes = (
"279.72 0 LINE",
"348.37 389.37 LINE",
"523.62 389.37 LINE",
"527.5 411.37 LINE",
"352.25 411.37 LINE",
"405.79 715 LINE",
"652.12 715 LINE",
"656 737 LINE",
"140 737 LINE",
"136.12 715 LINE",
"383.57 715 LINE",
"330.03 411.37 LINE",
"153.5 411.37 LINE",
"149.62 389.37 LINE",
"326.15 389.37 LINE",
"257.5 0 LINE"
);
}
);
width = 536;
}
);
leftKerningGroup = T;
note = Tbar;
rightKerningGroup = T;
unicode = 0166;
},
{
glyphname = Tcaron;
lastChange = "2019-09-04 12:21:52 +0000";
layers = (
{
hints = (
{
horizontal = 1;
place = "{715, 22}";
type = Stem;
},
{
horizontal = 1;
place = "{794.24, 19.88}";
type = Stem;
},
{
place = "{136.12, 519.88}";
type = Stem;
}
);
layerId = "456D8B29-1305-406A-A7FA-547C067BBBCD";
paths = (
{
closed = 1;
nodes = (
"279.72 0 LINE",
"405.79 715 LINE",
"652.12 715 LINE",
"656 737 LINE",
"140 737 LINE",
"136.12 715 LINE",
"383.57 715 LINE",
"257.5 0 LINE"
);
},
{
closed = 1;
nodes = (
"428.69 794.24 LINE",
"555.97 931.74 LINE",
"532.14 931.74 LINE",
"414.52 814.12 LINE",
"397.02 814.12 LINE",
"320.89 931.74 LINE",
"299.8 931.74 LINE",
"381.55 794.24 LINE"
);
}
);
width = 536;
}
);
leftKerningGroup = T;
note = Tcaron;
rightKerningGroup = T;
unicode = 0164;
},
{
glyphname = uni0162;
lastChange = "2019-09-04 12:21:52 +0000";
layers = (
{
hints = (
{
horizontal = 1;
place = "{715, 22}";
type = Stem;
},
{
place = "{136.12, 519.88}";
type = Stem;
}
);
layerId = "456D8B29-1305-406A-A7FA-547C067BBBCD";
paths = (
{
closed = 1;
nodes = (
"217.72 -132 LINE",
"279.72 0 LINE",
"405.79 715 LINE",
"652.12 715 LINE",
"656 737 LINE",
"140 737 LINE",
"136.12 715 LINE",
"383.57 715 LINE",
"257.5 0 LINE",
"196.85 -132 LINE"
);
}
);
width = 536;
}
);
leftKerningGroup = T;
note = uni0162;
rightKerningGroup = T;
unicode = 0162;
},
{
glyphname = uni021A;
lastChange = "2019-09-04 12:21:52 +0000";
layers = (
{
hints = (
{
horizontal = 1;
place = "{715, 22}";
type = Stem;
},
{
place = "{136.12, 519.88}";
type = Stem;
}
);
layerId = "456D8B29-1305-406A-A7FA-547C067BBBCD";
paths = (
{
closed = 1;
nodes = (
"279.72 0 LINE",
"405.79 715 LINE",
"652.12 715 LINE",
"656 737 LINE",
"140 737 LINE",
"136.12 715 LINE",
"383.57 715 LINE",
"257.5 0 LINE"
);
},
{
closed = 1;
nodes = (
"199.31 -216.75 LINE",
"273.33 -57.25 LINE",
"245.37 -57.25 LINE",
"179.75 -216.75 LINE"
);
}
);
width = 536;
}
);
leftKerningGroup = T;
note = uni021A;
rightKerningGroup = T;
unicode = 021A;
},
{
glyphname = U;
lastChange = "2019-09-04 12:21:52 +0000";
layers = (
{
hints = (
{
horizontal = 1;
place = "{0, 22}";
type = Stem;
},
{
place = "{104.71, 616.99}";
type = Stem;
}
);
layerId = "456D8B29-1305-406A-A7FA-547C067BBBCD";
paths = (
{
closed = 1;
nodes = (
"503.05 0 LINE",
"607.49 89.68 LINE",
"721.7 737 LINE",
"699.7 737 LINE",
"587.2 99 LINE",
"497.7 22 LINE",
"189.75 22 LINE",
"127.5 99 LINE",
"239.95 737 LINE",
"217.95 737 LINE",
"104.71 94.95 LINE",
"181.67 0 LINE"
);
}
);
width = 684;
}
);
note = U;
unicode = 0055;
},
{
glyphname = Uacute;
lastChange = "2019-09-04 12:21:52 +0000";
layers = (
{
hints = (
{
horizontal = 1;
place = "{0, 22}";
type = Stem;
},
{
place = "{104.71, 616.99}";
type = Stem;
}
);
layerId = "456D8B29-1305-406A-A7FA-547C067BBBCD";
paths = (
{
closed = 1;
nodes = (
"503.05 0 LINE",
"607.49 89.68 LINE",
"721.7 737 LINE",
"699.7 737 LINE",
"587.2 99 LINE",
"497.7 22 LINE",
"189.75 22 LINE",
"127.5 99 LINE",
"239.95 737 LINE",
"217.95 737 LINE",
"104.71 94.95 LINE",
"181.67 0 LINE"
);
},
{
closed = 1;
nodes = (
"489.67 794.25 LINE",
"611.4 932.75 LINE",
"575.62 932.75 LINE",
"466.37 794.25 LINE"
);
}
);
width = 684;
}
);
note = Uacute;
unicode = 00DA;
},
{
glyphname = Ubreve;
lastChange = "2019-09-04 12:21:52 +0000";
layers = (
{
hints = (
{
horizontal = 1;
place = "{0, 22}";
type = Stem;
},
{
horizontal = 1;
place = "{794.25, 20.87}";
type = Stem;
},
{
place = "{104.71, 616.99}";
type = Stem;
}
);
layerId = "456D8B29-1305-406A-A7FA-547C067BBBCD";
paths = (
{
closed = 1;
nodes = (
"503.05 0 LINE",
"607.49 89.68 LINE",
"721.7 737 LINE",
"699.7 737 LINE",
"587.2 99 LINE",
"497.7 22 LINE",
"189.75 22 LINE",
"127.5 99 LINE",
"239.95 737 LINE",
"217.95 737 LINE",
"104.71 94.95 LINE",
"181.67 0 LINE"
);
},
{
closed = 1;
nodes = (
"538.19 794.25 LINE",
"593.32 841.18 LINE",
"605.75 910.75 LINE",
"584.75 910.75 LINE",
"574 850.25 LINE",
"532.75 815.12 LINE",
"420.5 815.12 LINE",
"391.5 850.25 LINE",
"402.25 910.75 LINE",
"381.25 910.75 LINE",
"369.7 845.44 LINE",
"412.36 794.25 LINE"
);
}
);
width = 684;
}
);
note = Ubreve;
unicode = 016C;
},
{
glyphname = Ucircumflex;
lastChange = "2019-09-04 12:21:52 +0000";
layers = (
{
hints = (
{
horizontal = 1;
place = "{0, 22}";
type = Stem;
},
{
horizontal = 1;
place = "{911.87, 19.88}";
type = Stem;
},
{
place = "{104.71, 616.99}";
type = Stem;
}
);
layerId = "456D8B29-1305-406A-A7FA-547C067BBBCD";
paths = (
{
closed = 1;
nodes = (
"503.05 0 LINE",
"607.49 89.68 LINE",
"721.7 737 LINE",
"699.7 737 LINE",
"587.2 99 LINE",
"497.7 22 LINE",
"189.75 22 LINE",
"127.5 99 LINE",
"239.95 737 LINE",
"217.95 737 LINE",
"104.71 94.95 LINE",
"181.67 0 LINE"
);
},
{
closed = 1;
nodes = (
"369.25 794.25 LINE",
"486.87 911.87 LINE",
"504.37 911.87 LINE",
"580.5 794.25 LINE",
"601.59 794.25 LINE",
"519.84 931.75 LINE",
"472.7 931.75 LINE",
"345.42 794.25 LINE"
);
}
);
width = 684;
}
);
note = Ucircumflex;
unicode = 00DB;
},
{
glyphname = uni0214;
lastChange = "2019-09-04 12:21:52 +0000";
layers = (
{
hints = (
{
horizontal = 1;
place = "{0, 22}";
type = Stem;
},
{
horizontal = 1;
place = "{794.25, 138.5}";
type = Stem;
},
{
place = "{104.71, 616.99}";
type = Stem;
}
);
layerId = "456D8B29-1305-406A-A7FA-547C067BBBCD";
paths = (
{
closed = 1;
nodes = (
"503.05 0 LINE",
"607.49 89.68 LINE",
"721.7 737 LINE",
"699.7 737 LINE",
"587.2 99 LINE",
"497.7 22 LINE",
"189.75 22 LINE",
"127.5 99 LINE",
"239.95 737 LINE",
"217.95 737 LINE",
"104.71 94.95 LINE",
"181.67 0 LINE"
);
},
{
closed = 1;
nodes = (
"417.2 794.25 LINE",
"356.87 932.75 LINE",
"325.3 932.75 LINE",
"396.95 794.25 LINE"
);
},
{
closed = 1;
nodes = (
"527.2 794.25 LINE",
"466.87 932.75 LINE",
"435.3 932.75 LINE",
"506.95 794.25 LINE"
);
}
);
width = 684;
}
);
note = uni0214;
unicode = 0214;
},
{
glyphname = Udieresis;
lastChange = "2019-09-04 12:21:52 +0000";
layers = (
{
hints = (
{
horizontal = 1;
place = "{0, 22}";
type = Stem;
},
{
horizontal = 1;
place = "{794.25, 103.5}";
type = Stem;
},
{
place = "{104.71, 616.99}";
type = Stem;
}
);
layerId = "456D8B29-1305-406A-A7FA-547C067BBBCD";
paths = (
{
closed = 1;
nodes = (
"503.05 0 LINE",
"607.49 89.68 LINE",
"721.7 737 LINE",
"699.7 737 LINE",
"587.2 99 LINE",
"497.7 22 LINE",
"189.75 22 LINE",
"127.5 99 LINE",
"239.95 737 LINE",
"217.95 737 LINE",
"104.71 94.95 LINE",
"181.67 0 LINE"
);
},
{
closed = 1;
nodes = (
"352.75 794.25 LINE",
"371 897.75 LINE",
"349 897.75 LINE",
"330.75 794.25 LINE"
);
},
{
closed = 1;
nodes = (
"619 794.25 LINE",
"637.25 897.75 LINE",
"615.25 897.75 LINE",
"597 794.25 LINE"
);
}
);
width = 684;
}
);
note = Udieresis;
unicode = 00DC;
},
{
glyphname = uni1EE4;
lastChange = "2019-09-04 12:21:52 +0000";
layers = (
{
hints = (
{
horizontal = 1;
place = "{0, 22}";
type = Stem;
},
{
place = "{104.71, 616.99}";
type = Stem;
}
);
layerId = "456D8B29-1305-406A-A7FA-547C067BBBCD";
paths = (
{
closed = 1;
nodes = (
"503.05 0 LINE",
"607.49 89.68 LINE",
"721.7 737 LINE",
"699.7 737 LINE",
"587.2 99 LINE",
"497.7 22 LINE",
"189.75 22 LINE",
"127.5 99 LINE",
"239.95 737 LINE",
"217.95 737 LINE",
"104.71 94.95 LINE",
"181.67 0 LINE"
);
},
{
closed = 1;
nodes = (
"322.31 -160.63 LINE",
"340.56 -57.25 LINE",
"318.56 -57.25 LINE",
"300.31 -160.63 LINE"
);
}
);
width = 684;
}
);
note = uni1EE4;
unicode = 1EE4;
},
{
glyphname = Ugrave;
lastChange = "2019-09-04 12:21:52 +0000";
layers = (
{
hints = (
{
horizontal = 1;
place = "{0, 22}";
type = Stem;
},
{
horizontal = 1;
place = "{794.25, 138.5}";
type = Stem;
},
{
place = "{104.71, 616.99}";
type = Stem;
}
);
layerId = "456D8B29-1305-406A-A7FA-547C067BBBCD";
paths = (
{
closed = 1;
nodes = (
"503.05 0 LINE",
"607.49 89.68 LINE",
"721.7 737 LINE",
"699.7 737 LINE",
"587.2 99 LINE",
"497.7 22 LINE",
"189.75 22 LINE",
"127.5 99 LINE",
"239.95 737 LINE",
"217.95 737 LINE",
"104.71 94.95 LINE",
"181.67 0 LINE"
);
},
{
closed = 1;
nodes = (
"472.22 794.25 LINE",
"411.9 932.75 LINE",
"380.32 932.75 LINE",
"451.98 794.25 LINE"
);
}
);
width = 684;
}
);
note = Ugrave;
unicode = 00D9;
},
{
glyphname = uni1EE6;
lastChange = "2019-09-04 12:21:52 +0000";
layers = (
{
hints = (
{
horizontal = 1;
place = "{0, 22}";
type = Stem;
},
{
horizontal = 1;
place = "{961, 21.62}";
type = Stem;
},
{
place = "{467, 20.48}";
type = Stem;
}
);
layerId = "456D8B29-1305-406A-A7FA-547C067BBBCD";
paths = (
{
closed = 1;
nodes = (
"503.05 -0.01 LINE",
"607.49 89.67 LINE",
"721.7 736.99 LINE",
"699.7 736.99 LINE",
"587.2 98.99 LINE",
"497.7 21.99 LINE",
"189.75 21.99 LINE",
"127.5 98.99 LINE",
"239.95 736.99 LINE",
"217.95 736.99 LINE",
"104.71 94.94 LINE",
"181.67 -0.01 LINE"
);
},
{
closed = 1;
nodes = (
"485.12 794.25 LINE",
"489.85 820.3 LINE",
"569.02 886.42 LINE",
"579.61 946.42 LINE",
"551.46 982.61 LINE",
"477.59 982.61 LINE",
"434.44 943.54 LINE",
"448.75 927.61 LINE",
"485.87 960.99 LINE",
"541.12 960.99 LINE",
"557.12 940.36 LINE",
"549.5 897.36 LINE",
"470.25 830.99 LINE",
"463.75 794.25 LINE"
);
}
);
width = 684;
}
);
note = uni1EE6;
unicode = 1EE6;
},
{
glyphname = Uhorn;
lastChange = "2019-09-04 12:21:52 +0000";
layers = (
{
hints = (
{
horizontal = 1;
place = "{0, 22}";
type = Stem;
},
{
horizontal = 1;
place = "{633.62, 21.5}";
type = Stem;
},
{
place = "{104.71, 739.15}";
type = Stem;
}
);
layerId = "456D8B29-1305-406A-A7FA-547C067BBBCD";
paths = (
{
closed = 1;
nodes = (
"503.05 0 LINE",
"607.49 89.68 LINE",
"703.46 633.62 LINE",
"768.03 633.62 LINE",
"843.86 803 LINE",
"816.62 803 LINE",
"756.12 655.12 LINE",
"707.25 655.12 LINE",
"721.7 737 LINE",
"699.7 737 LINE",
"587.2 99 LINE",
"497.7 22 LINE",
"189.75 22 LINE",
"127.5 99 LINE",
"239.95 737 LINE",
"217.95 737 LINE",
"104.71 94.95 LINE",
"181.67 0 LINE"
);
}
);
width = 684;
}
);
note = Uhorn;
unicode = 01AF;
},
{
glyphname = uni1EE8;
lastChange = "2019-09-04 12:21:52 +0000";
layers = (
{
hints = (
{
horizontal = 1;
place = "{0, 22}";
type = Stem;
},
{
horizontal = 1;
place = "{633.62, 21.5}";
type = Stem;
},
{
place = "{104.71, 739.15}";
type = Stem;
}
);
layerId = "456D8B29-1305-406A-A7FA-547C067BBBCD";
paths = (
{
closed = 1;
nodes = (
"503.05 0 LINE",
"607.49 89.68 LINE",
"703.46 633.62 LINE",
"768.03 633.62 LINE",
"843.86 803 LINE",
"816.62 803 LINE",
"756.12 655.12 LINE",
"707.25 655.12 LINE",
"721.7 737 LINE",
"699.7 737 LINE",
"587.2 99 LINE",
"497.7 22 LINE",
"189.75 22 LINE",
"127.5 99 LINE",
"239.95 737 LINE",
"217.95 737 LINE",
"104.71 94.95 LINE",
"181.67 0 LINE"
);
},
{
closed = 1;
nodes = (
"489.67 794.25 LINE",
"611.4 932.75 LINE",
"575.62 932.75 LINE",
"466.37 794.25 LINE"
);
}
);
width = 684;
}
);
note = uni1EE8;
unicode = 1EE8;
},
{
glyphname = uni1EF0;
lastChange = "2019-09-04 12:21:52 +0000";
layers = (
{
hints = (
{
horizontal = 1;
place = "{0, 22}";
type = Stem;
},
{
horizontal = 1;
place = "{633.62, 21.5}";
type = Stem;
},
{
place = "{104.71, 739.15}";
type = Stem;
}
);
layerId = "456D8B29-1305-406A-A7FA-547C067BBBCD";
paths = (
{
closed = 1;
nodes = (
"503.05 0 LINE",
"607.49 89.68 LINE",
"703.46 633.62 LINE",
"768.03 633.62 LINE",
"843.86 803 LINE",
"816.62 803 LINE",
"756.12 655.12 LINE",
"707.25 655.12 LINE",
"721.7 737 LINE",
"699.7 737 LINE",
"587.2 99 LINE",
"497.7 22 LINE",
"189.75 22 LINE",
"127.5 99 LINE",
"239.95 737 LINE",
"217.95 737 LINE",
"104.71 94.95 LINE",
"181.67 0 LINE"
);
},
{
closed = 1;
nodes = (
"322.31 -160.63 LINE",
"340.56 -57.25 LINE",
"318.56 -57.25 LINE",
"300.31 -160.63 LINE"
);
}
);
width = 684;
}
);
note = uni1EF0;
unicode = 1EF0;
},
{
glyphname = uni1EEA;
lastChange = "2019-09-04 12:21:52 +0000";
layers = (
{
hints = (
{
horizontal = 1;
place = "{0, 22}";
type = Stem;
},
{
horizontal = 1;
place = "{633.62, 21.5}";
type = Stem;
},
{
horizontal = 1;
place = "{794.25, 138.5}";
type = Stem;
},
{
place = "{104.71, 739.15}";
type = Stem;
}
);
layerId = "456D8B29-1305-406A-A7FA-547C067BBBCD";
paths = (
{
closed = 1;
nodes = (
"503.05 0 LINE",
"607.49 89.68 LINE",
"703.46 633.62 LINE",
"768.03 633.62 LINE",
"843.86 803 LINE",
"816.62 803 LINE",
"756.12 655.12 LINE",
"707.25 655.12 LINE",
"721.7 737 LINE",
"699.7 737 LINE",
"587.2 99 LINE",
"497.7 22 LINE",
"189.75 22 LINE",
"127.5 99 LINE",
"239.95 737 LINE",
"217.95 737 LINE",
"104.71 94.95 LINE",
"181.67 0 LINE"
);
},
{
closed = 1;
nodes = (
"472.22 794.25 LINE",
"411.9 932.75 LINE",
"380.32 932.75 LINE",
"451.98 794.25 LINE"
);
}
);
width = 684;
}
);
note = uni1EEA;
unicode = 1EEA;
},
{
glyphname = uni1EEC;
lastChange = "2019-09-04 12:21:52 +0000";
layers = (
{
hints = (
{
horizontal = 1;
place = "{0, 22}";
type = Stem;
},
{
horizontal = 1;
place = "{633.62, 21.5}";
type = Stem;
},
{
horizontal = 1;
place = "{961, 21.62}";
type = Stem;
},
{
place = "{467, 20.48}";
type = Stem;
}
);
layerId = "456D8B29-1305-406A-A7FA-547C067BBBCD";
paths = (
{
closed = 1;
nodes = (
"503.05 -0.01 LINE",
"607.49 89.67 LINE",
"703.46 633.61 LINE",
"768.03 633.61 LINE",
"843.86 802.99 LINE",
"816.62 802.99 LINE",
"756.12 655.11 LINE",
"707.25 655.11 LINE",
"721.7 736.99 LINE",
"699.7 736.99 LINE",
"587.2 98.99 LINE",
"497.7 21.99 LINE",
"189.75 21.99 LINE",
"127.5 98.99 LINE",
"239.95 736.99 LINE",
"217.95 736.99 LINE",
"104.71 94.94 LINE",
"181.67 -0.01 LINE"
);
},
{
closed = 1;
nodes = (
"485.12 794.25 LINE",
"489.85 820.3 LINE",
"569.02 886.42 LINE",
"579.61 946.42 LINE",
"551.46 982.61 LINE",
"477.59 982.61 LINE",
"434.44 943.54 LINE",
"448.75 927.61 LINE",
"485.87 961 LINE",
"541.12 961 LINE",
"557.12 940.37 LINE",
"549.5 897.37 LINE",
"470.25 831 LINE",
"463.75 794.25 LINE"
);
}
);
width = 684;
}
);
note = uni1EEC;
unicode = 1EEC;
},
{
glyphname = uni1EEE;
lastChange = "2019-09-04 12:21:52 +0000";
layers = (
{
hints = (
{
horizontal = 1;
place = "{0, 22}";
type = Stem;
},
{
horizontal = 1;
place = "{633.62, 21.5}";
type = Stem;
},
{
horizontal = 1;
place = "{794.25, 20.87}";
type = Stem;
},
{
horizontal = 1;
place = "{871.25, 20.87}";
type = Stem;
},
{
place = "{104.71, 739.15}";
type = Stem;
}
);
layerId = "456D8B29-1305-406A-A7FA-547C067BBBCD";
paths = (
{
closed = 1;
nodes = (
"503.05 0 LINE",
"607.49 89.68 LINE",
"703.46 633.62 LINE",
"768.03 633.62 LINE",
"843.86 803 LINE",
"816.62 803 LINE",
"756.12 655.12 LINE",
"707.25 655.12 LINE",
"721.7 737 LINE",
"699.7 737 LINE",
"587.2 99 LINE",
"497.7 22 LINE",
"189.75 22 LINE",
"127.5 99 LINE",
"239.95 737 LINE",
"217.95 737 LINE",
"104.71 94.95 LINE",
"181.67 0 LINE"
);
},
{
closed = 1;
nodes = (
"350.25 794.25 LINE",
"360.75 834.87 LINE",
"406.75 871.25 LINE",
"456.88 871.25 LINE",
"519.88 794.25 LINE",
"575.19 794.25 LINE",
"629.7 842.13 LINE",
"639.29 892.12 LINE",
"623.75 892.12 LINE",
"613.37 851.37 LINE",
"567.37 815.12 LINE",
"529.89 815.12 LINE",
"466.78 892.12 LINE",
"398.9 892.12 LINE",
"344.24 843.75 LINE",
"334.56 794.25 LINE"
);
}
);
width = 684;
}
);
note = uni1EEE;
unicode = 1EEE;
},
{
glyphname = Uhungarumlaut;
lastChange = "2019-09-04 12:21:52 +0000";
layers = (
{
hints = (
{
horizontal = 1;
place = "{0, 22}";
type = Stem;
},
{
horizontal = 1;
place = "{794.25, 138.5}";
type = Stem;
},
{
place = "{104.71, 616.99}";
type = Stem;
}
);
layerId = "456D8B29-1305-406A-A7FA-547C067BBBCD";
paths = (
{
closed = 1;
nodes = (
"503.05 0 LINE",
"607.49 89.68 LINE",
"721.7 737 LINE",
"699.7 737 LINE",
"587.2 99 LINE",
"497.7 22 LINE",
"189.75 22 LINE",
"127.5 99 LINE",
"239.95 737 LINE",
"217.95 737 LINE",
"104.71 94.95 LINE",
"181.67 0 LINE"
);
},
{
closed = 1;
nodes = (
"422.54 794.25 LINE",
"544.27 932.75 LINE",
"508.5 932.75 LINE",
"399.25 794.25 LINE"
);
},
{
closed = 1;
nodes = (
"532.54 794.25 LINE",
"654.27 932.75 LINE",
"618.5 932.75 LINE",
"509.25 794.25 LINE"
);
}
);
width = 684;
}
);
note = Uhungarumlaut;
unicode = 0170;
},
{
glyphname = uni0216;
lastChange = "2019-09-04 12:21:52 +0000";
layers = (
{
hints = (
{
horizontal = 1;
place = "{0, 22}";
type = Stem;
},
{
horizontal = 1;
place = "{889.87, 20.88}";
type = Stem;
},
{
place = "{104.71, 616.99}";
type = Stem;
}
);
layerId = "456D8B29-1305-406A-A7FA-547C067BBBCD";
paths = (
{
closed = 1;
nodes = (
"503.05 0 LINE",
"607.49 89.68 LINE",
"721.7 737 LINE",
"699.7 737 LINE",
"587.2 99 LINE",
"497.7 22 LINE",
"189.75 22 LINE",
"127.5 99 LINE",
"239.95 737 LINE",
"217.95 737 LINE",
"104.71 94.95 LINE",
"181.67 0 LINE"
);
},
{
closed = 1;
nodes = (
"385.62 794.25 LINE",
"396.37 854.75 LINE",
"437.62 889.87 LINE",
"549.87 889.87 LINE",
"578.87 854.75 LINE",
"568.12 794.25 LINE",
"589.12 794.25 LINE",
"600.68 858.99 LINE",
"557.79 910.75 LINE",
"432.16 910.75 LINE",
"376.96 863.7 LINE",
"364.62 794.25 LINE"
);
}
);
width = 684;
}
);
note = uni0216;
unicode = 0216;
},
{
glyphname = Umacron;
lastChange = "2019-09-04 12:21:52 +0000";
layers = (
{
hints = (
{
horizontal = 1;
place = "{0, 22}";
type = Stem;
},
{
horizontal = 1;
place = "{794.25, 20.87}";
type = Stem;
},
{
place = "{104.71, 616.99}";
type = Stem;
}
);
layerId = "456D8B29-1305-406A-A7FA-547C067BBBCD";
paths = (
{
closed = 1;
nodes = (
"503.05 0 LINE",
"607.49 89.68 LINE",
"721.7 737 LINE",
"699.7 737 LINE",
"587.2 99 LINE",
"497.7 22 LINE",
"189.75 22 LINE",
"127.5 99 LINE",
"239.95 737 LINE",
"217.95 737 LINE",
"104.71 94.95 LINE",
"181.67 0 LINE"
);
},
{
closed = 1;
nodes = (
"621 794.25 LINE",
"624.75 815.12 LINE",
"336.5 815.12 LINE",
"332.75 794.25 LINE"
);
}
);
width = 684;
}
);
note = Umacron;
unicode = 016A;
},
{
glyphname = Uogonek;
lastChange = "2019-09-04 12:21:52 +0000";
layers = (
{
hints = (
{
horizontal = 1;
place = "{-138.63, 22}";
type = Stem;
},
{
horizontal = 1;
place = "{0, 22}";
type = Stem;
},
{
place = "{104.71, 616.99}";
type = Stem;
}
);
layerId = "456D8B29-1305-406A-A7FA-547C067BBBCD";
paths = (
{
closed = 1;
nodes = (
"359.36 -138.63 LINE",
"363.24 -116.63 LINE",
"341.24 -116.63 LINE",
"314.99 -84.75 LINE",
"322.49 -42.63 LINE",
"383.86 0 LINE",
"503.04 0 LINE",
"607.48 89.68 LINE",
"721.69 737 LINE",
"699.7 737 LINE",
"587.2 99 LINE",
"497.7 22 LINE",
"189.75 22 LINE",
"127.5 99 LINE",
"239.95 737 LINE",
"217.95 737 LINE",
"104.71 94.95 LINE",
"181.67 0 LINE",
"346.67 0 LINE",
"302.39 -30.65 LINE",
"292.27 -88.88 LINE",
"333.12 -138.63 LINE"
);
}
);
width = 684;
}
);
note = Uogonek;
unicode = 0172;
},
{
glyphname = Uring;
lastChange = "2019-09-04 12:21:52 +0000";
layers = (
{
hints = (
{
horizontal = 1;
place = "{0, 22}";
type = Stem;
},
{
horizontal = 1;
place = "{794.25, 20.87}";
type = Stem;
},
{
horizontal = 1;
place = "{940.5, 20.87}";
type = Stem;
},
{
place = "{104.71, 616.99}";
type = Stem;
}
);
layerId = "456D8B29-1305-406A-A7FA-547C067BBBCD";
paths = (
{
closed = 1;
nodes = (
"503.05 0 LINE",
"607.49 89.68 LINE",
"721.7 737 LINE",
"699.7 737 LINE",
"587.2 99 LINE",
"497.7 22 LINE",
"189.75 22 LINE",
"127.5 99 LINE",
"239.95 737 LINE",
"217.95 737 LINE",
"104.71 94.95 LINE",
"181.67 0 LINE"
);
},
{
closed = 1;
nodes = (
"511.63 794.25 LINE",
"566.82 841.32 LINE",
"578.84 909.58 LINE",
"536.44 961.37 LINE",
"467.57 961.37 LINE",
"412.44 914.35 LINE",
"400.42 846.25 LINE",
"443.09 794.25 LINE"
);
},
{
closed = 1;
nodes = (
"422 850.25 LINE",
"431.75 905.25 LINE",
"473.25 940.5 LINE",
"528.25 940.5 LINE",
"557.25 905.25 LINE",
"547.5 850.25 LINE",
"506.12 815.12 LINE",
"451.12 815.12 LINE"
);
}
);
width = 684;
}
);
note = Uring;
unicode = 016E;
},
{
glyphname = Utilde;
lastChange = "2019-09-04 12:21:52 +0000";
layers = (
{
hints = (
{
horizontal = 1;
place = "{0, 22}";
type = Stem;
},
{
horizontal = 1;
place = "{794.25, 20.87}";
type = Stem;
},
{
horizontal = 1;
place = "{871.25, 20.87}";
type = Stem;
},
{
place = "{104.71, 616.99}";
type = Stem;
}
);
layerId = "456D8B29-1305-406A-A7FA-547C067BBBCD";
paths = (
{
closed = 1;
nodes = (
"503.05 0 LINE",
"607.49 89.68 LINE",
"721.7 737 LINE",
"699.7 737 LINE",
"587.2 99 LINE",
"497.7 22 LINE",
"189.75 22 LINE",
"127.5 99 LINE",
"239.95 737 LINE",
"217.95 737 LINE",
"104.71 94.95 LINE",
"181.67 0 LINE"
);
},
{
closed = 1;
nodes = (
"350.25 794.25 LINE",
"360.75 834.87 LINE",
"406.75 871.25 LINE",
"456.88 871.25 LINE",
"519.88 794.25 LINE",
"575.19 794.25 LINE",
"629.7 842.13 LINE",
"639.29 892.12 LINE",
"623.75 892.12 LINE",
"613.37 851.37 LINE",
"567.37 815.12 LINE",
"529.89 815.12 LINE",
"466.78 892.12 LINE",
"398.9 892.12 LINE",
"344.24 843.75 LINE",
"334.56 794.25 LINE"
);
}
);
width = 684;
}
);
note = Utilde;
unicode = 0168;
},
{
glyphname = V;
lastChange = "2019-09-04 12:21:52 +0000";
layers = (
{
hints = (
{
horizontal = 1;
place = "{0, 22}";
type = Stem;
},
{
place = "{150, 586.41}";
type = Stem;
}
);
layerId = "456D8B29-1305-406A-A7FA-547C067BBBCD";
paths = (
{
closed = 1;
nodes = (
"336.95 0 LINE",
"736.42 737 LINE",
"713.33 737 LINE",
"325.45 22 LINE",
"305.7 22 LINE",
"169.95 737 LINE",
"150.01 737 LINE",
"288.37 0 LINE"
);
}
);
width = 626;
}
);
leftKerningGroup = V;
note = V;
rightKerningGroup = V;
unicode = 0056;
},
{
glyphname = W;
lastChange = "2019-09-11 15:52:49 +0000";
layers = (
{
hints = (
{
horizontal = 1;
place = "{0, 22}";
type = Stem;
},
{
horizontal = 1;
place = "{699.44, 37.56}";
type = Stem;
},
{
place = "{139, 852}";
type = Stem;
}
);
layerId = "456D8B29-1305-406A-A7FA-547C067BBBCD";
paths = (
{
closed = 1;
nodes = (
"263.75 0 LINE",
"557.76 699.44 LINE",
"605.99 0 LINE",
"656.37 0 LINE",
"991 737 LINE",
"968.62 737 LINE",
"644.5 22 LINE",
"624.75 22 LINE",
"575.46 737 LINE",
"551.75 737 LINE",
"250.75 22 LINE",
"231 22 LINE",
"159.12 737 LINE",
"139 737 LINE",
"213.3 0 LINE"
);
}
);
width = 892;
}
);
leftKerningGroup = W;
note = W;
rightKerningGroup = W;
unicode = 0057;
},
{
glyphname = Wacute;
lastChange = "2019-09-04 12:21:52 +0000";
layers = (
{
hints = (
{
horizontal = 1;
place = "{0, 22}";
type = Stem;
},
{
horizontal = 1;
place = "{699.44, 37.56}";
type = Stem;
},
{
place = "{139, 852}";
type = Stem;
}
);
layerId = "456D8B29-1305-406A-A7FA-547C067BBBCD";
paths = (
{
closed = 1;
nodes = (
"263.75 0 LINE",
"557.76 699.44 LINE",
"605.99 0 LINE",
"656.37 0 LINE",
"991 737 LINE",
"968.62 737 LINE",
"644.5 22 LINE",
"624.75 22 LINE",
"575.46 737 LINE",
"551.75 737 LINE",
"250.75 22 LINE",
"231 22 LINE",
"159.12 737 LINE",
"139 737 LINE",
"213.3 0 LINE"
);
},
{
closed = 1;
nodes = (
"586.67 794.25 LINE",
"708.4 932.75 LINE",
"672.62 932.75 LINE",
"563.37 794.25 LINE"
);
}
);
width = 892;
}
);
leftKerningGroup = W;
note = Wacute;
rightKerningGroup = W;
unicode = 1E82;
},
{
glyphname = Wcircumflex;
lastChange = "2019-09-04 12:21:52 +0000";
layers = (
{
hints = (
{
horizontal = 1;
place = "{0, 22}";
type = Stem;
},
{
horizontal = 1;
place = "{699.44, 37.56}";
type = Stem;
},
{
horizontal = 1;
place = "{911.87, 19.88}";
type = Stem;
},
{
place = "{139, 852}";
type = Stem;
}
);
layerId = "456D8B29-1305-406A-A7FA-547C067BBBCD";
paths = (
{
closed = 1;
nodes = (
"263.75 0 LINE",
"557.76 699.44 LINE",
"605.99 0 LINE",
"656.37 0 LINE",
"991 737 LINE",
"968.62 737 LINE",
"644.5 22 LINE",
"624.75 22 LINE",
"575.46 737 LINE",
"551.75 737 LINE",
"250.75 22 LINE",
"231 22 LINE",
"159.12 737 LINE",
"139 737 LINE",
"213.3 0 LINE"
);
},
{
closed = 1;
nodes = (
"466.25 794.25 LINE",
"583.87 911.87 LINE",
"601.37 911.87 LINE",
"677.5 794.25 LINE",
"698.59 794.25 LINE",
"616.84 931.75 LINE",
"569.7 931.75 LINE",
"442.42 794.25 LINE"
);
}
);
width = 892;
}
);
leftKerningGroup = W;
note = Wcircumflex;
rightKerningGroup = W;
unicode = 0174;
},
{
glyphname = Wdieresis;
lastChange = "2019-09-04 12:21:52 +0000";
layers = (
{
hints = (
{
horizontal = 1;
place = "{0, 22}";
type = Stem;
},
{
horizontal = 1;
place = "{699.44, 37.56}";
type = Stem;
},
{
horizontal = 1;
place = "{794.25, 103.5}";
type = Stem;
},
{
place = "{139, 852}";
type = Stem;
}
);
layerId = "456D8B29-1305-406A-A7FA-547C067BBBCD";
paths = (
{
closed = 1;
nodes = (
"263.75 0 LINE",
"557.76 699.44 LINE",
"605.99 0 LINE",
"656.37 0 LINE",
"991 737 LINE",
"968.62 737 LINE",
"644.5 22 LINE",
"624.75 22 LINE",
"575.46 737 LINE",
"551.75 737 LINE",
"250.75 22 LINE",
"231 22 LINE",
"159.12 737 LINE",
"139 737 LINE",
"213.3 0 LINE"
);
},
{
closed = 1;
nodes = (
"449.75 794.25 LINE",
"468 897.75 LINE",
"446 897.75 LINE",
"427.75 794.25 LINE"
);
},
{
closed = 1;
nodes = (
"716 794.25 LINE",
"734.25 897.75 LINE",
"712.25 897.75 LINE",
"694 794.25 LINE"
);
}
);
width = 892;
}
);
leftKerningGroup = W;
note = Wdieresis;
rightKerningGroup = W;
unicode = 1E84;
},
{
glyphname = Wgrave;
lastChange = "2019-09-04 12:21:52 +0000";
layers = (
{
hints = (
{
horizontal = 1;
place = "{0, 22}";
type = Stem;
},
{
horizontal = 1;
place = "{699.44, 37.56}";
type = Stem;
},
{
horizontal = 1;
place = "{794.25, 138.5}";
type = Stem;
},
{
place = "{139, 852}";
type = Stem;
}
);
layerId = "456D8B29-1305-406A-A7FA-547C067BBBCD";
paths = (
{
closed = 1;
nodes = (
"263.75 0 LINE",
"557.76 699.44 LINE",
"605.99 0 LINE",
"656.37 0 LINE",
"991 737 LINE",
"968.62 737 LINE",
"644.5 22 LINE",
"624.75 22 LINE",
"575.46 737 LINE",
"551.75 737 LINE",
"250.75 22 LINE",
"231 22 LINE",
"159.12 737 LINE",
"139 737 LINE",
"213.3 0 LINE"
);
},
{
closed = 1;
nodes = (
"569.22 794.25 LINE",
"508.9 932.75 LINE",
"477.32 932.75 LINE",
"548.98 794.25 LINE"
);
}
);
width = 892;
}
);
leftKerningGroup = W;
note = Wgrave;
rightKerningGroup = W;
unicode = 1E80;
},
{
glyphname = X;
lastChange = "2019-09-04 12:21:52 +0000";
layers = (
{
hints = (
{
horizontal = 1;
place = "{357.5, 22}";
type = Stem;
},
{
place = "{17.81, 662.09}";
type = Stem;
}
);
layerId = "456D8B29-1305-406A-A7FA-547C067BBBCD";
paths = (
{
closed = 1;
nodes = (
"44.5 0 LINE",
"336.25 357.5 LINE",
"358 357.5 LINE",
"523.75 0 LINE",
"546.28 0 LINE",
"376.02 365.4 LINE",
"679.9 737 LINE",
"653.12 737 LINE",
"361.12 379.5 LINE",
"339.87 379.5 LINE",
"174.25 737 LINE",
"151.98 737 LINE",
"321.79 371.36 LINE",
"17.81 0 LINE"
);
}
);
width = 568;
}
);
leftKerningGroup = X;
note = X;
rightKerningGroup = X;
unicode = 0058;
},
{
glyphname = Y;
lastChange = "2019-09-04 12:21:52 +0000";
layers = (
{
hints = (
{
horizontal = 1;
place = "{0, 737}";
type = Stem;
},
{
place = "{151.42, 537.95}";
type = Stem;
}
);
layerId = "456D8B29-1305-406A-A7FA-547C067BBBCD";
paths = (
{
closed = 1;
nodes = (
"299.37 0 LINE",
"359.41 340.77 LINE",
"689.37 737 LINE",
"662.5 737 LINE",
"359.62 372.87 LINE",
"348.62 372.87 LINE",
"174.12 737 LINE",
"151.42 737 LINE",
"338.68 348.12 LINE",
"277.37 0 LINE"
);
}
);
width = 577;
}
);
leftKerningGroup = Y;
note = Y;
rightKerningGroup = Y;
unicode = 0059;
},
{
glyphname = Yacute;
lastChange = "2019-09-04 12:21:52 +0000";
layers = (
{
hints = (
{
horizontal = 1;
place = "{0, 932.25}";
type = Stem;
},
{
place = "{151.42, 537.95}";
type = Stem;
}
);
layerId = "456D8B29-1305-406A-A7FA-547C067BBBCD";
paths = (
{
closed = 1;
nodes = (
"299.37 0 LINE",
"359.41 340.77 LINE",
"689.37 737 LINE",
"662.5 737 LINE",
"359.62 372.87 LINE",
"348.62 372.87 LINE",
"174.12 737 LINE",
"151.42 737 LINE",
"338.68 348.12 LINE",
"277.37 0 LINE"
);
},
{
closed = 1;
nodes = (
"441.42 793.75 LINE",
"563.15 932.25 LINE",
"527.37 932.25 LINE",
"418.12 793.75 LINE"
);
}
);
width = 577;
}
);
leftKerningGroup = Y;
note = Yacute;
rightKerningGroup = Y;
unicode = 00DD;
},
{
glyphname = Ycircumflex;
lastChange = "2019-09-04 12:21:52 +0000";
layers = (
{
hints = (
{
horizontal = 1;
place = "{911.37, 19.88}";
type = Stem;
},
{
place = "{151.42, 537.95}";
type = Stem;
}
);
layerId = "456D8B29-1305-406A-A7FA-547C067BBBCD";
paths = (
{
closed = 1;
nodes = (
"299.37 0 LINE",
"359.41 340.77 LINE",
"689.37 737 LINE",
"662.5 737 LINE",
"359.62 372.87 LINE",
"348.62 372.87 LINE",
"174.12 737 LINE",
"151.42 737 LINE",
"338.68 348.12 LINE",
"277.37 0 LINE"
);
},
{
closed = 1;
nodes = (
"321 793.75 LINE",
"438.62 911.37 LINE",
"456.12 911.37 LINE",
"532.25 793.75 LINE",
"553.34 793.75 LINE",
"471.59 931.25 LINE",
"424.45 931.25 LINE",
"297.17 793.75 LINE"
);
}
);
width = 577;
}
);
leftKerningGroup = Y;
note = Ycircumflex;
rightKerningGroup = Y;
unicode = 0176;
},
{
glyphname = Ydieresis;
lastChange = "2019-09-04 12:21:52 +0000";
layers = (
{
hints = (
{
horizontal = 1;
place = "{793.75, 103.5}";
type = Stem;
},
{
place = "{151.42, 537.95}";
type = Stem;
}
);
layerId = "456D8B29-1305-406A-A7FA-547C067BBBCD";
paths = (
{
closed = 1;
nodes = (
"299.37 0 LINE",
"359.41 340.77 LINE",
"689.37 737 LINE",
"662.5 737 LINE",
"359.62 372.87 LINE",
"348.62 372.87 LINE",
"174.12 737 LINE",
"151.42 737 LINE",
"338.68 348.12 LINE",
"277.37 0 LINE"
);
},
{
closed = 1;
nodes = (
"304.5 793.75 LINE",
"322.75 897.25 LINE",
"300.75 897.25 LINE",
"282.5 793.75 LINE"
);
},
{
closed = 1;
nodes = (
"570.75 793.75 LINE",
"589 897.25 LINE",
"567 897.25 LINE",
"548.75 793.75 LINE"
);
}
);
width = 577;
}
);
leftKerningGroup = Y;
note = Ydieresis;
rightKerningGroup = Y;
unicode = 0178;
},
{
glyphname = uni1EF4;
lastChange = "2019-09-04 12:21:52 +0000";
layers = (
{
hints = (
{
horizontal = 1;
place = "{-160.63, 897.63}";
type = Stem;
},
{
place = "{151.42, 537.95}";
type = Stem;
}
);
layerId = "456D8B29-1305-406A-A7FA-547C067BBBCD";
paths = (
{
closed = 1;
nodes = (
"299.37 0 LINE",
"359.41 340.77 LINE",
"689.37 737 LINE",
"662.5 737 LINE",
"359.62 372.87 LINE",
"348.62 372.87 LINE",
"174.12 737 LINE",
"151.42 737 LINE",
"338.68 348.12 LINE",
"277.37 0 LINE"
);
},
{
closed = 1;
nodes = (
"271.19 -160.63 LINE",
"289.44 -57.25 LINE",
"267.44 -57.25 LINE",
"249.19 -160.63 LINE"
);
}
);
width = 577;
}
);
leftKerningGroup = Y;
note = uni1EF4;
rightKerningGroup = Y;
unicode = 1EF4;
},
{
glyphname = Ygrave;
lastChange = "2019-09-04 12:21:52 +0000";
layers = (
{
hints = (
{
horizontal = 1;
place = "{793.75, 138.5}";
type = Stem;
},
{
place = "{151.42, 537.95}";
type = Stem;
}
);
layerId = "456D8B29-1305-406A-A7FA-547C067BBBCD";
paths = (
{
closed = 1;
nodes = (
"299.37 0 LINE",
"359.41 340.77 LINE",
"689.37 737 LINE",
"662.5 737 LINE",
"359.62 372.87 LINE",
"348.62 372.87 LINE",
"174.12 737 LINE",
"151.42 737 LINE",
"338.68 348.12 LINE",
"277.37 0 LINE"
);
},
{
closed = 1;
nodes = (
"423.97 793.75 LINE",
"363.65 932.25 LINE",
"332.07 932.25 LINE",
"403.73 793.75 LINE"
);
}
);
width = 577;
}
);
leftKerningGroup = Y;
note = Ygrave;
rightKerningGroup = Y;
unicode = 1EF2;
},
{
glyphname = uni1EF6;
lastChange = "2019-09-04 12:21:52 +0000";
layers = (
{
hints = (
{
horizontal = 1;
place = "{960.5, 21.62}";
type = Stem;
},
{
place = "{418.75, 20.48}";
type = Stem;
}
);
layerId = "456D8B29-1305-406A-A7FA-547C067BBBCD";
paths = (
{
closed = 1;
nodes = (
"299.37 -0.01 LINE",
"359.41 340.76 LINE",
"689.37 736.99 LINE",
"662.5 736.99 LINE",
"359.62 372.86 LINE",
"348.62 372.86 LINE",
"174.12 736.99 LINE",
"151.42 736.99 LINE",
"338.68 348.11 LINE",
"277.37 -0.01 LINE"
);
},
{
closed = 1;
nodes = (
"436.87 793.75 LINE",
"441.6 819.8 LINE",
"520.77 885.92 LINE",
"531.36 945.92 LINE",
"503.21 982.11 LINE",
"429.34 982.11 LINE",
"386.19 943.04 LINE",
"400.5 927.11 LINE",
"437.62 960.49 LINE",
"492.87 960.49 LINE",
"508.87 939.86 LINE",
"501.25 896.86 LINE",
"422 830.49 LINE",
"415.5 793.75 LINE"
);
}
);
width = 577;
}
);
leftKerningGroup = Y;
note = uni1EF6;
rightKerningGroup = Y;
unicode = 1EF6;
},
{
glyphname = uni0232;
lastChange = "2019-09-04 12:21:52 +0000";
layers = (
{
hints = (
{
horizontal = 1;
place = "{793.75, 20.87}";
type = Stem;
},
{
place = "{151.42, 537.95}";
type = Stem;
}
);
layerId = "456D8B29-1305-406A-A7FA-547C067BBBCD";
paths = (
{
closed = 1;
nodes = (
"299.37 0 LINE",
"359.41 340.77 LINE",
"689.37 737 LINE",
"662.5 737 LINE",
"359.62 372.87 LINE",
"348.62 372.87 LINE",
"174.12 737 LINE",
"151.42 737 LINE",
"338.68 348.12 LINE",
"277.37 0 LINE"
);
},
{
closed = 1;
nodes = (
"572.75 793.75 LINE",
"576.5 814.62 LINE",
"288.25 814.62 LINE",
"284.5 793.75 LINE"
);
}
);
width = 577;
}
);
leftKerningGroup = Y;
note = uni0232;
rightKerningGroup = Y;
unicode = 0232;
},
{
glyphname = uni1EF8;
lastChange = "2019-09-04 12:21:52 +0000";
layers = (
{
hints = (
{
horizontal = 1;
place = "{793.75, 20.87}";
type = Stem;
},
{
horizontal = 1;
place = "{870.75, 20.87}";
type = Stem;
},
{
place = "{151.42, 537.95}";
type = Stem;
}
);
layerId = "456D8B29-1305-406A-A7FA-547C067BBBCD";
paths = (
{
closed = 1;
nodes = (
"299.37 0 LINE",
"359.41 340.77 LINE",
"689.37 737 LINE",
"662.5 737 LINE",
"359.62 372.87 LINE",
"348.62 372.87 LINE",
"174.12 737 LINE",
"151.42 737 LINE",
"338.68 348.12 LINE",
"277.37 0 LINE"
);
},
{
closed = 1;
nodes = (
"302 793.75 LINE",
"312.5 834.37 LINE",
"358.5 870.75 LINE",
"408.63 870.75 LINE",
"471.63 793.75 LINE",
"526.94 793.75 LINE",
"581.45 841.63 LINE",
"591.04 891.62 LINE",
"575.5 891.62 LINE",
"565.12 850.87 LINE",
"519.12 814.62 LINE",
"481.64 814.62 LINE",
"418.53 891.62 LINE",
"350.65 891.62 LINE",
"295.99 843.25 LINE",
"286.31 793.75 LINE"
);
}
);
width = 577;
}
);
leftKerningGroup = Y;
note = uni1EF8;
rightKerningGroup = Y;
unicode = 1EF8;
},
{
glyphname = Z;
lastChange = "2019-09-04 12:21:52 +0000";
layers = (
{
hints = (
{
horizontal = 1;
place = "{0, 22}";
type = Stem;
},
{
horizontal = 1;
place = "{715, 22}";
type = Stem;
},
{
place = "{95, 598.62}";
type = Stem;
}
);
layerId = "456D8B29-1305-406A-A7FA-547C067BBBCD";
paths = (
{
closed = 1;
nodes = (
"578 0 LINE",
"581.87 22 LINE",
"120.87 22 LINE",
"124.37 41.75 LINE",
"684.54 687.53 LINE",
"693.62 737 LINE",
"243.75 737 LINE",
"239.87 715 LINE",
"667.75 715 LINE",
"664.25 695.25 LINE",
"103.68 49.45 LINE",
"95 0 LINE"
);
}
);
width = 673;
}
);
leftKerningGroup = Z;
note = Z;
rightKerningGroup = Z;
unicode = 005A;
},
{
glyphname = Zacute;
lastChange = "2019-09-04 12:21:52 +0000";
layers = (
{
hints = (
{
horizontal = 1;
place = "{0, 22}";
type = Stem;
},
{
horizontal = 1;
place = "{715, 22}";
type = Stem;
},
{
place = "{95, 598.62}";
type = Stem;
}
);
layerId = "456D8B29-1305-406A-A7FA-547C067BBBCD";
paths = (
{
closed = 1;
nodes = (
"578 0 LINE",
"581.87 22 LINE",
"120.87 22 LINE",
"124.37 41.75 LINE",
"684.54 687.53 LINE",
"693.62 737 LINE",
"243.75 737 LINE",
"239.87 715 LINE",
"667.75 715 LINE",
"664.25 695.25 LINE",
"103.68 49.45 LINE",
"95 0 LINE"
);
},
{
closed = 1;
nodes = (
"489.79 794.25 LINE",
"611.52 932.75 LINE",
"575.75 932.75 LINE",
"466.5 794.25 LINE"
);
}
);
width = 673;
}
);
leftKerningGroup = Z;
note = Zacute;
rightKerningGroup = Z;
unicode = 0179;
},
{
glyphname = Zcaron;
lastChange = "2019-09-04 12:21:52 +0000";
layers = (
{
hints = (
{
horizontal = 1;
place = "{0, 22}";
type = Stem;
},
{
horizontal = 1;
place = "{715, 22}";
type = Stem;
},
{
horizontal = 1;
place = "{794.24, 19.88}";
type = Stem;
},
{
place = "{95, 598.62}";
type = Stem;
}
);
layerId = "456D8B29-1305-406A-A7FA-547C067BBBCD";
paths = (
{
closed = 1;
nodes = (
"578 0 LINE",
"581.87 22 LINE",
"120.87 22 LINE",
"124.37 41.75 LINE",
"684.54 687.53 LINE",
"693.62 737 LINE",
"243.75 737 LINE",
"239.87 715 LINE",
"667.75 715 LINE",
"664.25 695.25 LINE",
"103.68 49.45 LINE",
"95 0 LINE"
);
},
{
closed = 1;
nodes = (
"497.19 794.24 LINE",
"624.47 931.74 LINE",
"600.64 931.74 LINE",
"483.02 814.12 LINE",
"465.52 814.12 LINE",
"389.39 931.74 LINE",
"368.3 931.74 LINE",
"450.05 794.24 LINE"
);
}
);
width = 673;
}
);
leftKerningGroup = Z;
note = Zcaron;
rightKerningGroup = Z;
unicode = 017D;
},
{
glyphname = Zdotaccent;
lastChange = "2019-09-04 12:21:52 +0000";
layers = (
{
hints = (
{
horizontal = 1;
place = "{0, 22}";
type = Stem;
},
{
horizontal = 1;
place = "{715, 22}";
type = Stem;
},
{
horizontal = 1;
place = "{794.25, 103.37}";
type = Stem;
},
{
place = "{95, 598.62}";
type = Stem;
}
);
layerId = "456D8B29-1305-406A-A7FA-547C067BBBCD";
paths = (
{
closed = 1;
nodes = (
"578 0 LINE",
"581.87 22 LINE",
"120.87 22 LINE",
"124.37 41.75 LINE",
"684.54 687.53 LINE",
"693.62 737 LINE",
"243.75 737 LINE",
"239.87 715 LINE",
"667.75 715 LINE",
"664.25 695.25 LINE",
"103.68 49.45 LINE",
"95 0 LINE"
);
},
{
closed = 1;
nodes = (
"488 794.25 LINE",
"506.25 897.62 LINE",
"484.25 897.62 LINE",
"466 794.25 LINE"
);
}
);
width = 673;
}
);
leftKerningGroup = Z;
note = Zdotaccent;
rightKerningGroup = Z;
unicode = 017B;
},
{
glyphname = a;
lastChange = "2019-09-04 12:21:52 +0000";
layers = (
{
hints = (
{
horizontal = 1;
place = "{0, 22}";
type = Stem;
},
{
horizontal = 1;
place = "{294.75, 22}";
type = Stem;
},
{
horizontal = 1;
place = "{500.5, 22}";
type = Stem;
},
{
place = "{81.25, 463.89}";
type = Stem;
}
);
layerId = "456D8B29-1305-406A-A7FA-547C067BBBCD";
paths = (
{
closed = 1;
nodes = (
"359.5 0 LINE",
"463.48 89.22 LINE",
"447.75 0 LINE",
"469.75 0 LINE",
"545.14 427.6 LINE",
"468.29 522.5 LINE",
"222 522.5 LINE",
"218.12 500.5 LINE",
"460.12 500.5 LINE",
"522.42 423.5 LINE",
"503.6 316.75 LINE",
"209.66 316.75 LINE",
"104.79 226.62 LINE",
"81.25 92.37 LINE",
"159.25 0 LINE"
);
},
{
closed = 1;
nodes = (
"104.5 99 LINE",
"125.37 217.75 LINE",
"214.87 294.75 LINE",
"499.72 294.75 LINE",
"468.69 118.8 LINE",
"353.75 22 LINE",
"166.75 22 LINE"
);
}
);
width = 560;
}
);
leftKerningGroup = a;
note = a;
rightKerningGroup = a;
unicode = 0061;
},
{
glyphname = aacute;
lastChange = "2019-09-04 12:21:52 +0000";
layers = (
{
hints = (
{
horizontal = 1;
place = "{0, 22}";
type = Stem;
},
{
horizontal = 1;
place = "{294.75, 22}";
type = Stem;
},
{
horizontal = 1;
place = "{500.5, 22}";
type = Stem;
},
{
place = "{81.25, 463.89}";
type = Stem;
}
);
layerId = "456D8B29-1305-406A-A7FA-547C067BBBCD";
paths = (
{
closed = 1;
nodes = (
"359.5 0 LINE",
"463.48 89.22 LINE",
"447.75 0 LINE",
"469.75 0 LINE",
"545.14 427.6 LINE",
"468.29 522.5 LINE",
"222 522.5 LINE",
"218.12 500.5 LINE",
"460.12 500.5 LINE",
"522.42 423.5 LINE",
"503.6 316.75 LINE",
"209.66 316.75 LINE",
"104.79 226.62 LINE",
"81.25 92.37 LINE",
"159.25 0 LINE"
);
},
{
closed = 1;
nodes = (
"104.5 99 LINE",
"125.37 217.75 LINE",
"214.87 294.75 LINE",
"499.72 294.75 LINE",
"468.69 118.8 LINE",
"353.75 22 LINE",
"166.75 22 LINE"
);
},
{
closed = 1;
nodes = (
"404.29 579.75 LINE",
"526.02 718.25 LINE",
"490.25 718.25 LINE",
"381 579.75 LINE"
);
}
);
width = 560;
}
);
leftKerningGroup = a;
note = aacute;
rightKerningGroup = a;
unicode = 00E1;
},
{
glyphname = abreve;
lastChange = "2019-09-04 12:21:52 +0000";
layers = (
{
hints = (
{
horizontal = 1;
place = "{0, 22}";
type = Stem;
},
{
horizontal = 1;
place = "{294.75, 22}";
type = Stem;
},
{
horizontal = 1;
place = "{500.5, 22}";
type = Stem;
},
{
horizontal = 1;
place = "{579.75, 20.87}";
type = Stem;
},
{
place = "{81.25, 463.89}";
type = Stem;
}
);
layerId = "456D8B29-1305-406A-A7FA-547C067BBBCD";
paths = (
{
closed = 1;
nodes = (
"359.5 0 LINE",
"463.48 89.22 LINE",
"447.75 0 LINE",
"469.75 0 LINE",
"545.14 427.6 LINE",
"468.29 522.5 LINE",
"222 522.5 LINE",
"218.12 500.5 LINE",
"460.12 500.5 LINE",
"522.42 423.5 LINE",
"503.6 316.75 LINE",
"209.66 316.75 LINE",
"104.79 226.62 LINE",
"81.25 92.37 LINE",
"159.25 0 LINE"
);
},
{
closed = 1;
nodes = (
"104.5 99 LINE",
"125.37 217.75 LINE",
"214.87 294.75 LINE",
"499.72 294.75 LINE",
"468.69 118.8 LINE",
"353.75 22 LINE",
"166.75 22 LINE"
);
},
{
closed = 1;
nodes = (
"452.81 579.75 LINE",
"507.95 626.68 LINE",
"520.37 696.25 LINE",
"499.37 696.25 LINE",
"488.62 635.75 LINE",
"447.37 600.62 LINE",
"335.12 600.62 LINE",
"306.12 635.75 LINE",
"316.87 696.25 LINE",
"295.87 696.25 LINE",
"284.32 630.94 LINE",
"326.99 579.75 LINE"
);
}
);
width = 560;
}
);
leftKerningGroup = a;
note = abreve;
rightKerningGroup = a;
unicode = 0103;
},
{
glyphname = uni1EAF;
lastChange = "2019-09-04 12:21:52 +0000";
layers = (
{
hints = (
{
horizontal = 1;
place = "{0, 22}";
type = Stem;
},
{
horizontal = 1;
place = "{294.75, 22}";
type = Stem;
},
{
horizontal = 1;
place = "{500.5, 22}";
type = Stem;
},
{
horizontal = 1;
place = "{579.75, 20.87}";
type = Stem;
},
{
place = "{81.25, 463.89}";
type = Stem;
}
);
layerId = "456D8B29-1305-406A-A7FA-547C067BBBCD";
paths = (
{
closed = 1;
nodes = (
"359.5 0 LINE",
"463.48 89.22 LINE",
"447.75 0 LINE",
"469.75 0 LINE",
"545.14 427.6 LINE",
"468.29 522.5 LINE",
"222 522.5 LINE",
"218.12 500.5 LINE",
"460.12 500.5 LINE",
"522.42 423.5 LINE",
"503.6 316.75 LINE",
"209.66 316.75 LINE",
"104.79 226.62 LINE",
"81.25 92.37 LINE",
"159.25 0 LINE"
);
},
{
closed = 1;
nodes = (
"104.5 99 LINE",
"125.37 217.75 LINE",
"214.87 294.75 LINE",
"499.72 294.75 LINE",
"468.69 118.8 LINE",
"353.75 22 LINE",
"166.75 22 LINE"
);
},
{
closed = 1;
nodes = (
"452.82 579.75 LINE",
"507.95 626.68 LINE",
"520.37 696.25 LINE",
"499.37 696.25 LINE",
"488.62 635.75 LINE",
"447.37 600.62 LINE",
"335.12 600.62 LINE",
"306.12 635.75 LINE",
"316.87 696.25 LINE",
"295.87 696.25 LINE",
"284.33 630.94 LINE",
"326.99 579.75 LINE"
);
},
{
closed = 1;
nodes = (
"420.14 717.25 LINE",
"541.87 855.75 LINE",
"506.1 855.75 LINE",
"396.85 717.25 LINE"
);
}
);
width = 560;
}
);
leftKerningGroup = a;
note = uni1EAF;
rightKerningGroup = a;
unicode = 1EAF;
},
{
glyphname = uni1EB7;
lastChange = "2019-09-04 12:21:52 +0000";
layers = (
{
hints = (
{
horizontal = 1;
place = "{0, 22}";
type = Stem;
},
{
horizontal = 1;
place = "{294.75, 22}";
type = Stem;
},
{
horizontal = 1;
place = "{500.5, 22}";
type = Stem;
},
{
horizontal = 1;
place = "{579.75, 20.87}";
type = Stem;
},
{
place = "{81.25, 463.89}";
type = Stem;
}
);
layerId = "456D8B29-1305-406A-A7FA-547C067BBBCD";
paths = (
{
closed = 1;
nodes = (
"359.5 0 LINE",
"463.48 89.22 LINE",
"447.75 0 LINE",
"469.75 0 LINE",
"545.14 427.6 LINE",
"468.29 522.5 LINE",
"222 522.5 LINE",
"218.12 500.5 LINE",
"460.12 500.5 LINE",
"522.42 423.5 LINE",
"503.6 316.75 LINE",
"209.66 316.75 LINE",
"104.79 226.62 LINE",
"81.25 92.37 LINE",
"159.25 0 LINE"
);
},
{
closed = 1;
nodes = (
"254.81 -160.63 LINE",
"273.06 -57.25 LINE",
"251.06 -57.25 LINE",
"232.81 -160.63 LINE"
);
},
{
closed = 1;
nodes = (
"104.5 99 LINE",
"125.37 217.75 LINE",
"214.87 294.75 LINE",
"499.72 294.75 LINE",
"468.69 118.8 LINE",
"353.75 22 LINE",
"166.75 22 LINE"
);
},
{
closed = 1;
nodes = (
"452.81 579.75 LINE",
"507.95 626.68 LINE",
"520.37 696.25 LINE",
"499.37 696.25 LINE",
"488.62 635.75 LINE",
"447.37 600.62 LINE",
"335.12 600.62 LINE",
"306.12 635.75 LINE",
"316.87 696.25 LINE",
"295.87 696.25 LINE",
"284.32 630.94 LINE",
"326.99 579.75 LINE"
);
}
);
width = 560;
}
);
leftKerningGroup = a;
note = uni1EB7;
rightKerningGroup = a;
unicode = 1EB7;
},
{
glyphname = uni1EB1;
lastChange = "2019-09-04 12:21:52 +0000";
layers = (
{
hints = (
{
horizontal = 1;
place = "{0, 22}";
type = Stem;
},
{
horizontal = 1;
place = "{294.75, 22}";
type = Stem;
},
{
horizontal = 1;
place = "{500.5, 22}";
type = Stem;
},
{
horizontal = 1;
place = "{579.75, 20.87}";
type = Stem;
},
{
horizontal = 1;
place = "{717.23, 138.5}";
type = Stem;
},
{
place = "{81.25, 463.89}";
type = Stem;
}
);
layerId = "456D8B29-1305-406A-A7FA-547C067BBBCD";
paths = (
{
closed = 1;
nodes = (
"359.5 0 LINE",
"463.48 89.22 LINE",
"447.75 0 LINE",
"469.75 0 LINE",
"545.14 427.6 LINE",
"468.29 522.5 LINE",
"222 522.5 LINE",
"218.12 500.5 LINE",
"460.12 500.5 LINE",
"522.42 423.5 LINE",
"503.6 316.75 LINE",
"209.66 316.75 LINE",
"104.79 226.62 LINE",
"81.25 92.37 LINE",
"159.25 0 LINE"
);
},
{
closed = 1;
nodes = (
"104.5 99 LINE",
"125.37 217.75 LINE",
"214.87 294.75 LINE",
"499.72 294.75 LINE",
"468.69 118.8 LINE",
"353.75 22 LINE",
"166.75 22 LINE"
);
},
{
closed = 1;
nodes = (
"452.81 579.75 LINE",
"507.95 626.68 LINE",
"520.37 696.25 LINE",
"499.37 696.25 LINE",
"488.62 635.75 LINE",
"447.37 600.62 LINE",
"335.12 600.62 LINE",
"306.12 635.75 LINE",
"316.87 696.25 LINE",
"295.87 696.25 LINE",
"284.32 630.94 LINE",
"326.99 579.75 LINE"
);
},
{
closed = 1;
nodes = (
"409.77 717.23 LINE",
"349.44 855.73 LINE",
"317.86 855.73 LINE",
"389.52 717.23 LINE"
);
}
);
width = 560;
}
);
leftKerningGroup = a;
note = uni1EB1;
rightKerningGroup = a;
unicode = 1EB1;
},
{
glyphname = uni1EB3;
lastChange = "2019-09-04 12:21:52 +0000";
layers = (
{
hints = (
{
horizontal = 1;
place = "{0, 22}";
type = Stem;
},
{
horizontal = 1;
place = "{294.75, 22}";
type = Stem;
},
{
horizontal = 1;
place = "{500.5, 22}";
type = Stem;
},
{
horizontal = 1;
place = "{579.75, 20.87}";
type = Stem;
},
{
horizontal = 1;
place = "{884, 21.62}";
type = Stem;
},
{
place = "{401.37, 20.48}";
type = Stem;
}
);
layerId = "456D8B29-1305-406A-A7FA-547C067BBBCD";
paths = (
{
closed = 1;
nodes = (
"359.5 -0.01 LINE",
"463.48 89.21 LINE",
"447.75 -0.01 LINE",
"469.75 -0.01 LINE",
"545.14 427.59 LINE",
"468.29 522.49 LINE",
"222 522.49 LINE",
"218.12 500.49 LINE",
"460.12 500.49 LINE",
"522.42 423.49 LINE",
"503.6 316.74 LINE",
"209.66 316.74 LINE",
"104.79 226.61 LINE",
"81.25 92.36 LINE",
"159.25 -0.01 LINE"
);
},
{
closed = 1;
nodes = (
"104.5 98.99 LINE",
"125.37 217.74 LINE",
"214.87 294.74 LINE",
"499.72 294.74 LINE",
"468.69 118.79 LINE",
"353.75 21.99 LINE",
"166.75 21.99 LINE"
);
},
{
closed = 1;
nodes = (
"452.81 579.74 LINE",
"507.95 626.67 LINE",
"520.37 696.24 LINE",
"499.37 696.24 LINE",
"488.62 635.74 LINE",
"447.37 600.61 LINE",
"335.12 600.61 LINE",
"306.12 635.74 LINE",
"316.87 696.24 LINE",
"295.87 696.24 LINE",
"284.32 630.93 LINE",
"326.99 579.74 LINE"
);
},
{
closed = 1;
nodes = (
"419.49 717.25 LINE",
"424.22 743.3 LINE",
"503.39 809.42 LINE",
"513.98 869.42 LINE",
"485.83 905.61 LINE",
"411.95 905.61 LINE",
"368.81 866.54 LINE",
"383.12 850.61 LINE",
"420.24 884 LINE",
"475.49 884 LINE",
"491.49 863.37 LINE",
"483.87 820.37 LINE",
"404.62 754 LINE",
"398.12 717.25 LINE"
);
}
);
width = 560;
}
);
leftKerningGroup = a;
note = uni1EB3;
rightKerningGroup = a;
unicode = 1EB3;
},
{
glyphname = uni1EB5;
lastChange = "2019-09-04 12:21:52 +0000";
layers = (
{
hints = (
{
horizontal = 1;
place = "{0, 22}";
type = Stem;
},
{
horizontal = 1;
place = "{294.75, 22}";
type = Stem;
},
{
horizontal = 1;
place = "{500.5, 22}";
type = Stem;
},
{
horizontal = 1;
place = "{579.75, 20.87}";
type = Stem;
},
{
horizontal = 1;
place = "{717.25, 20.87}";
type = Stem;
},
{
horizontal = 1;
place = "{794.25, 20.87}";
type = Stem;
},
{
place = "{81.25, 483.24}";
type = Stem;
}
);
layerId = "456D8B29-1305-406A-A7FA-547C067BBBCD";
paths = (
{
closed = 1;
nodes = (
"359.5 0 LINE",
"463.48 89.22 LINE",
"447.75 0 LINE",
"469.75 0 LINE",
"545.14 427.6 LINE",
"468.29 522.5 LINE",
"222 522.5 LINE",
"218.12 500.5 LINE",
"460.12 500.5 LINE",
"522.42 423.5 LINE",
"503.6 316.75 LINE",
"209.66 316.75 LINE",
"104.79 226.62 LINE",
"81.25 92.37 LINE",
"159.25 0 LINE"
);
},
{
closed = 1;
nodes = (
"104.5 99 LINE",
"125.37 217.75 LINE",
"214.87 294.75 LINE",
"499.72 294.75 LINE",
"468.69 118.8 LINE",
"353.75 22 LINE",
"166.75 22 LINE"
);
},
{
closed = 1;
nodes = (
"452.81 579.75 LINE",
"507.95 626.68 LINE",
"520.37 696.25 LINE",
"499.37 696.25 LINE",
"488.62 635.75 LINE",
"447.37 600.62 LINE",
"335.12 600.62 LINE",
"306.12 635.75 LINE",
"316.87 696.25 LINE",
"295.87 696.25 LINE",
"284.32 630.94 LINE",
"326.99 579.75 LINE"
);
},
{
closed = 1;
nodes = (
"275.45 717.25 LINE",
"285.95 757.87 LINE",
"331.95 794.25 LINE",
"382.08 794.25 LINE",
"445.08 717.25 LINE",
"500.4 717.25 LINE",
"554.91 765.13 LINE",
"564.49 815.12 LINE",
"548.95 815.12 LINE",
"538.58 774.37 LINE",
"492.58 738.12 LINE",
"455.09 738.12 LINE",
"391.98 815.12 LINE",
"324.1 815.12 LINE",
"269.45 766.75 LINE",
"259.76 717.25 LINE"
);
}
);
width = 560;
}
);
leftKerningGroup = a;
note = uni1EB5;
rightKerningGroup = a;
unicode = 1EB5;
},
